<?xml version="1.0" encoding="utf-8"?>
<!-- Generator: Adobe Illustrator 22.0.1, SVG Export Plug-In . SVG Version: 6.00 Build 0)  -->
<svg version="1.1" id="Livello_1" xmlns="http://www.w3.org/2000/svg" xmlns:xlink="http://www.w3.org/1999/xlink" x="0px" y="0px"
	 viewBox="0 0 207.3 97.9" style="enable-background:new 0 0 207.3 97.9;" xml:space="preserve">
<style type="text/css">
	.st0{fill:#75C044;}
</style>
<path d="M33.1,62.1H10.6L4.8,78.5H0l19.4-54.2h5.2L44,78.5h-5.2L33.1,62.1z M21.9,30l-9.5,26.9h18.9L21.9,30z"/>
<path d="M49.3,23.9h4.4v8.3h-4.4V23.9z M49.3,39.1h4.4v39.5h-4.4V39.1z"/>
<path d="M62.7,39.1h4.4v9h0.1c1.6-4.7,4.6-10.2,11.9-10.2c1.3,0,2,0.2,2.6,0.3v5.8c-1.4-0.3-2.7-0.5-4.1-0.5
	c-4.8,0-10.6,3.7-10.6,14.9v20.1h-4.4V39.1z"/>
<path class="st0" d="M137.1,0c31,0,48.9,23,48.9,49s-17.9,49-48.9,49c-31,0-48.9-23-48.9-49S106.2,0,137.1,0 M137.1,90.7
	c27.4,0,41.1-20.7,41.1-41.8c0-21.1-13.7-41.8-41.1-41.8C109.7,7.2,96,27.9,96,49C96,70,109.7,90.7,137.1,90.7"/>
<path d="M191.2,23.9h4.4v8.3h-4.4V23.9z M191.2,39.1h4.4v39.5h-4.4V39.1z"/>
<rect x="202.9" y="23.9" width="4.4" height="54.6"/>
</svg>
