<?xml version="1.0" encoding="utf-8"?>
<!-- Generator: Adobe Illustrator 22.0.1, SVG Export Plug-In . SVG Version: 6.00 Build 0)  -->
<svg version="1.1" id="Livello_1" xmlns="http://www.w3.org/2000/svg" xmlns:xlink="http://www.w3.org/1999/xlink" x="0px" y="0px"
	 viewBox="0 0 288 98" style="enable-background:new 0 0 288 98;" xml:space="preserve">
<style type="text/css">
	.st0{fill:#75C044;}
</style>
<g>
	<path d="M43.9,57.9c-1,12.1-8.9,22-21.2,22C8.9,79.9,0,68.8,0,51.4C0,39.1,6.1,23,22.8,23c9.3,0,19.5,5.4,20.8,19.7h-4.4
		c-1.3-10.3-8.6-14.5-16.4-14.5c-10.6,0-18,7.5-18,23.3c0,12.1,5,23.3,18,23.3C33,74.8,38,68.3,39.5,58h4.4V57.9z"/>
	<path d="M68.7,37.9c12,0,17.7,9.9,17.7,20.9s-5.7,20.9-17.7,20.9S51,69.8,51,58.8C51.1,47.8,56.8,37.9,68.7,37.9 M68.7,75
		C77.1,75,82,68.3,82,58.8s-4.9-16.2-13.2-16.2c-8.4,0-13.2,6.8-13.2,16.2C55.5,68.3,60.4,75,68.7,75"/>
	<polygon points="105.2,58 91.9,39.1 97.7,39.1 108.2,54.1 118.7,39.1 124.5,39.1 111.1,58 125.7,78.5 119.8,78.5 108.2,62.1 
		96.7,78.5 90.9,78.5 	"/>
	<polygon points="142,58 128.7,39.1 134.4,39.1 145,54.1 155.5,39.1 161.3,39.1 147.8,58 162.4,78.5 156.5,78.5 145,62.1 
		133.5,78.5 127.7,78.5 	"/>
	<path class="st0" d="M217.9,0c31,0,48.9,23,48.9,49s-17.9,49-48.9,49S169,75,169,49S186.9,0,217.9,0 M217.9,90.7
		C245.3,90.7,259,70,259,49c0-21.1-13.7-41.8-41.1-41.8S176.8,27.9,176.8,49C176.8,70,190.5,90.7,217.9,90.7"/>
	<path d="M271.9,23.9h4.4v8.3h-4.4V23.9z M271.9,39.1h4.4v39.5h-4.4V39.1z"/>
	<rect x="283.6" y="23.9" width="4.4" height="54.6"/>
</g>
</svg>
