<?xml version="1.0" encoding="utf-8"?>
<!-- Generator: Adobe Illustrator 22.0.1, SVG Export Plug-In . SVG Version: 6.00 Build 0)  -->
<svg version="1.1" id="Livello_1" xmlns="http://www.w3.org/2000/svg" xmlns:xlink="http://www.w3.org/1999/xlink" x="0px" y="0px"
	 viewBox="0 0 295.6 82.9" style="enable-background:new 0 0 295.6 82.9;" xml:space="preserve">
<style type="text/css">
	.st0{fill:#75C044;}
</style>
<g>
	<path d="M47.7,9.9H30.2V15H47c5.1,0,8.7,2.3,8.7,10.5c0,6.3-2.2,10.6-9.6,10.6H39v5.2h6.7c9.5,0,14.9-5.5,14.9-15.8
		C60.5,14.1,54.3,9.9,47.7,9.9 M24.6,64.1H29V50.6h-4.4V64.1z"/>
	<path d="M84.5,23.4c-12,0-17.7,9.9-17.7,20.9s5.7,20.9,17.7,20.9s17.7-9.9,17.7-20.9S96.4,23.4,84.5,23.4 M84.5,60.6
		c-8.4,0-13.2-6.8-13.2-16.2s4.8-16.2,13.2-16.2S97.8,35,97.8,44.4S92.8,60.6,84.5,60.6"/>
	<polygon points="155.3,24.6 145.3,56.7 135.7,24.6 130.9,24.6 121.5,56.9 111.6,24.6 106.8,24.6 119.2,64.1 124,64.1 133.2,32.5 
		142.7,64.1 147.4,64.1 160.1,24.6 	"/>
	<path d="M181.7,60.6c-7.9,0-12.5-6.7-12.5-14.9h30.1c0-17.9-9.5-22.3-17.6-22.3c-11.6,0-17,9.9-17,20.9c0,9.6,4.2,20.9,17,20.9
		c10.3,0,15-6.8,16.8-13.8h-4.4C192.5,57.5,189.2,60.6,181.7,60.6 M182,28.1c5.9,0,11.6,3.6,12.8,13.4h-25.6
		C170.2,31.8,176.3,28.1,182,28.1"/>
	<path d="M223.5,23.4c-7.4,0-10.3,5.5-11.9,10.2h-0.1v-9H207v39.5h4.4V44c0-11.2,5.8-14.9,10.6-14.9c1.4,0,2.7,0.2,4.1,0.5v-5.8
		C225.5,23.5,224.8,23.4,223.5,23.4"/>
	<polygon class="st0" points="260.7,38.3 290.7,0 280.6,0 255.5,31.8 230.8,0 220.4,0 250.4,38.3 215.4,82.9 225.2,82.9 255.5,44.6 
		285.3,82.9 295.6,82.9 	"/>
	<path class="st0" d="M29,36.2v-33h-4.2L0,35.7v5.5h24.6v8H29v-8h8.5v-5.1L29,36.2L29,36.2z M24.6,36.2H4.8l19.9-24.9v24.9H24.6z"/>
</g>
</svg>
