<?xml version="1.0" encoding="utf-8"?>
<!-- Generator: Adobe Illustrator 22.0.1, SVG Export Plug-In . SVG Version: 6.00 Build 0)  -->
<svg version="1.1" id="Livello_1" xmlns="http://www.w3.org/2000/svg" xmlns:xlink="http://www.w3.org/1999/xlink" x="0px" y="0px"
	 viewBox="0 0 339.4 98" style="enable-background:new 0 0 339.4 98;" xml:space="preserve">
<style type="text/css">
	.st0{fill:#75C044;}
</style>
<rect y="24.4" width="4.4" height="54.2"/>
<path d="M63.3,53.5c0-7.2-2.9-10.9-9.3-10.9c-6.8,0-10.6,5-10.6,12.7v23.3H39V51.8c0-5-2.8-9.3-8.9-9.3c-6.4,0-11,4.6-11,13.7v22.2
	h-4.4V39.1h4.4v7.3h0.1c1.9-4.2,5.2-8.5,12.3-8.5c7,0,10.2,4.7,11.1,8.6c1.5-3.9,6-8.6,12.2-8.6c8.8,0,12.8,5.6,12.8,13.7v26.9h-4.4
	v-25H63.3z"/>
<path d="M125.6,53.5c0-7.2-2.9-10.9-9.3-10.9c-6.8,0-10.6,5-10.6,12.7v23.3h-4.4V51.8c0-5-2.8-9.3-8.9-9.3c-6.4,0-11,4.6-11,13.7
	v22.2H77V39.1h4.4v7.3h0.1c1.9-4.2,5.2-8.5,12.3-8.5c7,0,10.2,4.7,11.1,8.6c1.5-3.9,6-8.6,12.2-8.6c8.8,0,12.8,5.6,12.8,13.7v26.9
	h-4.4v-25H125.6z"/>
<path d="M165.7,70.8h-0.1c-1.3,4.2-6,9-12.9,9c-10.4,0-13.5-6.8-13.5-16.2V39.1h4.4v25.4c0,7.8,3.8,10.5,9.4,10.5
	c8.7,0,12.6-5.6,12.6-14.6V39.1h4.4v39.4h-4.4v-7.7H165.7z"/>
<path d="M205.7,53.1c0-7.8-3.8-10.5-9.4-10.5c-8.7,0-12.6,5.6-12.6,14.6v21.4h-4.4V39.1h4.4v7.7h0.1c1.3-4.2,6-9,12.9-9
	c10.4,0,13.5,6.8,13.5,16.2v24.4h-4.4V53.1H205.7z"/>
<path class="st0" d="M269.2,0c31,0,48.9,23,48.9,49c0,25.9-17.9,49-48.9,49s-48.9-23-48.9-49C220.3,23,238.3,0,269.2,0 M269.2,90.7
	c27.4,0,41.1-20.7,41.1-41.8S296.6,7.2,269.2,7.2S228.1,27.9,228.1,49S241.8,90.7,269.2,90.7"/>
<path d="M323.3,23.9h4.4v8.3h-4.4V23.9z M323.3,39.1h4.4v39.5h-4.4V39.1z"/>
<rect x="335" y="23.9" width="4.4" height="54.6"/>
</svg>
