<?xml version="1.0" encoding="utf-8"?>
<!-- Generator: Adobe Illustrator 22.0.1, SVG Export Plug-In . SVG Version: 6.00 Build 0)  -->
<svg version="1.1" id="Livello_1" xmlns="http://www.w3.org/2000/svg" xmlns:xlink="http://www.w3.org/1999/xlink" x="0px" y="0px"
	 viewBox="0 0 318.7 111.7" style="enable-background:new 0 0 318.7 111.7;" xml:space="preserve">
<style type="text/css">
	.st0{fill:#75C044;}
</style>
<g>
	<path d="M270.2,31.5c-0.9,0.9-2.1,1.4-3.4,1.4c-1.4,0-2.5-0.5-3.4-1.4c-0.9-0.9-1.4-2.1-1.4-3.4c0-1.4,0.5-2.6,1.5-3.5
		c0.9-0.9,2.1-1.3,3.3-1.3c1.3,0,2.5,0.5,3.4,1.4c0.9,0.9,1.4,2.1,1.4,3.4C271.7,29.4,271.2,30.5,270.2,31.5 M264,25.2
		c-0.8,0.8-1.2,1.7-1.2,2.8c0,1.1,0.4,2.1,1.2,2.9c0.8,0.8,1.7,1.2,2.8,1.2c1.1,0,2-0.4,2.8-1.2c0.8-0.8,1.2-1.7,1.2-2.9
		c0-1.1-0.4-2-1.2-2.8c-0.8-0.8-1.7-1.2-2.8-1.2C265.7,24,264.8,24.4,264,25.2 M264.7,30.7v-5.4c0.3,0,0.8,0,1.5,0c0.7,0,1,0,1.1,0
		c0.4,0,0.8,0.1,1.1,0.3c0.5,0.3,0.7,0.7,0.7,1.3c0,0.5-0.1,0.8-0.4,1c-0.3,0.2-0.6,0.3-0.9,0.4c0.3,0.1,0.6,0.2,0.8,0.3
		c0.3,0.3,0.5,0.7,0.5,1.2v0.5c0,0.1,0,0.1,0,0.2c0,0.1,0,0.1,0,0.2l0,0.2h-1.3c0-0.2-0.1-0.4-0.1-0.7c0-0.3,0-0.5-0.1-0.7
		c-0.1-0.2-0.2-0.3-0.4-0.4c-0.1,0-0.3-0.1-0.5-0.1l-0.3,0h-0.3v1.9H264.7z M267.3,26.4c-0.2-0.1-0.5-0.1-0.8-0.1h-0.3v1.6h0.5
		c0.3,0,0.6-0.1,0.8-0.2c0.2-0.1,0.3-0.3,0.3-0.6C267.7,26.7,267.6,26.5,267.3,26.4"/>
	<polygon points="276.7,33.7 283.2,33.7 283.2,27.1 288.8,27.1 288.8,33.7 295.4,33.7 295.4,39.3 288.8,39.3 288.8,45.9 283.2,45.9 
		283.2,39.3 276.7,39.3 	"/>
	<polygon points="299.9,33.7 306.5,33.7 306.5,27.1 312.1,27.1 312.1,33.7 318.7,33.7 318.7,39.3 312.1,39.3 312.1,45.9 306.5,45.9 
		306.5,39.3 299.9,39.3 	"/>
	<path d="M239.9,90.7c0-14.4,0-30.3,0-44.7h5.3v44.7C244.2,90.7,239.9,90.7,239.9,90.7"/>
	<path d="M239.9,36.3c0-2.5,0-5.4,0-7.9h5.3v7.9C244.2,36.3,239.9,36.3,239.9,36.3"/>
	<path d="M69.5,90.7c0-14.4,0-30.3,0-44.7h5.3v44.7C73.8,90.7,69.5,90.7,69.5,90.7"/>
	<path d="M69.5,36.3c0-2.5,0-5.4,0-7.9h5.3v7.9C73.8,36.3,69.5,36.3,69.5,36.3"/>
	<path d="M0.3,28.4h8.8C16,46.5,22.5,65.2,29.6,83.1C36.4,65,43,46.6,49.7,28.4c2.9,0.2,6.5-0.3,9,0.2v61.9c-0.9,0.4-5.2,0.4-6.1,0
		V36.2c-7.2,17.7-13.5,36.3-20.3,54.5h-5.9C19.8,72.5,13.3,54,6.2,36.2C5.6,53.9,6.1,72.6,5.9,90.7H0C0.2,70-0.3,48.7,0.3,28.4"/>
	<path d="M253.8,28.4h5.2v62.3c-1.7-0.1-4.2,0.1-5.1,0C253.8,70.2,253.8,28.7,253.8,28.4"/>
	<path d="M81.2,46h6.4c3.9,6,8.2,11.5,12,17.6c4.8-5.4,8.5-11.8,13-17.6h6.4c-4.8,7.6-10.6,14.1-15.6,21.5
		c5.1,8.1,11.2,15.2,16.4,23.2c-1.8-0.1-4.8,0.1-5.9,0c-5-5.9-9.1-12.8-13.7-19.1c-5,6.1-9.1,13.1-14.2,19.1
		c-1.8,0.2-4.2-0.3-5.6,0.2c-0.5-1,0.7-2.2,1.2-2.9c4.8-6.5,10.5-13.7,15.4-20.3C91.7,60.4,86.2,53.5,81.2,46"/>
	<path class="st0" d="M178.6,0c35.3,0,55.8,26.3,55.8,55.8s-20.4,55.8-55.8,55.8c-35.3,0-55.8-26.3-55.8-55.8S143.3,0,178.6,0
		 M178.6,103.4c31.3,0,46.9-23.6,46.9-47.6c0-24-15.6-47.6-46.9-47.6s-46.9,23.6-46.9,47.6C131.7,79.8,147.3,103.4,178.6,103.4"/>
</g>
</svg>
