<?xml version="1.0" encoding="utf-8"?>
<!-- Generator: Adobe Illustrator 22.0.1, SVG Export Plug-In . SVG Version: 6.00 Build 0)  -->
<svg version="1.1" id="Livello_1" xmlns="http://www.w3.org/2000/svg" xmlns:xlink="http://www.w3.org/1999/xlink" x="0px" y="0px"
	 viewBox="0 0 237.2 97.9" style="enable-background:new 0 0 237.2 97.9;" xml:space="preserve">
<style type="text/css">
	.st0{fill:#75C044;}
</style>
<g>
	<path d="M236,31.3c-0.7,0.7-1.6,1.1-2.6,1.1c-1.1,0-1.9-0.4-2.7-1.1c-0.7-0.7-1.1-1.6-1.1-2.7c0-1.1,0.4-2,1.2-2.7
		c0.7-0.7,1.6-1,2.6-1c1,0,1.9,0.4,2.7,1.1c0.7,0.7,1.1,1.6,1.1,2.7C237.2,29.7,236.8,30.6,236,31.3 M231.2,26.5
		c-0.6,0.6-0.9,1.3-0.9,2.2c0,0.9,0.3,1.6,0.9,2.2c0.6,0.6,1.3,0.9,2.2,0.9c0.9,0,1.6-0.3,2.2-0.9c0.6-0.6,0.9-1.4,0.9-2.2
		c0-0.8-0.3-1.6-0.9-2.2c-0.6-0.6-1.3-0.9-2.2-0.9C232.5,25.5,231.8,25.8,231.2,26.5 M231.7,30.7v-4.2h1.2c0.5,0,0.8,0,0.9,0
		c0.3,0,0.6,0.1,0.8,0.2c0.4,0.2,0.6,0.5,0.6,1c0,0.3-0.1,0.6-0.3,0.8c-0.2,0.2-0.4,0.3-0.7,0.3c0.3,0.1,0.5,0.1,0.6,0.2
		c0.2,0.2,0.4,0.5,0.4,0.9v0.4c0,0,0,0.1,0,0.1c0,0,0,0.1,0,0.1l0,0.1h-1c0-0.1-0.1-0.3-0.1-0.6c0-0.3,0-0.4-0.1-0.5
		c-0.1-0.1-0.2-0.2-0.3-0.3c-0.1,0-0.2-0.1-0.4-0.1l-0.2,0h-0.2v1.5H231.7z M233.7,27.4c-0.2-0.1-0.4-0.1-0.6-0.1h-0.3v1.2h0.4
		c0.3,0,0.5-0.1,0.6-0.2c0.1-0.1,0.2-0.3,0.2-0.5C234.1,27.6,234,27.5,233.7,27.4"/>
	<polygon points="44.6,24.4 50.9,24.4 50.9,78.5 46.5,78.5 46.5,31.7 46.3,31.7 27.5,78.5 23.4,78.5 4.6,31.6 4.4,31.6 4.4,78.5 
		0,78.5 0,24.4 6.5,24.4 25.5,71.5 	"/>
	<path d="M60.5,23.9h4.4v8.3h-4.4V23.9z M60.5,39.1h4.4v39.5h-4.4V39.1z"/>
	<polygon points="84.7,58 71.4,39.1 77.1,39.1 87.7,54.1 98.2,39.1 104,39.1 90.5,58 105.1,78.5 99.2,78.5 87.7,62.1 76.2,78.5 
		70.4,78.5 	"/>
	<path class="st0" d="M155.2,0c31,0,48.9,23,48.9,49c0,25.9-17.9,49-48.9,49c-31,0-48.9-23-48.9-49C106.3,23,124.2,0,155.2,0
		 M155.2,90.7c27.4,0,41.1-20.7,41.1-41.8S182.6,7.2,155.2,7.2S114.1,27.9,114.1,49S127.8,90.7,155.2,90.7"/>
	<path d="M209.2,23.9h4.4v8.3h-4.4V23.9z M209.2,39.1h4.4v39.5h-4.4V39.1z"/>
	<rect x="221" y="23.9" width="4.4" height="54.6"/>
</g>
</svg>
