<?xml version="1.0" encoding="utf-8"?>
<!-- Generator: Adobe Illustrator 22.0.1, SVG Export Plug-In . SVG Version: 6.00 Build 0)  -->
<svg version="1.1" id="Livello_1" xmlns="http://www.w3.org/2000/svg" xmlns:xlink="http://www.w3.org/1999/xlink" x="0px" y="0px"
	 viewBox="0 0 273.8 97.9" style="enable-background:new 0 0 273.8 97.9;" xml:space="preserve">
<style type="text/css">
	.st0{fill:#75C044;}
</style>
<g>
	<path d="M0,24.4h23.1C29.7,24.4,36,28.5,36,40c0,10.2-5.3,15.8-14.9,15.8H4.4v22.8H0V24.4z M4.4,50.6h17.1c7.4,0,9.6-4.3,9.6-10.6
		c0-8.1-3.6-10.5-8.7-10.5h-18C4.4,29.5,4.4,50.6,4.4,50.6z"/>
	<path d="M43.3,39.1h4.4v9h0.1c1.6-4.7,4.6-10.2,11.9-10.2c1.3,0,2,0.2,2.6,0.3V44c-1.4-0.3-2.7-0.5-4.1-0.5
		c-4.8,0-10.6,3.7-10.6,14.9v20.1h-4.4V39.1H43.3z"/>
	<path class="st0" d="M76.5,50.8c0.5,23,15.2,40,41.3,40c26.9,0,33.8-18,36.9-26.3h7.8C155.2,87.7,140,97.9,117,97.9
		c-29.6,0-48.2-19.1-48.2-49.7C68.8,29,80.3,0,117.2,0c30.1,0,47.4,21.2,47.7,50.8H76.5z M156.1,43.6c-3.2-25.2-19.8-36.4-39.8-36.4
		C94,7.2,79.9,21.6,76.5,43.6H156.1z"/>
	<polygon points="169.1,24.4 174.5,24.4 204.4,70.6 204.5,70.6 204.5,24.4 208.9,24.4 208.9,78.5 203.8,78.5 173.7,32.2 173.6,32.2 
		173.6,78.5 169.1,78.5 	"/>
	<path d="M218.4,51.2c0.7-8.3,4.2-13.4,14.9-13.4c10.4,0,14.3,4.1,14.3,11.7v20.6c0,3.3,0.7,4.4,2.5,4.4c0.8,0,1.6-0.1,2.3-0.2v3.8
		c-0.9,0.2-2.3,0.6-3.7,0.6c-4.5,0-4.7-3.9-4.8-7h-0.1c-1.4,2.6-4.4,7.9-14.6,7.9c-5.3,0-12.1-3-12.1-11.8
		c0-10.7,8.7-11.9,15.5-12.4c9.7-0.7,10.9-1.4,10.9-5.2c0-5.7-3-7.7-10.3-7.7c-7,0-10.4,2.4-10.7,8.6L218.4,51.2L218.4,51.2z
		 M243.5,57.3c-2,1.6-5,1.9-13.8,3c-5.2,0.6-8.2,2.6-8.2,7.3c0,6.1,4.2,8,9,8c6,0,13-4.1,13-12.2V57.3z"/>
	<path d="M260.6,26.6h4.4V39h8.8v4.2H265v26.1c0,3.4,0.8,5,4.4,5c2.2,0,3.5-0.2,4.4-0.5v4.7c-1.7,0.3-3.4,0.5-4.9,0.5
		c-6.9,0-8.4-3.4-8.4-9.8v-26h-6.8V39h6.8V26.6H260.6z"/>
</g>
</svg>
