<?xml version="1.0" encoding="utf-8"?>
<!-- Generator: Adobe Illustrator 22.0.1, SVG Export Plug-In . SVG Version: 6.00 Build 0)  -->
<svg version="1.1" id="Livello_1" xmlns="http://www.w3.org/2000/svg" xmlns:xlink="http://www.w3.org/1999/xlink" x="0px" y="0px"
	 viewBox="0 0 370.4 97.9" style="enable-background:new 0 0 370.4 97.9;" xml:space="preserve">
<style type="text/css">
	.st0{fill:#75C044;}
</style>
<polygon points="16.8,29.5 0,29.5 0,24.4 38,24.4 38,29.5 21.2,29.5 21.2,78.5 16.8,78.5 "/>
<g>
	<path class="st0" d="M93.5,0c31,0,48.9,23,48.9,49s-17.9,49-48.9,49c-31,0-48.9-23-48.9-49S62.5,0,93.5,0 M93.5,90.7
		c27.4,0,41.1-20.7,41.1-41.8c0-21.1-13.7-41.8-41.1-41.8S52.4,27.9,52.4,49C52.4,70,66.1,90.7,93.5,90.7"/>
	<polygon points="158.4,58 145.1,39.1 150.8,39.1 161.4,54.1 171.9,39.1 177.7,39.1 164.2,58 178.8,78.5 173,78.5 161.4,62.1 
		149.9,78.5 144.1,78.5 	"/>
	<path d="M184.3,23.9h4.4v8.3h-4.4V23.9z M184.3,39.1h4.4v39.5h-4.4V39.1z"/>
	<path d="M224.3,53.1c0-7.8-3.8-10.5-9.4-10.5c-8.7,0-12.6,5.6-12.6,14.6v21.4h-4.4V39.1h4.4v7.7h0.1c1.3-4.2,6-9,12.9-9
		c10.4,0,13.5,6.8,13.5,16.2v24.4h-4.4V53.1z"/>
	<path d="M240.8,43.3h-6.8v-4.2h6.8v-5.2c0-7.4,2.9-9.9,8.8-9.9c1.7,0,3.6,0.2,5,0.3v4.7c-1.4-0.2-2.8-0.3-4.1-0.3
		c-4,0-5.2,1.3-5.2,5.8v4.6h8.8v4.2h-8.8v35.2h-4.4V43.3z M256.7,23.9h4.4v8.3h-4.4V23.9z M256.7,39.1h4.4v39.5h-4.4V39.1z"/>
	<path d="M270.2,23.9h4.4V47h0.1c2-5,6.8-9.1,12.7-9.1c11.6,0,17,9.9,17,20.9c0,9.6-4.2,20.9-17,20.9c-7.6,0-11.5-5.8-12.7-9.1h-0.1
		v7.9h-4.4V23.9z M287.4,75c9.1,0,12.5-8.3,12.5-16.2c0-10-5.5-16.2-12.5-16.2c-9.1,0-13.1,8.1-13.1,16.2
		C274.4,69.1,280,75,287.4,75"/>
	<path d="M312.5,39.1h4.4v9h0.1c1.6-4.7,4.6-10.2,11.9-10.2c1.3,0,2,0.2,2.6,0.3v5.8c-1.4-0.3-2.7-0.5-4.1-0.5
		c-4.8,0-10.6,3.7-10.6,14.9v20.1h-4.4V39.1z"/>
	<path d="M369.6,65.9c-1.8,7-6.5,13.8-16.8,13.8c-12.8,0-17-11.3-17-20.9c0-11,5.3-20.9,17-20.9c8,0,17.6,4.4,17.6,22.3h-30.1
		c0,8.2,4.6,14.9,12.5,14.9c7.4,0,10.8-3.1,12.3-9.1H369.6z M366,55.9c-1.3-9.7-6.9-13.4-12.8-13.4c-5.7,0-11.8,3.7-12.8,13.4H366z"
		/>
</g>
</svg>
