<?xml version="1.0" encoding="utf-8"?>
<!-- Generator: Adobe Illustrator 22.0.1, SVG Export Plug-In . SVG Version: 6.00 Build 0)  -->
<svg version="1.1" id="Livello_1" xmlns="http://www.w3.org/2000/svg" xmlns:xlink="http://www.w3.org/1999/xlink" x="0px" y="0px"
	 viewBox="0 0 213.5 94.3" style="enable-background:new 0 0 213.5 94.3;" xml:space="preserve">
<g>
	<path d="M56.3,1.6c2.2,0,3.4,0.9,3.6,2.7l8.2,69.6l8.1-69.7c0.3-1.7,1.3-2.6,3.3-2.6h14.6c1.6,0,2.3,1,2.1,3.1L82.9,89.8
		c-0.3,2-1.5,3-3.8,3H58.4c-2.3,0-3.5-0.9-3.8-2.6l-6.5-61.2l-6.5,61.2c-0.3,1.7-1.5,2.6-3.8,2.6H17.1c-2.3,0-3.5-1-3.8-3L0.1,4.7
		c-0.3-2.1,0.4-3.1,2.1-3.1h14.6c1.9,0,3,0.9,3.3,2.6l8.1,69.7l8.2-69.6c0.3-1.8,1.5-2.7,3.6-2.7H56.3z"/>
	<path d="M103.7,4.2c0-1.7,0.8-2.6,2.3-2.6h17.5c1.6,0,2.3,0.9,2.3,2.6v64.4c0,2.5,0.2,4.3,0.7,5.4c0.5,1.1,1.5,1.6,3.2,1.6h23.8
		c1.4,0,2.1,0.7,2.1,2.2v12.1c0,1.8-0.9,2.8-2.6,2.9c-5,0.4-9.9,0.8-14.5,1.1c-4.6,0.3-9.7,0.5-15.2,0.5c-7.2,0-12.3-1.6-15.2-4.7
		c-3-3.1-4.4-8.2-4.4-15.2V4.2z"/>
	<path d="M162.6,20.1c0-7,1.5-12.1,4.4-15.3c3-3.2,8-4.8,15.2-4.8c5,0,9.9,0.1,14.7,0.4c4.7,0.3,9.4,0.7,14,1.3c1,0.2,1.6,0.5,2,0.8
		c0.4,0.4,0.6,1.1,0.6,2v12.1c0,1.4-0.7,2.1-2.1,2.1h-22.8c-1.7,0-2.7,0.6-3.2,1.7c-0.5,1.1-0.7,3-0.7,5.5v12h23.2
		c1.6,0,2.5,0.8,2.5,2.5v13.9c0,1.6-0.8,2.3-2.5,2.3h-23.2v34c0,1.4-0.7,2.1-2.2,2.1h-17.9c-1.4,0-2.1-0.7-2.1-2.1V20.1z"/>
</g>
</svg>
