<?xml version="1.0" encoding="utf-8"?>
<!-- Generator: Adobe Illustrator 28.0.0, SVG Export Plug-In . SVG Version: 6.00 Build 0)  -->
<svg version="1.1" id="Livello_1" xmlns="http://www.w3.org/2000/svg" xmlns:xlink="http://www.w3.org/1999/xlink" x="0px" y="0px"
	 viewBox="0 0 708.7 708.7" style="enable-background:new 0 0 708.7 708.7;" xml:space="preserve">
<style type="text/css">
	.st0{fill:#1E1E1C;}
</style>
<g>
	<g id="beer_3_">
		<g id="beer_2_">
			<g>
				<g>
					<g>
						<g>
							<path class="st0" d="M-1037.1,528.6c-50.1,0-90.9-40.8-90.9-90.9c0-42.3,29-78,68.2-88.1c-5-10.2-7.6-21.5-7.6-33.2
								c0-41.8,34-75.8,75.8-75.8c17,0,33.4,5.8,46.5,15.9c29-64,93.9-106.9,165.7-106.9c71.8,0,136.7,42.8,165.7,106.9
								c13.1-10.1,29.4-15.9,46.5-15.9c41.8,0,75.8,34,75.8,75.8c0,21.9-9.5,42.7-26,57.1c-6.3,5.5-15.9,4.8-21.4-1.5
								c-5.5-6.3-4.8-15.9,1.5-21.4c9.9-8.6,15.5-21,15.5-34.2c0-25.1-20.4-45.5-45.5-45.5c-16,0-30.9,8.5-38.9,22.1
								c-3.1,5.2-9,8.1-15,7.3c-6-0.8-11-5-12.7-10.9c-18.5-64.5-78.4-109.5-145.6-109.5s-127.1,45-145.6,109.5
								c-1.7,5.8-6.6,10.1-12.7,10.9c-6,0.8-11.9-2.1-15-7.3c-8-13.6-23-22.1-38.9-22.1c-25.1,0-45.5,20.4-45.5,45.5
								c0,13.2,5.7,25.7,15.6,34.3c5.2,4.4,6.7,11.8,3.9,17.9c-2.9,6.2-9.5,9.6-16.2,8.5c-0.6-0.1-2.1-0.1-3.3-0.1
								c-33.4,0-60.6,27.2-60.6,60.6s27.2,60.6,60.6,60.6c13.3,0,25.9-4.2,36.3-12.1c6.7-5.1,16.2-3.8,21.2,2.9
								c5.1,6.7,3.8,16.2-2.9,21.2C-998.2,522.3-1017.1,528.6-1037.1,528.6z"/>
						</g>
					</g>
					<g>
						<g>
							<path class="st0" d="M-683.6,301.3c-5.7,0-11.1-3.2-13.7-8.7c-12.9-27.1-39.4-46.7-69.2-51c-8.3-1.2-14-8.9-12.8-17.2
								c1.2-8.3,8.9-14,17.2-12.8c40.3,5.9,74.8,31.3,92.2,68c3.6,7.6,0.4,16.6-7.2,20.2C-679.2,300.8-681.4,301.3-683.6,301.3z"/>
						</g>
					</g>
					<g>
						<g>
							<path class="st0" d="M-900.7,558.9c-58.5,0-106.1-47.6-106.1-106.1c0-44.8,28.4-85,70.7-100c7.9-2.8,16.5,1.3,19.3,9.2
								c2.8,7.9-1.3,16.5-9.2,19.3c-30.2,10.7-50.5,39.4-50.5,71.4c0,41.8,34,75.8,75.8,75.8c24.4,0,47.4-11.8,61.4-31.7
								c2.8-3.9,7.2-6.2,12-6.4c4.7-0.2,9.3,2,12.3,5.7c8.6,10.9,21.6,17.1,35.6,17.1c25.1,0,45.5-20.4,45.5-45.5
								c0-8-2.1-15.9-6.1-22.7c-4.2-7.2-1.7-16.5,5.5-20.7c7.2-4.2,16.5-1.7,20.7,5.5c6.6,11.5,10.1,24.6,10.1,37.9
								c0,41.8-34,75.8-75.8,75.8c-17.1,0-33.3-5.6-46.4-15.8C-845.5,547.6-872.4,558.9-900.7,558.9z"/>
						</g>
					</g>
					<g>
						<g>
							<path class="st0" d="M-529.4,543.8c-54.3,0-98.5-44.2-98.5-98.5c0-8.4,6.8-15.2,15.2-15.2c8.4,0,15.2,6.8,15.2,15.2
								c0,37.6,30.6,68.2,68.2,68.2s68.2-30.6,68.2-68.2c0-37.4-29.2-67.3-66.5-68c-8.4-0.2-15-7.1-14.8-15.5
								c0.2-8.4,7-14.9,15.5-14.8c54,1.1,96.2,44.3,96.2,98.3C-430.9,499.6-475.1,543.8-529.4,543.8z"/>
						</g>
					</g>
				</g>
			</g>
		</g>
	</g>
	<g>
		<path class="st0" d="M-672.8,491.9c-1.7,0-3.3-0.1-5-0.2c-22.4-1.7-42.6-14.9-60.1-39.1c-4.9-6.8-3.4-16.3,3.4-21.2
			c6.8-4.9,16.3-3.4,21.2,3.4c12,16.6,24.8,25.6,37.9,26.6c22.8,1.8,44.6-20.2,51.7-27.4l1.1-1.1c5.9-5.9,15.5-5.9,21.4,0
			c5.9,5.9,5.9,15.5,0,21.4l-1,1C-611.5,464.6-638.4,491.9-672.8,491.9z"/>
	</g>
</g>
<g>
	<g>
		<g>
			<path class="st0" d="M-613.6,1282L-613.6,1282l-339.7,0c-2.4,0-4.8-0.6-6.9-1.9c-2-1.2-48.4-28.8-48.4-80
				c0-35.2,14.1-95.1,108.7-100c6.4-0.3,13.6-0.6,21.5-1c67-2.9,224-9.6,233.1-66.4c0.7-4.2,3.3-7.9,7-9.9c3.8-2,8.2-2.1,12.1-0.4
				c3.1,1.4,75.6,35.8,75.6,129.1c0,92.1-53.6,126.8-55.9,128.3C-608.5,1281.3-611,1282-613.6,1282z M-949.2,1254.7l331.1,0
				c9.7-7.7,40.3-37.5,40.3-103.1c0-53.6-29-83.2-46.6-96.2c-32,61.5-168.5,67.3-252.8,70.9c-7.8,0.3-14.9,0.6-21.3,1
				c-55.7,2.9-82.8,26.7-82.8,72.8C-981.2,1229.5-957.5,1248.8-949.2,1254.7z"/>
		</g>
	</g>
	<g>
		<g>
			<path class="st0" d="M-946.2,1131.2c-3.3-2.5-20-17.4-20-60.6c0-50.9,65.9-94.6,153.2-101.5c81.9-6.5,99.7-57.5,99.7-69.8
				c0-4.5,2.2-8.6,5.8-11.2c3.7-2.5,8.3-3.1,12.5-1.6c3.1,1.2,76.9,29.7,76.9,148.4h-27.3c0-68.8-27.5-100.9-45-114.4
				c-11.2,30.3-45.9,69.7-120.5,75.7c-76.6,6.1-128.1,43.3-128.1,74.3c0,29.9,9.7,39.2,9.8,39.3L-946.2,1131.2z"/>
		</g>
	</g>
	<g>
		<g>
			<path class="st0" d="M-913.6,1012.3c-1-2.3-24.6-56.8,11.1-90.4c9.3-8.8,25.2-16,43.6-24.3c57.9-26.2,100.7-50.5,81.6-103.6
				c-1.5-4.3-0.8-9,1.9-12.7c2.7-3.7,7.1-5.8,11.6-5.5c0.8,0,77.7,5,77.7,123.5h-27.3c0-54.3-17.6-78-32.3-88.3
				c5.5,62.8-60.6,92.7-102,111.5c-15.5,7-30.2,13.7-36.2,19.3c-21.6,20.2-5,59.1-4.8,59.5L-913.6,1012.3z"/>
		</g>
	</g>
</g>
<g>
	<g>
		<path class="st0" d="M-914.3,1930.2c-20.5,0-41.8-1.5-63.7-4.5c-3.1-0.4-6.2-0.8-9.5-1.2c-18.1-2.2-38.7-4.7-54.8-15.1
			c-8.9-5.8-13.5-13.6-12.7-21.7c0.6-6,4.1-11.5,10.5-16.4c11.1-8.4,25.7-13.4,44.7-15.2c3.8-0.4,7-1.2,9-2c-1.1-1-2.9-2-4.3-2.7
			c-18-8.6-37.5-7.9-58.1-7c-5.1,0.2-10.5,0.4-15.8,0.5c-35.1,0.4-62.9-2.4-87.5-8.8c-3.7-1-22.3-6.4-25.6-18.6
			c-0.9-3.2-1.4-9.4,5-15.7c7.8-7.8,19.6-9,29.1-10c2-0.2,4-0.4,5.8-0.7c16.2-2.5,33.6-5,53.2-7.8c2.3-0.3,4.7-0.6,7.1-0.9
			c9.1-1.2,18.6-2.3,26.4-5.4c0.2-0.1,0.5-0.2,0.7-0.3c-2.5-2.4-8.6-6.7-23.7-13.9c-0.9-0.4-1.7-0.8-2.3-1.1
			c-14.8-7.2-29.6-16.3-27-28.6c3.2-15,30-18.9,75.1-20.4c4.8-0.2,8.7,3.5,8.9,8.3c0.2,4.7-3.5,8.7-8.3,8.9
			c-38.4,1.3-52.2,4.8-57.1,6.9c2.2,1.9,6.7,5.1,15.9,9.6l2.1,1c21.8,10.3,35.2,19.1,34.9,30.8c-0.2,4.5-2.5,10.7-12.9,14.8
			c-9.8,3.9-20.4,5.2-30.6,6.5c-2.3,0.3-4.6,0.6-6.8,0.9c-19.5,2.8-36.9,5.3-53,7.7c-2,0.3-4.2,0.5-6.5,0.8
			c-6.6,0.7-14.8,1.6-18.5,4.9c2.2,1.8,7.4,4.5,12.6,5.8c23.1,6,49.5,8.6,83,8.2c5.1-0.1,10.3-0.3,15.3-0.5
			c21.8-0.9,44.3-1.7,66.2,8.7c3.5,1.7,7.5,3.9,10.7,7.8c6,7.4,4.8,13.6,3.5,16.7c-4,9.5-17.1,12.1-24.6,12.8
			c-15.7,1.5-27.5,5.3-35.9,11.8c-3.6,2.7-3.8,4.2-3.8,4.4c-0.1,0.9,1.4,3.3,5,5.6c12.8,8.3,30.5,10.5,47.5,12.5
			c3.3,0.4,6.6,0.8,9.7,1.2c24.2,3.3,47.8,4.7,70.1,4.2c29-0.6,59.2-2.2,82.3-13.4c6-2.9,11.9-7.8,11.3-12.2
			c-0.4-2.9-12.1-8.8-17.1-11.3c-12.5-6.2-28-14-23.2-28.5c3.6-10.7,17.3-12.9,25.6-14.2l1.6-0.3c17-3,34.7-3.3,51.3-3.3
			c53.9,0,85.1-10.3,93.2-16.3c-2.7-1.3-8.4-3.4-19.9-4.8c-80.1-10.3-102.4-17.2-103.5-31.9c-0.9-11.9,12.7-20,52-31.1
			c6.9-1.9,11.5-3.6,14.7-4.9c-7.2-2.2-21.9-5.4-51.3-8c-4.7-0.4-8.2-4.6-7.8-9.3c0.4-4.7,4.6-8.2,9.3-7.8
			c65.2,5.7,71.5,14.7,72.3,23.4c1.1,11.2-12.2,17.3-32.4,23c-22.6,6.4-32.5,10.8-36.9,13.3c10.2,4.7,39,10.1,85.9,16.1
			c9.3,1.2,37.6,4.8,36.4,22.2c-0.7,10.2-12.4,18.5-34.9,24.5c-20.5,5.5-47.8,8.5-77,8.5c-16.5,0-32.7,0.2-48.3,3l-1.9,0.3
			c-5.3,0.9-9,1.8-11.1,2.7c2.7,2.4,9.4,5.7,13.6,7.8c11.7,5.8,24.9,12.5,26.4,24.5c1.4,11.6-6.4,22.7-20.9,29.7
			c-26.2,12.7-58.5,14.4-89.3,15.1C-908.2,1930.2-911.2,1930.2-914.3,1930.2z M-1052.9,1775.5L-1052.9,1775.5L-1052.9,1775.5z
			 M-730.8,1743.6L-730.8,1743.6L-730.8,1743.6z"/>
	</g>
	<g>
		<g>
			<path class="st0" d="M-907.2,1800.1c-52.3,0-94.9-42.6-94.9-94.9c0-5.5,0.5-11.4,1.6-17.6c0.8-4.7,5.2-7.8,9.9-7
				c4.7,0.8,7.8,5.3,7,9.9c-0.9,5.2-1.4,10.1-1.4,14.6c0,42.9,34.9,77.8,77.8,77.8c42.9,0,77.8-34.9,77.8-77.8
				c0-48-58.1-128.4-77.9-154.4c-3.3,4.1-7.5,9.6-12.3,16.1c-2.8,3.8-8.2,4.6-12,1.8c-3.8-2.8-4.6-8.2-1.8-12
				c11.3-15.3,19.4-24.9,19.7-25.3c1.6-2,4-3,6.6-3c2.6,0,5,1.2,6.6,3.2c3.6,4.5,88.3,109.9,88.3,173.5
				C-812.3,1757.5-854.8,1800.1-907.2,1800.1z"/>
		</g>
		<g>
			<path class="st0" d="M-887.5,1762.9c-3.6,0-7-2.3-8.2-6c-1.4-4.5,1-9.3,5.6-10.8c16.7-5.4,28-20.8,28-38.4c0-4.7,3.8-8.6,8.6-8.6
				s8.6,3.8,8.6,8.6c0,25.1-16,47.1-39.9,54.7C-885.8,1762.8-886.6,1762.9-887.5,1762.9z"/>
		</g>
	</g>
	<g>
		<g>
			<path class="st0" d="M-1013.3,1672.1c-40.4,0-73.3-32.9-73.3-73.3c0-51.9,64-128.3,66.7-131.5c1.6-2,4-3,6.6-3
				c2.6,0,5,1.2,6.6,3.2c2.7,3.4,66.6,82.9,66.6,131.4C-940,1639.3-972.9,1672.1-1013.3,1672.1z M-1013.4,1486.7
				c-16.1,20.7-56,75.6-56,112.2c0,30.9,25.2,56.1,56.1,56.1c30.9,0,56.1-25.2,56.1-56.1C-957.1,1567.5-993.2,1513.4-1013.4,1486.7z
				"/>
		</g>
	</g>
	<g>
		<g>
			<path class="st0" d="M-786.3,1577.7c-30.5,0-55.3-24.8-55.3-55.3c0-38.4,46.8-94.2,48.7-96.5c1.6-2,4-3.1,6.6-3
				c2.6,0,5,1.2,6.6,3.2c0.5,0.6,12.1,15.1,24,33.9c16.4,26.1,24.7,47.1,24.7,62.5C-731,1552.9-755.8,1577.7-786.3,1577.7z
				 M-786.4,1445.3c-14.6,19.1-38,54.4-38,77.1c0,21,17.1,38.2,38.2,38.2c21,0,38.2-17.1,38.2-38.2
				C-748.1,1501.3-771.8,1465-786.4,1445.3z"/>
		</g>
	</g>
</g>
<g>
	<g>
		<g>
			<g>
				<path class="st0" d="M-1042.6,2382.9c-1.7,0-3.4-0.5-4.8-1.5c-2.2-1.6-3.5-4.1-3.5-6.8v-184.2c0-55.3,45-100.3,100.3-100.3
					c26.8,0,52,10.4,70.9,29.4c18.9,18.9,29.4,44.1,29.4,70.9v24.7c0,3.1-1.8,6-4.6,7.4c-3.2,1.6-6.4,3.6-9.7,5.9
					c-20.9,14.9-33.7,38.1-35,63.6c-1,19.1,4.3,37.5,15.4,53.1l13.8,19.4c1.8,2.5,2,5.8,0.6,8.6c-1.4,2.8-4.3,4.5-7.4,4.5H-1012
					c-9.5,0-18.9,1.6-27.8,4.8C-1040.7,2382.8-1041.6,2382.9-1042.6,2382.9z M-950.6,2106.8c-46.1,0-83.7,37.5-83.7,83.7v173.1
					c7.3-1.7,14.7-2.5,22.2-2.5h118.9l-4.5-6.3c-13.3-18.7-19.7-40.6-18.4-63.6c1.6-30.5,16.8-58.3,41.9-76.2
					c2.4-1.7,4.9-3.3,7.3-4.7v-19.8c0-22.3-8.7-43.4-24.5-59.2C-907.2,2115.5-928.2,2106.8-950.6,2106.8z M-858.6,2215.2h0.1H-858.6
					z"/>
			</g>
		</g>
	</g>
	<g>
		<g>
			<g>
				<path class="st0" d="M-895.4,2198.8c-4.6,0-8.3-3.7-8.3-8.3c0-25.9-21-46.9-46.9-46.9c-4.6,0-8.3-3.7-8.3-8.3
					c0-4.6,3.7-8.3,8.3-8.3c35,0,63.5,28.5,63.5,63.5C-887.1,2195.1-890.8,2198.8-895.4,2198.8z"/>
			</g>
		</g>
	</g>
	<g>
		<g>
			<g>
				<path class="st0" d="M-907.8,2300h-134.8c-4.6,0-8.3-3.7-8.3-8.3c0-4.6,3.7-8.3,8.3-8.3h134.8c4.6,0,8.3,3.7,8.3,8.3
					C-899.5,2296.2-903.2,2300-907.8,2300z"/>
			</g>
		</g>
	</g>
	<g>
		<g>
			<g>
				<path class="st0" d="M-1067.2,2469.7c-4.6,0-8.3-3.7-8.3-8.3c0-35,28.5-63.5,63.5-63.5c4.6,0,8.3,3.7,8.3,8.3
					c0,4.6-3.7,8.3-8.3,8.3c-25.9,0-46.9,21-46.9,46.9C-1058.9,2466-1062.6,2469.7-1067.2,2469.7z"/>
			</g>
		</g>
	</g>
	<g>
		<g>
			<g>
				<path class="st0" d="M-809.6,2561.7H-1012c-55.3,0-100.3-45-100.3-100.3c0-55.3,45-100.3,100.3-100.3h202.4
					c55.3,0,100.3,45,100.3,100.3S-754.3,2561.7-809.6,2561.7z M-1012,2377.7c-46.1,0-83.7,37.5-83.7,83.7
					c0,46.1,37.5,83.7,83.7,83.7h202.4c46.1,0,83.7-37.5,83.7-83.7v0c0-46.1-37.5-83.7-83.7-83.7H-1012z"/>
			</g>
		</g>
	</g>
	<g>
		<g>
			<g>
				<path class="st0" d="M-910.8,2561.7c-4.6,0-8.3-3.7-8.3-8.3v-184c0-4.6,3.7-8.3,8.3-8.3s8.3,3.7,8.3,8.3v184
					C-902.5,2557.9-906.2,2561.7-910.8,2561.7z"/>
			</g>
		</g>
	</g>
	<g>
		<g>
			<g>
				<g>
					<path class="st0" d="M-698.5,2561.8c-21.4,0-42.7-6.9-60.7-20.6c-2.1-1.6-3.3-4-3.3-6.6c0-2.6,1.2-5,3.3-6.6
						c21.1-15.9,33.1-40.2,33.1-66.6c0-29.6-15.1-56.4-40.5-71.6c-12.9-7.9-27.8-12.1-43.2-12.1h-67.4c-2.7,0-5.2-1.3-6.8-3.5
						l-13.8-19.4c-15.5-21.8-21.7-48.4-17.2-74.8c4.4-26.4,18.9-49.5,40.7-65c4-2.8,7.9-5.2,11.9-7.2c14-7.5,30.1-11.5,46.4-11.5
						c32.4,0,62.9,15.7,81.6,42l117.5,164.7c32.1,45,21.6,107.7-23.4,139.9c0,0,0,0,0,0C-657.7,2555.5-678.1,2561.8-698.5,2561.8z
						 M-740.4,2533.8c28.2,16.4,63.4,15,90.5-4.3c37.5-26.8,46.3-79.2,19.5-116.7L-747.8,2248c-15.6-22-41.1-35.1-68.1-35.1
						c-13.8,0-26.9,3.2-38.8,9.6c-3.3,1.7-6.6,3.7-9.9,6c-18.2,12.9-30.2,32.2-33.9,54.2c-3.7,22.1,1.4,44.2,14.4,62.5l11.3,15.9
						h63.1c18.4,0,36.4,5,51.8,14.5c30.3,18.2,48.5,50.3,48.5,85.8C-709.4,2489.2-720.5,2515-740.4,2533.8z M-645,2536.3h0.1H-645z"
						/>
				</g>
			</g>
		</g>
		<g>
			<g>
				<g>
					<path class="st0" d="M-771,2272.9c-2.6,0-5.1-1.2-6.8-3.5c-15-21-44.4-26-65.4-11c-3.7,2.7-8.9,1.8-11.6-1.9
						c-2.7-3.7-1.8-8.9,1.9-11.6c28.5-20.3,68.2-13.7,88.5,14.8c2.7,3.7,1.8,8.9-1.9,11.6C-767.7,2272.4-769.3,2272.9-771,2272.9z"
						/>
				</g>
			</g>
		</g>
		<g>
			<g>
				<g>
					<path class="st0" d="M-762.2,2390.9c-2.6,0-5.1-1.2-6.8-3.5c-2.7-3.7-1.8-8.9,1.9-11.6l79.9-57c3.7-2.7,8.9-1.8,11.6,1.9
						c2.7,3.7,1.8,8.9-1.9,11.6l-79.9,57C-758.8,2390.4-760.5,2390.9-762.2,2390.9z"/>
				</g>
			</g>
		</g>
	</g>
</g>
<g>
	<g>
		<path class="st0" d="M-1062.3,3139.9c-83.4,0-155.9-26.4-192.5-42.6c-7.6-3.4-13.4-9.5-16.3-17.2c-2.8-7.6-2.5-15.8,0.9-23.1
			c12-25.6,42.7-73.2,113.3-103.9c60.1-26.1,83-72.4,99.7-106.3c11-22.2,19.7-39.8,35.3-45c40.8-13.8,102.7,62.8,143,139.7
			c20.6,39.4,50.7,60.1,77.3,78.4c11.8,8.1,22.9,15.8,31.7,24.2c8.1,7.7,11.2,18.8,8.3,29.7c-2.9,10.8-11.4,19.1-22.3,21.7
			c-51.9,12.5-181.9,41.8-267.8,44.1C-1055.2,3139.9-1058.8,3139.9-1062.3,3139.9z M-1011.5,2815.6c-1.9,0-3.8,0.3-5.4,0.8
			c-9.5,3.2-17,18.2-26.4,37.2c-17.8,36-42.2,85.3-107.4,113.6c-65.9,28.6-94.4,72.6-105.5,96.2c-1.6,3.5-1.8,7.5-0.4,11.1
			c1.4,3.8,4.3,6.9,8.1,8.5c37,16.3,111.7,43.5,196.5,41.1c84.5-2.3,213.2-31.3,264.6-43.7c5.4-1.3,9.5-5.3,10.9-10.7
			c1.4-5.3-0.1-10.7-4-14.5c-8-7.6-18.6-14.9-29.8-22.7c-26.6-18.4-59.8-41.2-82.2-84C-932.5,2872.4-983.9,2815.6-1011.5,2815.6z"/>
	</g>
	<g>
		<path class="st0" d="M-780.9,3052.7c-1.8,0-3.6-0.6-5-1.8c-7.1-6-15.6-11.8-24.6-18.1c-26.6-18.4-59.7-41.3-82.1-84.1
			c-39.4-75.2-88.8-131-117.7-132.8c-2.6-0.2-4.9-1.6-6.2-3.9c-1.3-2.3-1.4-5-0.2-7.3c1.8-3.6,3.6-7.1,5.2-10.5
			c11-22.2,19.7-39.8,35.3-45c40.7-13.8,102.7,62.8,143,139.7c20.6,39.4,50.7,60.1,77.3,78.4c11.8,8.1,22.9,15.8,31.7,24.2
			c8.1,7.7,11.2,18.9,8.3,29.7c-2.9,10.9-11.3,19.1-22.3,21.7c-11.2,2.7-25.3,6-41.2,9.5C-779.8,3052.6-780.4,3052.7-780.9,3052.7z
			 M-998.3,2802.7c38.8,12.6,86.8,76.5,119.5,138.9c20.7,39.5,50.7,60.2,77.2,78.6c8.1,5.6,15.8,11,22.7,16.5
			c14.3-3.2,27-6.2,37.3-8.7c5.4-1.3,9.5-5.3,10.9-10.7c1.4-5.3-0.1-10.7-4-14.5c-8-7.6-18.6-14.9-29.8-22.7
			c-26.6-18.4-59.8-41.2-82.2-84c-42.8-81.6-98.5-140.8-124.4-132.2c-9.5,3.2-17,18.2-26.4,37.3
			C-997.8,2801.6-998.1,2802.1-998.3,2802.7z"/>
	</g>
	<g>
		<path class="st0" d="M-1261.8,3065.3c-0.6,0-1.2-0.1-1.7-0.2c-9.2-2.1-17.8-4.1-24.9-5.8c-11-2.6-19.3-10.8-22.3-21.7
			c-2.9-10.9,0.2-22,8.3-29.7c8.1-7.7,12.7-17.7,18.1-29.2c11.7-25.1,26.3-56.2,83.6-85.5c39.6-20.2,66.9-55.4,88.9-83.6
			c22.3-28.7,39.9-51.3,61.4-44.1c15.6,5.2,24.5,23.2,33.9,42.3c1.8,3.6,0.5,8-3,10.1c-8.3,4.9-15.5,19.3-23.7,36
			c-17.8,35.9-42.2,85.1-107.5,113.4c-61.1,26.5-90.4,65.6-104.2,93.7C-1256.2,3063.7-1258.9,3065.3-1261.8,3065.3z M-1058.2,2779.7
			c-10.8,0-25.1,18.4-41.4,39.4c-22.9,29.5-51.4,66.1-94,87.9c-52.6,26.9-65.4,54.2-76.7,78.3c-5.8,12.4-11.3,24.1-21.4,33.8
			c-3.9,3.8-5.5,9.2-4,14.5c1.4,5.4,5.5,9.4,10.9,10.7c5.5,1.3,11.9,2.8,18.8,4.4c15.9-29.9,47.5-68.9,109.1-95.6
			c60.1-26.1,83-72.3,99.8-106.1c8.1-16.3,14.8-29.8,23.9-38.1c-7.8-15.3-14.3-26.1-22.1-28.8
			C-1056.3,2779.9-1057.2,2779.7-1058.2,2779.7z"/>
	</g>
	<g>
		<path class="st0" d="M-1290.2,3013.3c-3.7,0-6.9-2.6-7.6-6.4c-0.7-4.2,2.1-8.2,6.3-8.9c0.2,0,23.8-4.4,37.2-21.2
			c2.7-3.3,7.5-3.9,10.9-1.2c3.3,2.7,3.9,7.5,1.2,10.9c-17.1,21.3-45.3,26.5-46.5,26.7C-1289.3,3013.3-1289.7,3013.3-1290.2,3013.3z
			"/>
	</g>
	<g>
		<path class="st0" d="M-1037.8,2938.2c-31.8,0-53.8-21.6-54.7-22.5c-3-3-3-7.9,0-10.9c3-3,7.9-3,10.9,0c0.3,0.3,18.6,18,43.8,18
			c4.3,0,7.7,3.5,7.7,7.7C-1030,2934.7-1033.5,2938.2-1037.8,2938.2z"/>
	</g>
	<g>
		<path class="st0" d="M-840.7,2938.2c-3.3,0-6.3-2.1-7.4-5.4c-1.3-4.1,0.9-8.4,5-9.7l21.6-6.9c4-1.3,8.4,0.9,9.7,5
			c1.3,4.1-0.9,8.4-5,9.7l-21.6,6.9C-839.1,2938.1-839.9,2938.2-840.7,2938.2z"/>
	</g>
	<g>
		<path class="st0" d="M-1006.5,2882.8c0,5.7-4.6,10.3-10.3,10.3c-5.7,0-10.3-4.6-10.3-10.3c0-5.7,4.6-10.3,10.3-10.3
			C-1011.1,2872.5-1006.5,2877.1-1006.5,2882.8z"/>
	</g>
	<g>
		<path class="st0" d="M-1062.4,3049.4c0,5.7-4.6,10.3-10.3,10.3c-5.7,0-10.3-4.6-10.3-10.3c0-5.7,4.6-10.3,10.3-10.3
			C-1067,3039.1-1062.4,3043.7-1062.4,3049.4z"/>
	</g>
	<g>
		<path class="st0" d="M-910.9,3012.8c0,5.7-4.6,10.3-10.3,10.3c-5.7,0-10.3-4.6-10.3-10.3c0-5.7,4.6-10.3,10.3-10.3
			C-915.6,3002.5-910.9,3007.1-910.9,3012.8z"/>
	</g>
	<g>
		<circle class="st0" cx="-945.3" cy="2940.7" r="13.7"/>
	</g>
	<g>
		<path class="st0" d="M-901.3,2833c0,7.6-6.2,13.7-13.7,13.7s-13.7-6.2-13.7-13.7s6.2-13.7,13.7-13.7S-901.3,2825.4-901.3,2833z"/>
	</g>
	<g>
		<path class="st0" d="M-844,3052.9c0,7.6-6.2,13.7-13.7,13.7s-13.7-6.2-13.7-13.7c0-7.6,6.2-13.7,13.7-13.7S-844,3045.3-844,3052.9
			z"/>
	</g>
	<g>
		<path class="st0" d="M-1039.7,2967.4c0,4.5-3.7,8.2-8.2,8.2c-4.5,0-8.2-3.7-8.2-8.2s3.7-8.2,8.2-8.2
			C-1043.4,2959.2-1039.7,2962.9-1039.7,2967.4z"/>
	</g>
	<g>
		<circle class="st0" cx="-959" cy="2795.2" r="8.2"/>
	</g>
	<g>
		<circle class="st0" cx="-1192.1" cy="2940.7" r="8.2"/>
	</g>
	<g>
		<circle class="st0" cx="-974.9" cy="3074" r="8.2"/>
	</g>
	<g>
		<circle class="st0" cx="-871.5" cy="2908.3" r="8.2"/>
	</g>
	<g>
		<path class="st0" d="M-1163.7,3057.6c0,4.5-3.7,8.2-8.2,8.2s-8.2-3.7-8.2-8.2c0-4.5,3.7-8.2,8.2-8.2S-1163.7,3053.1-1163.7,3057.6
			z"/>
	</g>
	<g>
		<circle class="st0" cx="-1072.7" cy="2824.8" r="8.2"/>
	</g>
	<g>
		<circle class="st0" cx="-1120.5" cy="2986.4" r="12.5"/>
	</g>
	<g>
		<path class="st0" d="M-773.7,3009.4c-2.1,6.6-9.2,10.2-15.8,8.1c-6.6-2.1-10.2-9.2-8.1-15.8c2.1-6.6,9.2-10.2,15.8-8.1
			C-775.2,2995.8-771.6,3002.8-773.7,3009.4z"/>
	</g>
	<g>
		<path class="st0" d="M-1004.8,3016.6c-2.1,6.6-9.2,10.2-15.8,8.1c-6.6-2.1-10.2-9.2-8.1-15.8c2.1-6.6,9.2-10.2,15.8-8.1
			C-1006.4,3003-1002.7,3010.1-1004.8,3016.6z"/>
	</g>
	<g>
		<circle class="st0" cx="-1120.5" cy="2889.8" r="12.5"/>
	</g>
</g>
<g>
	<g>
		<g>
			<path class="st0" d="M-1125.4,3780.3c-30.5,0-61-11.6-84.3-34.8c-46.5-46.5-46.5-122.1,0-168.5c46.5-46.5,122.1-46.5,168.5,0
				c46.5,46.5,46.5,122.1,0,168.5C-1064.3,3768.7-1094.9,3780.3-1125.4,3780.3z M-1125.4,3562.5c-25.3,0-50.6,9.6-69.8,28.9
				c-38.5,38.5-38.5,101.1,0,139.6c38.5,38.5,101.1,38.5,139.6,0c38.5-38.5,38.5-101.1,0-139.6
				C-1074.8,3572.2-1100.1,3562.5-1125.4,3562.5z"/>
		</g>
	</g>
	<g>
		<g>
			<path class="st0" d="M-934.7,3589.7c-30.5,0-61-11.6-84.3-34.8c-46.5-46.5-46.5-122.1,0-168.5c46.5-46.5,122.1-46.5,168.5,0
				c46.5,46.5,46.5,122.1,0,168.5C-873.7,3578.1-904.2,3589.7-934.7,3589.7z M-934.7,3371.9c-25.3,0-50.6,9.6-69.8,28.9
				c-38.5,38.5-38.5,101.1,0,139.6c38.5,38.5,101.1,38.5,139.6,0c38.5-38.5,38.5-101.1,0-139.6
				C-884.1,3381.5-909.4,3371.9-934.7,3371.9z"/>
		</g>
	</g>
	<g>
		<g>
			<path class="st0" d="M-1202.4,3748.5c-2.6,0-5.2-1-7.2-3c-4-4-4-10.5,0-14.4l154.1-154.1c4-4,10.5-4,14.4,0c4,4,4,10.5,0,14.4
				l-154.1,154.1C-1197.2,3747.5-1199.8,3748.5-1202.4,3748.5z"/>
		</g>
	</g>
	<g>
		<g>
			<path class="st0" d="M-857.7,3557.8c-2.6,0-5.2-1-7.2-3l-154.1-154.1c-4-4-4-10.5,0-14.4c4-4,10.5-4,14.4,0l154.1,154.1
				c4,4,4,10.5,0,14.4C-852.4,3556.8-855,3557.8-857.7,3557.8z"/>
		</g>
	</g>
</g>
<g>
	<path class="st0" d="M647.2,438.6l-1.9-0.1c-2.3-0.2-5-0.3-7.7-0.3c-2.6,0-4.9,0.2-7,0.5c-26.2,4.3-45.3,12.8-56.7,19.1
		c-11.2,6.2-17.1,11-20.2,14.7c-1.5-0.2-3-0.5-4.6-0.7l-2.1-1.9c-1.9-1.7-8.8-9.5-14.4-15.8c-18.7-21.1-22.3-24.8-25.9-26.3
		c-2.3-1-4.9-1.5-7.6-1.5c-6.5,0-12.8,2.9-17.9,5.3c-1.7,0.8-3.3,1.5-4.4,1.9c-4.8,1.7-21.5,10.4-30.6,17.8c-2.3-0.5-4.6-1-6.9-1.5
		l-7.4-3.1c-1.9-2-6.2-6.6-10.3-11.2l-0.9-1c-15.4-16.9-28.8-31.4-35.6-36.9c-3.9-3.1-8.6-6.3-14.8-6.3c-3.4,0-6.7,0.9-10.4,2.8
		c-3.7,2-7.2,4.3-10.5,6.5c-2.6,1.7-5,3.3-7.4,4.7c-2,1.2-4,2.4-6,3.7c-2.9,1.8-5.6,3.6-8.2,4.8c-0.7,0.3-1.5,0.6-2.5,1l-0.4,0.2
		c-5,1.9-9.5,3.9-13,6.4c-5.1-12.5-15.2-38.2-20.3-55.4c-0.8-2.7-2.7-4.9-5.2-6.1c-2.5-1.2-5.5-1.3-8-0.2
		c-15.5,6.3-32.8,19.6-43.9,33.9c-2.7,3.5-5.8,6-9.4,9c-2.8,2.3-5.7,4.7-8.8,7.9c-4.4,4.5-10.6,9.5-13.2,10.6
		c-1.2,0.5-2.3,1.3-3.1,2.2c-82,12-133.3,39.1-151.1,49.9c-1.3,1.5-2.4,3.2-3.2,5c-2,4.4-3,9.3-3.5,14c0,0.4-0.1,0.7-0.3,0.9
		c0.1,0.1,0.2,0.3,0.4,0.4c-1.5,0.5-2.9,1.3-4,2.5c-1.9,2-2.8,4.6-2.7,7.2c-1.3,10.7,7.2,23.1,15.7,26.6c0.9,0.3,1.6,0.7,2.6,1.2
		c1.2,0.6,2.6,1.3,4.5,2.1c8.9,3.5,18.3,5.6,30.6,6.9c1.7,0.2,3.3,0.3,5,0.4c2.1,0.1,4.2,0.2,5.8,0.6c0.4,0.1,1,0.3,1.7,0.5
		c1.7,0.6,4.3,1.4,7.4,1.5c6.9,2.4,13.9,4.7,21,6.8c0.4-0.1,0.9-0.2,1.3-0.1c3.8,1.3,7.8,2.1,11.5,3.6c13,3.4,26.3,6.4,40,8.9
		c1,8.6,5.4,28.8,25.8,37.6c1.2,0.5,2.5,0.8,3.9,0.8c1.7,0,3.3-0.4,4.7-1.2c2.7-1.5,4.5-4,5-7c1.5-9.1,2.4-20.2,2.8-25.1
		c2.9,0.1,5.9,0.1,9,0.1c26.8,0,58.5-3.2,91-8.1c5.8,4.6,25.1,18.6,51.1,24.4l3.1,0.7l2.9-1.3c6.7-2.9,13.4-8.5,20.5-14.4
		c2-1.7,4.1-3.4,6.2-5.1c5.2-4.2,10.6-9.5,14.9-13.7c1.8-1.7,4-3.9,5.5-5.3c0.1-0.4,0.3-0.7,0.5-0.9c1.1-1,2.5-1.7,3.8-2.4
		c1.1-0.6,2.2-1.3,3.3-2c0,0,0.1,0,0.1-0.1c0,0,0,0,0,0c0,0,0,0,0,0c0.2-0.3,0.6-0.5,0.9-0.6l-0.1-0.3c6.3-1.3,12.4-2.7,18.4-4
		c4.4,5.1,15.8,15.5,38.4,20.6l3.1,0.7l2.9-1.3c14.3-6.1,38.6-25.1,46.8-38.1c2.6-0.4,5.1-0.8,7.5-1.2l2.9,1c0.6,0.4,1.6,1,2.5,1.6
		c11.7,7.5,42.8,27.4,77.8,31.4c0.2,0,0.6,0.2,0.9,0.3c1.3,0.5,3.6,1.4,6.6,1.4c2.5,0,4.9-0.7,7.2-2c7.8-4.6,8.4-13,8.6-17l0.1-1.1
		c0.8-10.4,1-72.8,1-73.4c0-0.6,0-1.2,0-1.8C662.4,451,662.6,439.5,647.2,438.6z M346.8,425.5c1.8-1.1,3.4-2.2,5.1-3.1
		c3.1-1.7,5.9-3.6,8.6-5.5c3-2,5.9-3.9,8.8-5.5c0.4-0.2,0.8-0.4,1-0.5c0.4,0.2,1.1,0.7,2.5,1.8c5.3,4.3,17.7,17.7,28,28.9
		c-20.3-4-41.5-7.9-62.4-11.2C341.4,428.9,344.1,427.2,346.8,425.5z M237.9,417.5c4.1-3.4,8.2-6.8,12.3-12
		c6.6-8.5,16.3-16.9,26.1-22.8c4.8,14.4,11.2,30.7,15.5,41.5c-20.1-2.2-39.3-3.6-56.5-3.6c-0.4,0-0.7,0-1.1,0
		C235.4,419.5,236.6,418.5,237.9,417.5z M204.9,569.7c-0.7-1.5-1.2-3-1.6-4.4c0,0,0,0,0.1,0c0.6,0.1,1.2,0.1,1.8,0.2
		C205.1,566.6,205,568,204.9,569.7z M396.4,547.9c-2.2,1.8-4.4,3.6-6.5,5.4c-4.8,4-9.3,7.7-13,10c-8.6-2.3-16.4-5.6-22.7-8.9
		c14.9-2.6,29.8-5.3,44.3-8.2C397.7,546.7,397,547.4,396.4,547.9z M337.3,537.1c-0.1,0-0.2,0.1-0.3,0.1c-3.4,0.9-6.9,1.6-10.5,1.6
		c-0.1,0-0.2,0-0.3-0.1l-0.1,0.1c-33.1,5-65.2,8.5-91.9,8.5c-10.6,0-20.1-0.6-28.2-1.7c-12.4-1.7-24.4-3.8-36.3-6.4
		c12.3-8.9,20.6-21.1,25.9-32.9c1.8,3,5,4.9,8.6,4.9c1.7,0,3.4-0.5,5-1.3c0.2-0.1,22.5-12.8,55.7-12.8c7.8,0,15.5,0.7,23.2,2.1
		c-32.6,27.2-59.6,15.4-60.1,15.1l-3.3-1.5l-19.7,5.6l5.4,19l13.1-3.7c4.5,1.4,11.5,3.1,20.6,3.1c17.2,0,43.2-6.1,69.8-35l6.7-7.3
		l-3.2-2.9c-6.2-4.2-12.9-7.4-19.7-10.5c-10.9-2.5-21.9-3.8-33-3.8c-33.3,0-57.3,11.2-63.7,14.6c0.9-3.2,1.6-6.2,2.1-8.9
		c0-0.1,0-0.3,0-0.4c0.4-2.3,0.6-4.8,0.8-7.2c0.1-1.7,0.1-3.4,0.2-5.1c-0.9-0.3-1.7-0.6-2.6-0.8c-1.1-0.3-2-0.7-2.9-1.3
		c-2.4-0.9-4.7-1.8-7.1-2.6c-8.1-2.7-15.8-6.5-23.9-9.4c-1.8,5.4-4.2,10.5-6.2,15.8l4.9,2.2c2.3,1.1,4.9,1.9,7.4,2.7
		c3.1,1,8,2.6,9.6,4.1c-2.5,12-10.4,36.5-32.8,46.9c4-2.7,7.2-5.5,9.9-8.6c3.5-4,5-8.5,6.2-12.3c0.3-1,1-3.1,1.3-3.5l5.9-8
		l-15.9-11.7l-5.9,8c-2.2,3-3.3,6.3-4.2,9.3c-0.6,2-1.4,4.3-2.2,5.2c-2.1,2.4-5,4.7-9,7.1c-0.5,0.3-0.9,0.5-1.4,0.7
		c-3.6,2.4-7.9,3.8-12.2,4.6c-5,2.6-11,2.8-16.8,2.7c-4.8-0.1-9.6-0.5-14.3-1.3c-0.2,0-0.4,0-0.5,0c-0.2,0-0.5,0-0.7-0.1
		c0.1,0,0.1,0,0.1-0.1c-4.9-0.9-9.7-2.3-14.2-4.3c-7.1-3.1-13.6-8.1-16.4-15.6c-1.9-4.9-1.9-11,3.5-12.7c0.4-0.8,1.1-1.3,2-1.4
		c21.2-11.8,68.9-34.2,142.1-44.2c8.1-1.1,17.5-1.6,28.2-1.6c60.3,0,147.9,17.4,213.1,31.6c0.3,0,0.7-0.1,1-0.1c0.5,0,1,0.1,1.4,0.2
		c0.5,0.1,0.9,0.3,1.3,0.5c0.1,0.1,0.2,0.1,0.3,0.2c10.3,2.2,20,4.4,28.8,6.4c11.7,2.6,21.7,4.8,29.7,6.5c-2,1.7-3.4,4.3-3.5,7.2
		c-0.1,2.6,0.9,5.1,2.7,7.1c0.6,0.6,1.3,1.1,2,1.6c-8.4,1.7-19.2,4.1-32,7l-0.6,0.1C441.9,517,388.9,528.8,337.3,537.1z
		 M495.4,534.6c-6.3-1.7-11.1-3.8-14.9-5.9c1.2-0.3,2.5-0.6,3.7-0.8c12-2.7,22.6-5,30.8-6.7C508.5,526.5,501.2,531.6,495.4,534.6z
		 M485.7,459.8c-3.9-0.9-8-1.8-12.2-2.7c4.6-2.6,8.6-4.6,10-5.1c2-0.7,4.1-1.7,6.3-2.7c1.9-0.9,6.6-3.1,8.8-3.4
		c3.8,3.6,13.5,14.6,19.1,20.9C509.2,465,498.2,462.6,485.7,459.8z M556.3,494.6l-1-0.3l-0.2,0.5c-5.1,0.9-10.5,1.7-16.2,2.5
		c-0.1,0.1-0.3,0.2-0.4,0.3c-0.3,0.1-0.6,0.2-0.9,0.2h-2.7c0,0-0.1,0-0.1,0l-0.1,0.1c-2.4,0.3-4.9,0.6-7.4,1c-0.5,0.1-1,0.1-1.6,0.2
		c1.2-1.6,1.9-3.5,1.9-5.6c0.1-1.8-0.4-3.4-1.2-4.9c0.8,0.1,1.6,0.2,2.3,0.3c4.1,0.5,8,1,11.7,1.5l0.8,0.7l0.5-0.5
		c7.1,1,13.6,2,19.7,3.1C559.7,494,558,494.3,556.3,494.6z M641.6,529l0,0.5c-0.4-0.1-0.8-0.1-1.2-0.2
		c-21.7-2.5-42.2-12.3-56.1-20.2c5.9-1.4,11.5-2.9,17.1-4.6c2.5-0.8,4.6-2.4,5.9-4.8c0.1-0.2,0.2-0.5,0.3-0.7c0.8-1,1.5-2.2,1.9-3.5
		c0.8-2.5,0.5-5.2-0.8-7.5c-1.3-2.3-3.3-4-5.9-4.8c-7.5-2.3-15-4.2-23.1-6c10.1-6.1,28.1-14.8,54.1-19.1c2-0.3,5.3-0.3,8.6-0.1
		C642.5,476.8,642.1,521.5,641.6,529z"/>
	<path class="st0" d="M114.1,488.5c1.6,0.9,3.3,1.4,5,1.4l0.3,0c5.1-0.2,9.3-4.4,9.5-9.5c0-0.8,0-2.7-0.2-3.5
		c-0.9-4.7-4.9-9.1-9.6-9.1h-0.5c-5,0-9.2,4.9-9.8,9.9C108.5,481.7,110.5,486.6,114.1,488.5z"/>
</g>
<g>
	<path class="st0" d="M35.5,204.9c0,0.6,0,1.1,0,1.8c0,0.6,0.2,63,1,73.4l0.1,1.1c0.3,4,0.8,12.4,8.6,17c2.3,1.3,4.7,2,7.2,2
		c2.9,0,5.3-0.9,6.6-1.4c0.3-0.1,0.7-0.3,0.9-0.3c35-4,66.1-23.9,77.8-31.4c0.9-0.6,1.9-1.2,2.5-1.6l2.9-1c2.4,0.4,4.9,0.8,7.5,1.2
		c8.2,13,32.5,32,46.8,38.1l2.9,1.3l3.1-0.7c22.6-5,34-15.4,38.4-20.6c5.9,1.3,12.1,2.6,18.4,4l-0.1,0.3c0.3,0.1,0.7,0.3,0.9,0.6
		c0,0,0,0,0,0c0,0,0,0,0,0c0,0,0.1,0.1,0.1,0.1c1,0.7,2.2,1.4,3.3,2c1.3,0.7,2.6,1.5,3.8,2.4c0.3,0.2,0.4,0.5,0.5,0.9
		c1.5,1.3,3.7,3.5,5.5,5.3c4.3,4.2,9.6,9.5,14.9,13.7c2.1,1.7,4.2,3.4,6.2,5.1c7.1,5.9,13.8,11.5,20.5,14.4l2.9,1.3l3.1-0.7
		c26-5.8,45.2-19.8,51.1-24.4c32.6,4.8,64.2,8.1,91,8.1c3.1,0,6.1,0,9-0.1c0.4,5,1.3,16,2.8,25.1c0.5,3,2.3,5.6,5,7
		c1.4,0.8,3.1,1.2,4.7,1.2c1.3,0,2.7-0.3,3.9-0.8c20.4-8.8,24.8-29,25.8-37.6c13.7-2.4,27-5.4,40-8.9c3.7-1.5,7.7-2.3,11.5-3.6
		c0.4-0.1,0.8-0.1,1.3,0.1c7.1-2.1,14.2-4.4,21-6.8c3.1,0,5.7-0.9,7.4-1.5c0.7-0.2,1.3-0.4,1.7-0.5c1.6-0.3,3.7-0.5,5.8-0.6
		c1.7-0.1,3.3-0.2,5-0.4c12.3-1.3,21.7-3.4,30.6-6.9c1.8-0.7,3.2-1.5,4.5-2.1c1-0.5,1.7-0.9,2.6-1.2c8.5-3.5,17-15.8,15.7-26.6
		c0.1-2.6-0.8-5.2-2.7-7.2c-1.1-1.2-2.5-2-4-2.5c0.1-0.1,0.2-0.3,0.4-0.4c-0.1-0.3-0.3-0.6-0.3-0.9c-0.5-4.8-1.5-9.7-3.5-14
		c-0.8-1.8-2-3.5-3.2-5c-17.8-10.8-69.1-37.9-151.1-49.9c-0.9-0.9-1.9-1.7-3.1-2.2c-2.6-1.1-8.8-6.1-13.2-10.6c-3-3.1-6-5.5-8.8-7.9
		c-3.6-3-6.7-5.5-9.4-9c-11.1-14.3-28.3-27.6-43.9-33.9c-2.6-1-5.5-1-8,0.2c-2.5,1.2-4.4,3.4-5.2,6.1c-5.1,17.2-15.2,42.9-20.3,55.4
		c-3.6-2.5-8.1-4.4-13-6.4l-0.4-0.2c-1-0.4-1.9-0.7-2.5-1c-2.6-1.2-5.4-2.9-8.2-4.8c-2-1.3-3.9-2.5-6-3.7c-2.4-1.4-4.9-3-7.4-4.7
		c-3.4-2.2-6.8-4.5-10.5-6.5c-3.6-1.9-7-2.8-10.4-2.8c-6.2,0-10.9,3.2-14.8,6.3c-6.9,5.6-20.2,20-35.6,36.9l-0.9,1
		c-4.1,4.5-8.4,9.2-10.3,11.2l-7.4,3.1c-2.3,0.5-4.6,1-6.9,1.5c-9.2-7.4-25.8-16.2-30.6-17.8c-1.1-0.4-2.7-1.1-4.4-1.9
		c-5.1-2.4-11.4-5.3-17.9-5.3c-2.7,0-5.3,0.5-7.6,1.5c-3.5,1.5-7.2,5.2-25.9,26.3c-5.6,6.3-12.5,14.1-14.4,15.8l-2.1,1.9
		c-1.6,0.2-3.1,0.5-4.6,0.7c-3.1-3.7-8.9-8.5-20.2-14.7c-11.4-6.3-30.6-14.8-56.7-19.1c-2.1-0.3-4.4-0.5-7-0.5
		c-2.7,0-5.3,0.2-7.7,0.3l-1.9,0.1C35.2,189.1,35.4,200.6,35.5,204.9z M359.4,180.1c-21,3.3-42.1,7.2-62.4,11.2
		c10.2-11.2,22.7-24.6,28-28.9c1.4-1.1,2.1-1.6,2.5-1.8c0.2,0.1,0.6,0.2,1,0.5c2.9,1.5,5.7,3.4,8.8,5.5c2.7,1.8,5.6,3.7,8.6,5.5
		c1.6,0.9,3.3,2,5.1,3.1C353.6,176.8,356.4,178.5,359.4,180.1z M463.5,170.2c-0.4,0-0.7,0-1.1,0c-17.2,0-36.4,1.3-56.5,3.6
		c4.4-10.9,10.7-27.1,15.5-41.5c9.8,5.9,19.5,14.3,26.1,22.8c4,5.2,8.2,8.7,12.3,12C461.1,168.1,462.3,169.1,463.5,170.2z
		 M492.5,315.1c0.6-0.1,1.2-0.1,1.8-0.2c0,0,0,0,0.1,0c-0.4,1.4-0.9,2.9-1.6,4.4C492.7,317.6,492.6,316.2,492.5,315.1z M299.3,295.8
		c14.5,2.9,29.4,5.6,44.3,8.2c-6.3,3.3-14.1,6.6-22.7,8.9c-3.7-2.3-8.2-6-13-10c-2.1-1.8-4.3-3.6-6.5-5.4
		C300.7,297,300,296.4,299.3,295.8z M217.8,258.2l-0.6-0.1c-12.8-2.8-23.7-5.3-32-7c0.7-0.4,1.4-1,2-1.6c1.8-1.9,2.8-4.4,2.7-7.1
		c-0.1-2.9-1.4-5.5-3.5-7.2c8-1.7,18-3.9,29.7-6.5c8.9-2,18.6-4.1,28.8-6.4c0.1-0.1,0.2-0.2,0.3-0.2c0.4-0.2,0.9-0.4,1.3-0.5
		c0.5-0.1,1-0.2,1.4-0.2c0.3,0,0.7,0,1,0.1c65.2-14.2,152.8-31.6,213.1-31.6c10.6,0,20.1,0.5,28.2,1.6
		c73.1,10.1,120.9,32.4,142.1,44.2c0.9,0,1.6,0.6,2,1.4c5.4,1.6,5.4,7.8,3.5,12.7c-2.8,7.5-9.3,12.4-16.4,15.6
		c-4.5,2-9.3,3.4-14.2,4.3c0.1,0,0.1,0,0.1,0.1c-0.2,0-0.5,0-0.7,0.1c-0.2,0-0.4,0-0.5,0c-4.7,0.8-9.6,1.2-14.3,1.3
		c-5.8,0.1-11.8-0.1-16.8-2.7c-4.3-0.9-8.6-2.3-12.2-4.6c-0.5-0.2-0.9-0.4-1.4-0.7c-4-2.4-6.8-4.7-9-7.1c-0.8-0.9-1.5-3.2-2.2-5.2
		c-0.9-2.9-2-6.3-4.2-9.3l-5.9-8l-15.9,11.7l5.9,8c0.3,0.4,1,2.5,1.3,3.5c1.2,3.7,2.7,8.3,6.2,12.3c2.7,3.1,5.9,5.9,9.9,8.6
		c-22.5-10.4-30.3-35-32.8-46.9c1.6-1.6,6.6-3.1,9.6-4.1c2.5-0.8,5.1-1.6,7.4-2.7l4.9-2.2c-2-5.3-4.4-10.4-6.2-15.8
		c-8.1,2.9-15.8,6.6-23.9,9.4c-2.4,0.8-4.8,1.7-7.1,2.6c-0.9,0.6-1.9,1-2.9,1.3c-0.9,0.3-1.7,0.5-2.6,0.8c0,1.7,0.1,3.4,0.2,5.1
		c0.2,2.5,0.4,4.9,0.8,7.2c0,0.1,0,0.3,0,0.4c0.5,2.7,1.1,5.7,2.1,8.9c-6.4-3.4-30.4-14.6-63.7-14.6c-11,0-22.1,1.4-33,3.8
		c-6.8,3.1-13.5,6.3-19.7,10.5l-3.2,2.9l6.7,7.3c26.5,28.9,52.6,35,69.8,35c9.1,0,16.2-1.6,20.6-3.1l13.1,3.7l5.4-19l-19.7-5.6
		l-3.3,1.5c-0.5,0.2-27.5,12-60.1-15.1c7.7-1.4,15.4-2.1,23.2-2.1c33.2,0,55.5,12.7,55.7,12.8c1.5,0.9,3.2,1.3,5,1.3
		c3.5,0,6.8-1.9,8.6-4.9c5.3,11.7,13.6,23.9,25.9,32.9c-11.8,2.5-23.9,4.7-36.3,6.4c-8.1,1.1-17.5,1.7-28.2,1.7
		c-26.7,0-58.8-3.4-91.9-8.5l-0.1-0.1c-0.1,0-0.2,0.1-0.3,0.1c-3.5,0-7.1-0.7-10.5-1.6c-0.1,0-0.2-0.1-0.3-0.1
		C308.8,278.4,255.8,266.7,217.8,258.2z M182.8,270.8c8.2,1.7,18.8,4.1,30.8,6.7c1.2,0.3,2.5,0.5,3.7,0.8c-3.7,2.1-8.6,4.2-14.9,5.9
		C196.5,281.2,189.3,276.1,182.8,270.8z M180.1,216.4c5.6-6.3,15.3-17.3,19.1-20.9c2.2,0.3,6.9,2.5,8.8,3.4c2.2,1,4.3,2,6.3,2.7
		c1.4,0.5,5.5,2.5,10,5.1c-4.2,0.9-8.3,1.8-12.2,2.7C199.5,212.2,188.5,214.6,180.1,216.4z M136.4,243.3c6.1-1.1,12.6-2.1,19.7-3.1
		l0.5,0.5l0.8-0.7c3.7-0.5,7.6-1,11.7-1.5c0.7-0.1,1.4-0.2,2.3-0.3c-0.8,1.5-1.2,3.2-1.2,4.9c0.1,2.1,0.8,4,1.9,5.6
		c-0.6-0.1-1.1-0.2-1.6-0.2c-2.5-0.3-5-0.6-7.4-1l-0.1-0.1c0,0-0.1,0-0.1,0h-2.7c-0.3,0-0.6-0.1-0.9-0.2c-0.2-0.1-0.3-0.2-0.4-0.3
		c-5.7-0.8-11.1-1.6-16.2-2.5l-0.2-0.5l-1,0.3C139.7,243.9,138,243.6,136.4,243.3z M55.2,207.7c3.3-0.2,6.6-0.3,8.6,0.1
		c26,4.3,44.1,13,54.1,19.1c-8.1,1.8-15.6,3.7-23.1,6c-2.5,0.8-4.6,2.5-5.9,4.8c-1.2,2.3-1.5,5-0.8,7.5c0.4,1.3,1.1,2.5,1.9,3.5
		c0.1,0.2,0.2,0.5,0.3,0.7c1.2,2.3,3.3,4,5.9,4.8c5.6,1.7,11.3,3.2,17.1,4.6c-13.9,7.9-34.4,17.7-56.1,20.2c-0.4,0-0.8,0.1-1.2,0.2
		l0-0.5C55.6,271.2,55.3,226.4,55.2,207.7z"/>
	<path class="st0" d="M583.6,238.1c-1.6,0.9-3.3,1.4-5,1.4l-0.3,0c-5.1-0.2-9.3-4.4-9.5-9.5c0-0.8,0-2.7,0.2-3.5
		c0.9-4.7,4.9-9.1,9.6-9.1h0.5c5,0,9.2,4.9,9.8,9.9C589.3,231.3,587.2,236.2,583.6,238.1z"/>
</g>
</svg>
