<?xml version="1.0" encoding="utf-8"?>
<!-- Generator: Adobe Illustrator 28.0.0, SVG Export Plug-In . SVG Version: 6.00 Build 0)  -->
<svg version="1.1" id="Livello_1" xmlns="http://www.w3.org/2000/svg" xmlns:xlink="http://www.w3.org/1999/xlink" x="0px" y="0px"
	 viewBox="0 0 708.7 708.7" style="enable-background:new 0 0 708.7 708.7;" xml:space="preserve">
<style type="text/css">
	.st0{fill:#1E1E1C;}
</style>
<g>
	<g id="beer_3_">
		<g id="beer_2_">
			<g>
				<g>
					<g>
						<g>
							<path class="st0" d="M-1037.1,528.6c-50.1,0-90.9-40.8-90.9-90.9c0-42.3,29-78,68.2-88.1c-5-10.2-7.6-21.5-7.6-33.2
								c0-41.8,34-75.8,75.8-75.8c17,0,33.4,5.8,46.5,15.9c29-64,93.9-106.9,165.7-106.9c71.8,0,136.7,42.8,165.7,106.9
								c13.1-10.1,29.4-15.9,46.5-15.9c41.8,0,75.8,34,75.8,75.8c0,21.9-9.5,42.7-26,57.1c-6.3,5.5-15.9,4.8-21.4-1.5
								c-5.5-6.3-4.8-15.9,1.5-21.4c9.9-8.6,15.5-21,15.5-34.2c0-25.1-20.4-45.5-45.5-45.5c-16,0-30.9,8.5-38.9,22.1
								c-3.1,5.2-9,8.1-15,7.3c-6-0.8-11-5-12.7-10.9c-18.5-64.5-78.4-109.5-145.6-109.5s-127.1,45-145.6,109.5
								c-1.7,5.8-6.6,10.1-12.7,10.9c-6,0.8-11.9-2.1-15-7.3c-8-13.6-23-22.1-38.9-22.1c-25.1,0-45.5,20.4-45.5,45.5
								c0,13.2,5.7,25.7,15.6,34.3c5.2,4.4,6.7,11.8,3.9,17.9c-2.9,6.2-9.5,9.6-16.2,8.5c-0.6-0.1-2.1-0.1-3.3-0.1
								c-33.4,0-60.6,27.2-60.6,60.6s27.2,60.6,60.6,60.6c13.3,0,25.9-4.2,36.3-12.1c6.7-5.1,16.2-3.8,21.2,2.9
								c5.1,6.7,3.8,16.2-2.9,21.2C-998.2,522.3-1017.1,528.6-1037.1,528.6z"/>
						</g>
					</g>
					<g>
						<g>
							<path class="st0" d="M-683.6,301.3c-5.7,0-11.1-3.2-13.7-8.7c-12.9-27.1-39.4-46.7-69.2-51c-8.3-1.2-14-8.9-12.8-17.2
								c1.2-8.3,8.9-14,17.2-12.8c40.3,5.9,74.8,31.3,92.2,68c3.6,7.6,0.4,16.6-7.2,20.2C-679.2,300.8-681.4,301.3-683.6,301.3z"/>
						</g>
					</g>
					<g>
						<g>
							<path class="st0" d="M-900.7,558.9c-58.5,0-106.1-47.6-106.1-106.1c0-44.8,28.4-85,70.7-100c7.9-2.8,16.5,1.3,19.3,9.2
								c2.8,7.9-1.3,16.5-9.2,19.3c-30.2,10.7-50.5,39.4-50.5,71.4c0,41.8,34,75.8,75.8,75.8c24.4,0,47.4-11.8,61.4-31.7
								c2.8-3.9,7.2-6.2,12-6.4c4.7-0.2,9.3,2,12.3,5.7c8.6,10.9,21.6,17.1,35.6,17.1c25.1,0,45.5-20.4,45.5-45.5
								c0-8-2.1-15.9-6.1-22.7c-4.2-7.2-1.7-16.5,5.5-20.7c7.2-4.2,16.5-1.7,20.7,5.5c6.6,11.5,10.1,24.6,10.1,37.9
								c0,41.8-34,75.8-75.8,75.8c-17.1,0-33.3-5.6-46.4-15.8C-845.5,547.6-872.4,558.9-900.7,558.9z"/>
						</g>
					</g>
					<g>
						<g>
							<path class="st0" d="M-529.4,543.8c-54.3,0-98.5-44.2-98.5-98.5c0-8.4,6.8-15.2,15.2-15.2c8.4,0,15.2,6.8,15.2,15.2
								c0,37.6,30.6,68.2,68.2,68.2s68.2-30.6,68.2-68.2c0-37.4-29.2-67.3-66.5-68c-8.4-0.2-15-7.1-14.8-15.5
								c0.2-8.4,7-14.9,15.5-14.8c54,1.1,96.2,44.3,96.2,98.3C-430.9,499.6-475.1,543.8-529.4,543.8z"/>
						</g>
					</g>
				</g>
			</g>
		</g>
	</g>
	<g>
		<path class="st0" d="M-672.8,491.9c-1.7,0-3.3-0.1-5-0.2c-22.4-1.7-42.6-14.9-60.1-39.1c-4.9-6.8-3.4-16.3,3.4-21.2
			c6.8-4.9,16.3-3.4,21.2,3.4c12,16.6,24.8,25.6,37.9,26.6c22.8,1.8,44.6-20.2,51.7-27.4l1.1-1.1c5.9-5.9,15.5-5.9,21.4,0
			c5.9,5.9,5.9,15.5,0,21.4l-1,1C-611.5,464.6-638.4,491.9-672.8,491.9z"/>
	</g>
</g>
<g>
	<g>
		<g>
			<path class="st0" d="M-613.6,1282L-613.6,1282l-339.7,0c-2.4,0-4.8-0.6-6.9-1.9c-2-1.2-48.4-28.8-48.4-80
				c0-35.2,14.1-95.1,108.7-100c6.4-0.3,13.6-0.6,21.5-1c67-2.9,224-9.6,233.1-66.4c0.7-4.2,3.3-7.9,7-9.9c3.8-2,8.2-2.1,12.1-0.4
				c3.1,1.4,75.6,35.8,75.6,129.1c0,92.1-53.6,126.8-55.9,128.3C-608.5,1281.3-611,1282-613.6,1282z M-949.2,1254.7l331.1,0
				c9.7-7.7,40.3-37.5,40.3-103.1c0-53.6-29-83.2-46.6-96.2c-32,61.5-168.5,67.3-252.8,70.9c-7.8,0.3-14.9,0.6-21.3,1
				c-55.7,2.9-82.8,26.7-82.8,72.8C-981.2,1229.5-957.5,1248.8-949.2,1254.7z"/>
		</g>
	</g>
	<g>
		<g>
			<path class="st0" d="M-946.2,1131.2c-3.3-2.5-20-17.4-20-60.6c0-50.9,65.9-94.6,153.2-101.5c81.9-6.5,99.7-57.5,99.7-69.8
				c0-4.5,2.2-8.6,5.8-11.2c3.7-2.5,8.3-3.1,12.5-1.6c3.1,1.2,76.9,29.7,76.9,148.4h-27.3c0-68.8-27.5-100.9-45-114.4
				c-11.2,30.3-45.9,69.7-120.5,75.7c-76.6,6.1-128.1,43.3-128.1,74.3c0,29.9,9.7,39.2,9.8,39.3L-946.2,1131.2z"/>
		</g>
	</g>
	<g>
		<g>
			<path class="st0" d="M-913.6,1012.3c-1-2.3-24.6-56.8,11.1-90.4c9.3-8.8,25.2-16,43.6-24.3c57.9-26.2,100.7-50.5,81.6-103.6
				c-1.5-4.3-0.8-9,1.9-12.7c2.7-3.7,7.1-5.8,11.6-5.5c0.8,0,77.7,5,77.7,123.5h-27.3c0-54.3-17.6-78-32.3-88.3
				c5.5,62.8-60.6,92.7-102,111.5c-15.5,7-30.2,13.7-36.2,19.3c-21.6,20.2-5,59.1-4.8,59.5L-913.6,1012.3z"/>
		</g>
	</g>
</g>
<g>
	<g>
		<path class="st0" d="M-914.3,1930.2c-20.5,0-41.8-1.5-63.7-4.5c-3.1-0.4-6.2-0.8-9.5-1.2c-18.1-2.2-38.7-4.7-54.8-15.1
			c-8.9-5.8-13.5-13.6-12.7-21.7c0.6-6,4.1-11.5,10.5-16.4c11.1-8.4,25.7-13.4,44.7-15.2c3.8-0.4,7-1.2,9-2c-1.1-1-2.9-2-4.3-2.7
			c-18-8.6-37.5-7.9-58.1-7c-5.1,0.2-10.5,0.4-15.8,0.5c-35.1,0.4-62.9-2.4-87.5-8.8c-3.7-1-22.3-6.4-25.6-18.6
			c-0.9-3.2-1.4-9.4,5-15.7c7.8-7.8,19.6-9,29.1-10c2-0.2,4-0.4,5.8-0.7c16.2-2.5,33.6-5,53.2-7.8c2.3-0.3,4.7-0.6,7.1-0.9
			c9.1-1.2,18.6-2.3,26.4-5.4c0.2-0.1,0.5-0.2,0.7-0.3c-2.5-2.4-8.6-6.7-23.7-13.9c-0.9-0.4-1.7-0.8-2.3-1.1
			c-14.8-7.2-29.6-16.3-27-28.6c3.2-15,30-18.9,75.1-20.4c4.8-0.2,8.7,3.5,8.9,8.3c0.2,4.7-3.5,8.7-8.3,8.9
			c-38.4,1.3-52.2,4.8-57.1,6.9c2.2,1.9,6.7,5.1,15.9,9.6l2.1,1c21.8,10.3,35.2,19.1,34.9,30.8c-0.2,4.5-2.5,10.7-12.9,14.8
			c-9.8,3.9-20.4,5.2-30.6,6.5c-2.3,0.3-4.6,0.6-6.8,0.9c-19.5,2.8-36.9,5.3-53,7.7c-2,0.3-4.2,0.5-6.5,0.8
			c-6.6,0.7-14.8,1.6-18.5,4.9c2.2,1.8,7.4,4.5,12.6,5.8c23.1,6,49.5,8.6,83,8.2c5.1-0.1,10.3-0.3,15.3-0.5
			c21.8-0.9,44.3-1.7,66.2,8.7c3.5,1.7,7.5,3.9,10.7,7.8c6,7.4,4.8,13.6,3.5,16.7c-4,9.5-17.1,12.1-24.6,12.8
			c-15.7,1.5-27.5,5.3-35.9,11.8c-3.6,2.7-3.8,4.2-3.8,4.4c-0.1,0.9,1.4,3.3,5,5.6c12.8,8.3,30.5,10.5,47.5,12.5
			c3.3,0.4,6.6,0.8,9.7,1.2c24.2,3.3,47.8,4.7,70.1,4.2c29-0.6,59.2-2.2,82.3-13.4c6-2.9,11.9-7.8,11.3-12.2
			c-0.4-2.9-12.1-8.8-17.1-11.3c-12.5-6.2-28-14-23.2-28.5c3.6-10.7,17.3-12.9,25.6-14.2l1.6-0.3c17-3,34.7-3.3,51.3-3.3
			c53.9,0,85.1-10.3,93.2-16.3c-2.7-1.3-8.4-3.4-19.9-4.8c-80.1-10.3-102.4-17.2-103.5-31.9c-0.9-11.9,12.7-20,52-31.1
			c6.9-1.9,11.5-3.6,14.7-4.9c-7.2-2.2-21.9-5.4-51.3-8c-4.7-0.4-8.2-4.6-7.8-9.3c0.4-4.7,4.6-8.2,9.3-7.8
			c65.2,5.7,71.5,14.7,72.3,23.4c1.1,11.2-12.2,17.3-32.4,23c-22.6,6.4-32.5,10.8-36.9,13.3c10.2,4.7,39,10.1,85.9,16.1
			c9.3,1.2,37.6,4.8,36.4,22.2c-0.7,10.2-12.4,18.5-34.9,24.5c-20.5,5.5-47.8,8.5-77,8.5c-16.5,0-32.7,0.2-48.3,3l-1.9,0.3
			c-5.3,0.9-9,1.8-11.1,2.7c2.7,2.4,9.4,5.7,13.6,7.8c11.7,5.8,24.9,12.5,26.4,24.5c1.4,11.6-6.4,22.7-20.9,29.7
			c-26.2,12.7-58.5,14.4-89.3,15.1C-908.2,1930.2-911.2,1930.2-914.3,1930.2z M-1052.9,1775.5L-1052.9,1775.5L-1052.9,1775.5z
			 M-730.8,1743.6L-730.8,1743.6L-730.8,1743.6z"/>
	</g>
	<g>
		<g>
			<path class="st0" d="M-907.2,1800.1c-52.3,0-94.9-42.6-94.9-94.9c0-5.5,0.5-11.4,1.6-17.6c0.8-4.7,5.2-7.8,9.9-7
				c4.7,0.8,7.8,5.3,7,9.9c-0.9,5.2-1.4,10.1-1.4,14.6c0,42.9,34.9,77.8,77.8,77.8c42.9,0,77.8-34.9,77.8-77.8
				c0-48-58.1-128.4-77.9-154.4c-3.3,4.1-7.5,9.6-12.3,16.1c-2.8,3.8-8.2,4.6-12,1.8c-3.8-2.8-4.6-8.2-1.8-12
				c11.3-15.3,19.4-24.9,19.7-25.3c1.6-2,4-3,6.6-3c2.6,0,5,1.2,6.6,3.2c3.6,4.5,88.3,109.9,88.3,173.5
				C-812.3,1757.5-854.8,1800.1-907.2,1800.1z"/>
		</g>
		<g>
			<path class="st0" d="M-887.5,1762.9c-3.6,0-7-2.3-8.2-6c-1.4-4.5,1-9.3,5.6-10.8c16.7-5.4,28-20.8,28-38.4c0-4.7,3.8-8.6,8.6-8.6
				s8.6,3.8,8.6,8.6c0,25.1-16,47.1-39.9,54.7C-885.8,1762.8-886.6,1762.9-887.5,1762.9z"/>
		</g>
	</g>
	<g>
		<g>
			<path class="st0" d="M-1013.3,1672.1c-40.4,0-73.3-32.9-73.3-73.3c0-51.9,64-128.3,66.7-131.5c1.6-2,4-3,6.6-3
				c2.6,0,5,1.2,6.6,3.2c2.7,3.4,66.6,82.9,66.6,131.4C-940,1639.3-972.9,1672.1-1013.3,1672.1z M-1013.4,1486.7
				c-16.1,20.7-56,75.6-56,112.2c0,30.9,25.2,56.1,56.1,56.1c30.9,0,56.1-25.2,56.1-56.1C-957.1,1567.5-993.2,1513.4-1013.4,1486.7z
				"/>
		</g>
	</g>
	<g>
		<g>
			<path class="st0" d="M-786.3,1577.7c-30.5,0-55.3-24.8-55.3-55.3c0-38.4,46.8-94.2,48.7-96.5c1.6-2,4-3.1,6.6-3
				c2.6,0,5,1.2,6.6,3.2c0.5,0.6,12.1,15.1,24,33.9c16.4,26.1,24.7,47.1,24.7,62.5C-731,1552.9-755.8,1577.7-786.3,1577.7z
				 M-786.4,1445.3c-14.6,19.1-38,54.4-38,77.1c0,21,17.1,38.2,38.2,38.2c21,0,38.2-17.1,38.2-38.2
				C-748.1,1501.3-771.8,1465-786.4,1445.3z"/>
		</g>
	</g>
</g>
<g>
	<g>
		<g>
			<g>
				<path class="st0" d="M-1042.6,2382.9c-1.7,0-3.4-0.5-4.8-1.5c-2.2-1.6-3.5-4.1-3.5-6.8v-184.2c0-55.3,45-100.3,100.3-100.3
					c26.8,0,52,10.4,70.9,29.4c18.9,18.9,29.4,44.1,29.4,70.9v24.7c0,3.1-1.8,6-4.6,7.4c-3.2,1.6-6.4,3.6-9.7,5.9
					c-20.9,14.9-33.7,38.1-35,63.6c-1,19.1,4.3,37.5,15.4,53.1l13.8,19.4c1.8,2.5,2,5.8,0.6,8.6c-1.4,2.8-4.3,4.5-7.4,4.5H-1012
					c-9.5,0-18.9,1.6-27.8,4.8C-1040.7,2382.8-1041.6,2382.9-1042.6,2382.9z M-950.6,2106.8c-46.1,0-83.7,37.5-83.7,83.7v173.1
					c7.3-1.7,14.7-2.5,22.2-2.5h118.9l-4.5-6.3c-13.3-18.7-19.7-40.6-18.4-63.6c1.6-30.5,16.8-58.3,41.9-76.2
					c2.4-1.7,4.9-3.3,7.3-4.7v-19.8c0-22.3-8.7-43.4-24.5-59.2C-907.2,2115.5-928.2,2106.8-950.6,2106.8z M-858.6,2215.2h0.1H-858.6
					z"/>
			</g>
		</g>
	</g>
	<g>
		<g>
			<g>
				<path class="st0" d="M-895.4,2198.8c-4.6,0-8.3-3.7-8.3-8.3c0-25.9-21-46.9-46.9-46.9c-4.6,0-8.3-3.7-8.3-8.3
					c0-4.6,3.7-8.3,8.3-8.3c35,0,63.5,28.5,63.5,63.5C-887.1,2195.1-890.8,2198.8-895.4,2198.8z"/>
			</g>
		</g>
	</g>
	<g>
		<g>
			<g>
				<path class="st0" d="M-907.8,2300h-134.8c-4.6,0-8.3-3.7-8.3-8.3c0-4.6,3.7-8.3,8.3-8.3h134.8c4.6,0,8.3,3.7,8.3,8.3
					C-899.5,2296.2-903.2,2300-907.8,2300z"/>
			</g>
		</g>
	</g>
	<g>
		<g>
			<g>
				<path class="st0" d="M-1067.2,2469.7c-4.6,0-8.3-3.7-8.3-8.3c0-35,28.5-63.5,63.5-63.5c4.6,0,8.3,3.7,8.3,8.3
					c0,4.6-3.7,8.3-8.3,8.3c-25.9,0-46.9,21-46.9,46.9C-1058.9,2466-1062.6,2469.7-1067.2,2469.7z"/>
			</g>
		</g>
	</g>
	<g>
		<g>
			<g>
				<path class="st0" d="M-809.6,2561.7H-1012c-55.3,0-100.3-45-100.3-100.3c0-55.3,45-100.3,100.3-100.3h202.4
					c55.3,0,100.3,45,100.3,100.3S-754.3,2561.7-809.6,2561.7z M-1012,2377.7c-46.1,0-83.7,37.5-83.7,83.7
					c0,46.1,37.5,83.7,83.7,83.7h202.4c46.1,0,83.7-37.5,83.7-83.7v0c0-46.1-37.5-83.7-83.7-83.7H-1012z"/>
			</g>
		</g>
	</g>
	<g>
		<g>
			<g>
				<path class="st0" d="M-910.8,2561.7c-4.6,0-8.3-3.7-8.3-8.3v-184c0-4.6,3.7-8.3,8.3-8.3s8.3,3.7,8.3,8.3v184
					C-902.5,2557.9-906.2,2561.7-910.8,2561.7z"/>
			</g>
		</g>
	</g>
	<g>
		<g>
			<g>
				<g>
					<path class="st0" d="M-698.5,2561.8c-21.4,0-42.7-6.9-60.7-20.6c-2.1-1.6-3.3-4-3.3-6.6c0-2.6,1.2-5,3.3-6.6
						c21.1-15.9,33.1-40.2,33.1-66.6c0-29.6-15.1-56.4-40.5-71.6c-12.9-7.9-27.8-12.1-43.2-12.1h-67.4c-2.7,0-5.2-1.3-6.8-3.5
						l-13.8-19.4c-15.5-21.8-21.7-48.4-17.2-74.8c4.4-26.4,18.9-49.5,40.7-65c4-2.8,7.9-5.2,11.9-7.2c14-7.5,30.1-11.5,46.4-11.5
						c32.4,0,62.9,15.7,81.6,42l117.5,164.7c32.1,45,21.6,107.7-23.4,139.9c0,0,0,0,0,0C-657.7,2555.5-678.1,2561.8-698.5,2561.8z
						 M-740.4,2533.8c28.2,16.4,63.4,15,90.5-4.3c37.5-26.8,46.3-79.2,19.5-116.7L-747.8,2248c-15.6-22-41.1-35.1-68.1-35.1
						c-13.8,0-26.9,3.2-38.8,9.6c-3.3,1.7-6.6,3.7-9.9,6c-18.2,12.9-30.2,32.2-33.9,54.2c-3.7,22.1,1.4,44.2,14.4,62.5l11.3,15.9
						h63.1c18.4,0,36.4,5,51.8,14.5c30.3,18.2,48.5,50.3,48.5,85.8C-709.4,2489.2-720.5,2515-740.4,2533.8z M-645,2536.3h0.1H-645z"
						/>
				</g>
			</g>
		</g>
		<g>
			<g>
				<g>
					<path class="st0" d="M-771,2272.9c-2.6,0-5.1-1.2-6.8-3.5c-15-21-44.4-26-65.4-11c-3.7,2.7-8.9,1.8-11.6-1.9
						c-2.7-3.7-1.8-8.9,1.9-11.6c28.5-20.3,68.2-13.7,88.5,14.8c2.7,3.7,1.8,8.9-1.9,11.6C-767.7,2272.4-769.3,2272.9-771,2272.9z"
						/>
				</g>
			</g>
		</g>
		<g>
			<g>
				<g>
					<path class="st0" d="M-762.2,2390.9c-2.6,0-5.1-1.2-6.8-3.5c-2.7-3.7-1.8-8.9,1.9-11.6l79.9-57c3.7-2.7,8.9-1.8,11.6,1.9
						c2.7,3.7,1.8,8.9-1.9,11.6l-79.9,57C-758.8,2390.4-760.5,2390.9-762.2,2390.9z"/>
				</g>
			</g>
		</g>
	</g>
</g>
<g>
	<g>
		<path class="st0" d="M-1062.3,3139.9c-83.4,0-155.9-26.4-192.5-42.6c-7.6-3.4-13.4-9.5-16.3-17.2c-2.8-7.6-2.5-15.8,0.9-23.1
			c12-25.6,42.7-73.2,113.3-103.9c60.1-26.1,83-72.4,99.7-106.3c11-22.2,19.7-39.8,35.3-45c40.8-13.8,102.7,62.8,143,139.7
			c20.6,39.4,50.7,60.1,77.3,78.4c11.8,8.1,22.9,15.8,31.7,24.2c8.1,7.7,11.2,18.8,8.3,29.7c-2.9,10.8-11.4,19.1-22.3,21.7
			c-51.9,12.5-181.9,41.8-267.8,44.1C-1055.2,3139.9-1058.8,3139.9-1062.3,3139.9z M-1011.5,2815.6c-1.9,0-3.8,0.3-5.4,0.8
			c-9.5,3.2-17,18.2-26.4,37.2c-17.8,36-42.2,85.3-107.4,113.6c-65.9,28.6-94.4,72.6-105.5,96.2c-1.6,3.5-1.8,7.5-0.4,11.1
			c1.4,3.8,4.3,6.9,8.1,8.5c37,16.3,111.7,43.5,196.5,41.1c84.5-2.3,213.2-31.3,264.6-43.7c5.4-1.3,9.5-5.3,10.9-10.7
			c1.4-5.3-0.1-10.7-4-14.5c-8-7.6-18.6-14.9-29.8-22.7c-26.6-18.4-59.8-41.2-82.2-84C-932.5,2872.4-983.9,2815.6-1011.5,2815.6z"/>
	</g>
	<g>
		<path class="st0" d="M-780.9,3052.7c-1.8,0-3.6-0.6-5-1.8c-7.1-6-15.6-11.8-24.6-18.1c-26.6-18.4-59.7-41.3-82.1-84.1
			c-39.4-75.2-88.8-131-117.7-132.8c-2.6-0.2-4.9-1.6-6.2-3.9c-1.3-2.3-1.4-5-0.2-7.3c1.8-3.6,3.6-7.1,5.2-10.5
			c11-22.2,19.7-39.8,35.3-45c40.7-13.8,102.7,62.8,143,139.7c20.6,39.4,50.7,60.1,77.3,78.4c11.8,8.1,22.9,15.8,31.7,24.2
			c8.1,7.7,11.2,18.9,8.3,29.7c-2.9,10.9-11.3,19.1-22.3,21.7c-11.2,2.7-25.3,6-41.2,9.5C-779.8,3052.6-780.4,3052.7-780.9,3052.7z
			 M-998.3,2802.7c38.8,12.6,86.8,76.5,119.5,138.9c20.7,39.5,50.7,60.2,77.2,78.6c8.1,5.6,15.8,11,22.7,16.5
			c14.3-3.2,27-6.2,37.3-8.7c5.4-1.3,9.5-5.3,10.9-10.7c1.4-5.3-0.1-10.7-4-14.5c-8-7.6-18.6-14.9-29.8-22.7
			c-26.6-18.4-59.8-41.2-82.2-84c-42.8-81.6-98.5-140.8-124.4-132.2c-9.5,3.2-17,18.2-26.4,37.3
			C-997.8,2801.6-998.1,2802.1-998.3,2802.7z"/>
	</g>
	<g>
		<path class="st0" d="M-1261.8,3065.3c-0.6,0-1.2-0.1-1.7-0.2c-9.2-2.1-17.8-4.1-24.9-5.8c-11-2.6-19.3-10.8-22.3-21.7
			c-2.9-10.9,0.2-22,8.3-29.7c8.1-7.7,12.7-17.7,18.1-29.2c11.7-25.1,26.3-56.2,83.6-85.5c39.6-20.2,66.9-55.4,88.9-83.6
			c22.3-28.7,39.9-51.3,61.4-44.1c15.6,5.2,24.5,23.2,33.9,42.3c1.8,3.6,0.5,8-3,10.1c-8.3,4.9-15.5,19.3-23.7,36
			c-17.8,35.9-42.2,85.1-107.5,113.4c-61.1,26.5-90.4,65.6-104.2,93.7C-1256.2,3063.7-1258.9,3065.3-1261.8,3065.3z M-1058.2,2779.7
			c-10.8,0-25.1,18.4-41.4,39.4c-22.9,29.5-51.4,66.1-94,87.9c-52.6,26.9-65.4,54.2-76.7,78.3c-5.8,12.4-11.3,24.1-21.4,33.8
			c-3.9,3.8-5.5,9.2-4,14.5c1.4,5.4,5.5,9.4,10.9,10.7c5.5,1.3,11.9,2.8,18.8,4.4c15.9-29.9,47.5-68.9,109.1-95.6
			c60.1-26.1,83-72.3,99.8-106.1c8.1-16.3,14.8-29.8,23.9-38.1c-7.8-15.3-14.3-26.1-22.1-28.8
			C-1056.3,2779.9-1057.2,2779.7-1058.2,2779.7z"/>
	</g>
	<g>
		<path class="st0" d="M-1290.2,3013.3c-3.7,0-6.9-2.6-7.6-6.4c-0.7-4.2,2.1-8.2,6.3-8.9c0.2,0,23.8-4.4,37.2-21.2
			c2.7-3.3,7.5-3.9,10.9-1.2c3.3,2.7,3.9,7.5,1.2,10.9c-17.1,21.3-45.3,26.5-46.5,26.7C-1289.3,3013.3-1289.7,3013.3-1290.2,3013.3z
			"/>
	</g>
	<g>
		<path class="st0" d="M-1037.8,2938.2c-31.8,0-53.8-21.6-54.7-22.5c-3-3-3-7.9,0-10.9c3-3,7.9-3,10.9,0c0.3,0.3,18.6,18,43.8,18
			c4.3,0,7.7,3.5,7.7,7.7C-1030,2934.7-1033.5,2938.2-1037.8,2938.2z"/>
	</g>
	<g>
		<path class="st0" d="M-840.7,2938.2c-3.3,0-6.3-2.1-7.4-5.4c-1.3-4.1,0.9-8.4,5-9.7l21.6-6.9c4-1.3,8.4,0.9,9.7,5
			c1.3,4.1-0.9,8.4-5,9.7l-21.6,6.9C-839.1,2938.1-839.9,2938.2-840.7,2938.2z"/>
	</g>
	<g>
		<path class="st0" d="M-1006.5,2882.8c0,5.7-4.6,10.3-10.3,10.3c-5.7,0-10.3-4.6-10.3-10.3c0-5.7,4.6-10.3,10.3-10.3
			C-1011.1,2872.5-1006.5,2877.1-1006.5,2882.8z"/>
	</g>
	<g>
		<path class="st0" d="M-1062.4,3049.4c0,5.7-4.6,10.3-10.3,10.3c-5.7,0-10.3-4.6-10.3-10.3c0-5.7,4.6-10.3,10.3-10.3
			C-1067,3039.1-1062.4,3043.7-1062.4,3049.4z"/>
	</g>
	<g>
		<path class="st0" d="M-910.9,3012.8c0,5.7-4.6,10.3-10.3,10.3c-5.7,0-10.3-4.6-10.3-10.3c0-5.7,4.6-10.3,10.3-10.3
			C-915.6,3002.5-910.9,3007.1-910.9,3012.8z"/>
	</g>
	<g>
		<circle class="st0" cx="-945.3" cy="2940.7" r="13.7"/>
	</g>
	<g>
		<path class="st0" d="M-901.3,2833c0,7.6-6.2,13.7-13.7,13.7s-13.7-6.2-13.7-13.7s6.2-13.7,13.7-13.7S-901.3,2825.4-901.3,2833z"/>
	</g>
	<g>
		<path class="st0" d="M-844,3052.9c0,7.6-6.2,13.7-13.7,13.7s-13.7-6.2-13.7-13.7c0-7.6,6.2-13.7,13.7-13.7S-844,3045.3-844,3052.9
			z"/>
	</g>
	<g>
		<path class="st0" d="M-1039.7,2967.4c0,4.5-3.7,8.2-8.2,8.2c-4.5,0-8.2-3.7-8.2-8.2s3.7-8.2,8.2-8.2
			C-1043.4,2959.2-1039.7,2962.9-1039.7,2967.4z"/>
	</g>
	<g>
		<circle class="st0" cx="-959" cy="2795.2" r="8.2"/>
	</g>
	<g>
		<circle class="st0" cx="-1192.1" cy="2940.7" r="8.2"/>
	</g>
	<g>
		<circle class="st0" cx="-974.9" cy="3074" r="8.2"/>
	</g>
	<g>
		<circle class="st0" cx="-871.5" cy="2908.3" r="8.2"/>
	</g>
	<g>
		<path class="st0" d="M-1163.7,3057.6c0,4.5-3.7,8.2-8.2,8.2s-8.2-3.7-8.2-8.2c0-4.5,3.7-8.2,8.2-8.2S-1163.7,3053.1-1163.7,3057.6
			z"/>
	</g>
	<g>
		<circle class="st0" cx="-1072.7" cy="2824.8" r="8.2"/>
	</g>
	<g>
		<circle class="st0" cx="-1120.5" cy="2986.4" r="12.5"/>
	</g>
	<g>
		<path class="st0" d="M-773.7,3009.4c-2.1,6.6-9.2,10.2-15.8,8.1c-6.6-2.1-10.2-9.2-8.1-15.8c2.1-6.6,9.2-10.2,15.8-8.1
			C-775.2,2995.8-771.6,3002.8-773.7,3009.4z"/>
	</g>
	<g>
		<path class="st0" d="M-1004.8,3016.6c-2.1,6.6-9.2,10.2-15.8,8.1c-6.6-2.1-10.2-9.2-8.1-15.8c2.1-6.6,9.2-10.2,15.8-8.1
			C-1006.4,3003-1002.7,3010.1-1004.8,3016.6z"/>
	</g>
	<g>
		<circle class="st0" cx="-1120.5" cy="2889.8" r="12.5"/>
	</g>
</g>
<g>
	<g>
		<g>
			<path class="st0" d="M-1125.4,3780.3c-30.5,0-61-11.6-84.3-34.8c-46.5-46.5-46.5-122.1,0-168.5c46.5-46.5,122.1-46.5,168.5,0
				c46.5,46.5,46.5,122.1,0,168.5C-1064.3,3768.7-1094.9,3780.3-1125.4,3780.3z M-1125.4,3562.5c-25.3,0-50.6,9.6-69.8,28.9
				c-38.5,38.5-38.5,101.1,0,139.6c38.5,38.5,101.1,38.5,139.6,0c38.5-38.5,38.5-101.1,0-139.6
				C-1074.8,3572.2-1100.1,3562.5-1125.4,3562.5z"/>
		</g>
	</g>
	<g>
		<g>
			<path class="st0" d="M-934.7,3589.7c-30.5,0-61-11.6-84.3-34.8c-46.5-46.5-46.5-122.1,0-168.5c46.5-46.5,122.1-46.5,168.5,0
				c46.5,46.5,46.5,122.1,0,168.5C-873.7,3578.1-904.2,3589.7-934.7,3589.7z M-934.7,3371.9c-25.3,0-50.6,9.6-69.8,28.9
				c-38.5,38.5-38.5,101.1,0,139.6c38.5,38.5,101.1,38.5,139.6,0c38.5-38.5,38.5-101.1,0-139.6
				C-884.1,3381.5-909.4,3371.9-934.7,3371.9z"/>
		</g>
	</g>
	<g>
		<g>
			<path class="st0" d="M-1202.4,3748.5c-2.6,0-5.2-1-7.2-3c-4-4-4-10.5,0-14.4l154.1-154.1c4-4,10.5-4,14.4,0c4,4,4,10.5,0,14.4
				l-154.1,154.1C-1197.2,3747.5-1199.8,3748.5-1202.4,3748.5z"/>
		</g>
	</g>
	<g>
		<g>
			<path class="st0" d="M-857.7,3557.8c-2.6,0-5.2-1-7.2-3l-154.1-154.1c-4-4-4-10.5,0-14.4c4-4,10.5-4,14.4,0l154.1,154.1
				c4,4,4,10.5,0,14.4C-852.4,3556.8-855,3557.8-857.7,3557.8z"/>
		</g>
	</g>
</g>
<g>
	<path class="st0" d="M1682.5,436.2l-1.9-0.1c-2.3-0.2-5-0.3-7.7-0.3c-2.6,0-4.9,0.2-7,0.5c-26.2,4.3-45.3,12.8-56.7,19.1
		c-11.2,6.2-17.1,11-20.2,14.7c-1.5-0.2-3-0.5-4.6-0.7l-2.1-1.9c-1.9-1.7-8.8-9.5-14.4-15.8c-18.7-21.1-22.3-24.8-25.9-26.3
		c-2.3-1-4.9-1.5-7.6-1.5c-6.5,0-12.8,2.9-17.9,5.3c-1.7,0.8-3.3,1.5-4.4,1.9c-4.8,1.7-21.5,10.4-30.6,17.8c-2.3-0.5-4.6-1-6.9-1.5
		l-7.4-3.1c-1.9-2-6.2-6.6-10.3-11.2l-0.9-1c-15.4-16.9-28.8-31.4-35.6-36.9c-3.9-3.1-8.6-6.3-14.8-6.3c-3.4,0-6.7,0.9-10.4,2.8
		c-3.7,2-7.2,4.3-10.5,6.5c-2.6,1.7-5,3.3-7.4,4.7c-2,1.2-4,2.4-6,3.7c-2.9,1.8-5.6,3.6-8.2,4.8c-0.7,0.3-1.5,0.6-2.5,1l-0.4,0.2
		c-5,1.9-9.5,3.9-13,6.4c-5.1-12.5-15.2-38.2-20.3-55.4c-0.8-2.7-2.7-4.9-5.2-6.1c-2.5-1.2-5.5-1.3-8-0.2
		c-15.5,6.3-32.8,19.6-43.9,33.9c-2.7,3.5-5.8,6-9.4,9c-2.8,2.3-5.7,4.7-8.8,7.9c-4.4,4.5-10.6,9.5-13.2,10.6
		c-1.2,0.5-2.3,1.3-3.1,2.2c-82,12-133.3,39.1-151.1,49.9c-1.3,1.5-2.4,3.2-3.2,5c-2,4.4-3,9.3-3.5,14c0,0.4-0.1,0.7-0.3,0.9
		c0.1,0.1,0.2,0.3,0.4,0.4c-1.5,0.5-2.9,1.3-4,2.5c-1.9,2-2.8,4.6-2.7,7.2c-1.3,10.7,7.2,23.1,15.7,26.6c0.9,0.3,1.6,0.7,2.6,1.2
		c1.2,0.6,2.6,1.3,4.5,2.1c8.9,3.5,18.3,5.6,30.6,6.9c1.7,0.2,3.3,0.3,5,0.4c2.1,0.1,4.2,0.2,5.8,0.6c0.4,0.1,1,0.3,1.7,0.5
		c1.7,0.6,4.3,1.4,7.4,1.5c6.9,2.4,13.9,4.7,21,6.8c0.4-0.1,0.9-0.2,1.3-0.1c3.8,1.3,7.8,2.1,11.5,3.6c13,3.4,26.3,6.4,40,8.9
		c1,8.6,5.4,28.8,25.8,37.6c1.2,0.5,2.5,0.8,3.9,0.8c1.7,0,3.3-0.4,4.7-1.2c2.7-1.5,4.5-4,5-7c1.5-9.1,2.4-20.2,2.8-25.1
		c2.9,0.1,5.9,0.1,9,0.1c26.8,0,58.5-3.2,91-8.1c5.8,4.6,25.1,18.6,51.1,24.4l3.1,0.7l2.9-1.3c6.7-2.9,13.4-8.5,20.5-14.4
		c2-1.7,4.1-3.4,6.2-5.1c5.2-4.2,10.6-9.5,14.9-13.7c1.8-1.7,4-3.9,5.5-5.3c0.1-0.4,0.3-0.7,0.5-0.9c1.1-1,2.5-1.7,3.8-2.4
		c1.1-0.6,2.2-1.3,3.3-2c0,0,0.1,0,0.1-0.1c0,0,0,0,0,0c0,0,0,0,0,0c0.2-0.3,0.6-0.5,0.9-0.6l-0.1-0.3c6.3-1.3,12.4-2.7,18.4-4
		c4.4,5.1,15.8,15.5,38.4,20.6l3.1,0.7l2.9-1.3c14.3-6.1,38.6-25.1,46.8-38.1c2.6-0.4,5.1-0.8,7.5-1.2l2.9,1c0.6,0.4,1.6,1,2.5,1.6
		c11.7,7.5,42.8,27.4,77.8,31.4c0.2,0,0.6,0.2,0.9,0.3c1.3,0.5,3.6,1.4,6.6,1.4c2.5,0,4.9-0.7,7.2-2c7.8-4.6,8.4-13,8.6-17l0.1-1.1
		c0.8-10.4,1-72.8,1-73.4c0-0.6,0-1.2,0-1.8C1697.6,448.6,1697.8,437.1,1682.5,436.2z M1382.1,423.1c1.8-1.1,3.4-2.2,5.1-3.1
		c3.1-1.7,5.9-3.6,8.6-5.5c3-2,5.9-3.9,8.8-5.5c0.4-0.2,0.8-0.4,1-0.5c0.4,0.2,1.1,0.7,2.5,1.8c5.3,4.3,17.7,17.7,28,28.9
		c-20.3-4-41.5-7.9-62.4-11.2C1376.6,426.5,1379.4,424.8,1382.1,423.1z M1273.1,415.1c4.1-3.4,8.2-6.8,12.3-12
		c6.6-8.5,16.3-16.9,26.1-22.8c4.8,14.4,11.2,30.7,15.5,41.5c-20.1-2.2-39.3-3.6-56.5-3.6c-0.4,0-0.7,0-1.1,0
		C1270.7,417.1,1271.9,416.1,1273.1,415.1z M1240.1,567.3c-0.7-1.5-1.2-3-1.6-4.4c0,0,0,0,0.1,0c0.6,0.1,1.2,0.1,1.8,0.2
		C1240.4,564.2,1240.3,565.6,1240.1,567.3z M1431.6,545.5c-2.2,1.8-4.4,3.6-6.5,5.4c-4.8,4-9.3,7.7-13,10
		c-8.6-2.3-16.4-5.6-22.7-8.9c14.9-2.6,29.8-5.3,44.3-8.2C1433,544.3,1432.3,545,1431.6,545.5z M1372.5,534.7
		c-0.1,0-0.2,0.1-0.3,0.1c-3.4,0.9-6.9,1.6-10.5,1.6c-0.1,0-0.2,0-0.3-0.1l-0.1,0.1c-33.1,5-65.2,8.5-91.9,8.5
		c-10.6,0-20.1-0.6-28.2-1.7c-12.4-1.7-24.4-3.8-36.3-6.4c12.3-8.9,20.6-21.1,25.9-32.9c1.8,3,5,4.9,8.6,4.9c1.7,0,3.4-0.5,5-1.3
		c0.2-0.1,22.5-12.8,55.7-12.8c7.8,0,15.5,0.7,23.2,2.1c-32.6,27.2-59.6,15.4-60.1,15.1l-3.3-1.5l-19.7,5.6l5.4,19l13.1-3.7
		c4.5,1.4,11.5,3.1,20.6,3.1c17.2,0,43.2-6.1,69.8-35l6.7-7.3l-3.2-2.9c-6.2-4.2-12.9-7.4-19.7-10.5c-10.9-2.5-21.9-3.8-33-3.8
		c-33.3,0-57.3,11.2-63.7,14.6c0.9-3.2,1.6-6.2,2.1-8.9c0-0.1,0-0.3,0-0.4c0.4-2.3,0.6-4.8,0.8-7.2c0.1-1.7,0.1-3.4,0.2-5.1
		c-0.9-0.3-1.7-0.6-2.6-0.8c-1.1-0.3-2-0.7-2.9-1.3c-2.4-0.9-4.7-1.8-7.1-2.6c-8.1-2.7-15.8-6.5-23.9-9.4
		c-1.8,5.4-4.2,10.5-6.2,15.8l4.9,2.2c2.3,1.1,4.9,1.9,7.4,2.7c3.1,1,8,2.6,9.6,4.1c-2.5,12-10.4,36.5-32.8,46.9
		c4-2.7,7.2-5.5,9.9-8.6c3.5-4,5-8.5,6.2-12.3c0.3-1,1-3.1,1.3-3.5l5.9-8l-15.9-11.7l-5.9,8c-2.2,3-3.3,6.3-4.2,9.3
		c-0.6,2-1.4,4.3-2.2,5.2c-2.1,2.4-5,4.7-9,7.1c-0.5,0.3-0.9,0.5-1.4,0.7c-3.6,2.4-7.9,3.8-12.2,4.6c-5,2.6-11,2.8-16.8,2.7
		c-4.8-0.1-9.6-0.5-14.3-1.3c-0.2,0-0.4,0-0.5,0c-0.2,0-0.5,0-0.7-0.1c0.1,0,0.1,0,0.1-0.1c-4.9-0.9-9.7-2.3-14.2-4.3
		c-7.1-3.1-13.6-8.1-16.4-15.6c-1.9-4.9-1.9-11,3.5-12.7c0.4-0.8,1.1-1.3,2-1.4c21.2-11.8,68.9-34.2,142.1-44.2
		c8.1-1.1,17.5-1.6,28.2-1.6c60.3,0,147.9,17.4,213.1,31.6c0.3,0,0.7-0.1,1-0.1c0.5,0,1,0.1,1.4,0.2c0.5,0.1,0.9,0.3,1.3,0.5
		c0.1,0.1,0.2,0.1,0.3,0.2c10.3,2.2,20,4.4,28.8,6.4c11.7,2.6,21.7,4.8,29.7,6.5c-2,1.7-3.4,4.3-3.5,7.2c-0.1,2.6,0.9,5.1,2.7,7.1
		c0.6,0.6,1.3,1.1,2,1.6c-8.4,1.7-19.2,4.1-32,7l-0.6,0.1C1477.2,514.6,1424.2,526.4,1372.5,534.7z M1530.7,532.2
		c-6.3-1.7-11.1-3.8-14.9-5.9c1.2-0.3,2.5-0.6,3.7-0.8c12-2.7,22.6-5,30.8-6.7C1543.7,524.1,1536.5,529.2,1530.7,532.2z
		 M1520.9,457.4c-3.9-0.9-8-1.8-12.2-2.7c4.6-2.6,8.6-4.6,10-5.1c2-0.7,4.1-1.7,6.3-2.7c1.9-0.9,6.6-3.1,8.8-3.4
		c3.8,3.6,13.5,14.6,19.1,20.9C1544.5,462.6,1533.5,460.2,1520.9,457.4z M1591.6,492.2l-1-0.3l-0.2,0.5c-5.1,0.9-10.5,1.7-16.2,2.5
		c-0.1,0.1-0.3,0.2-0.4,0.3c-0.3,0.1-0.6,0.2-0.9,0.2h-2.7c0,0-0.1,0-0.1,0l-0.1,0.1c-2.4,0.3-4.9,0.6-7.4,1c-0.5,0.1-1,0.1-1.6,0.2
		c1.2-1.6,1.9-3.5,1.9-5.6c0.1-1.8-0.4-3.4-1.2-4.9c0.8,0.1,1.6,0.2,2.3,0.3c4.1,0.5,8,1,11.7,1.5l0.8,0.7l0.5-0.5
		c7.1,1,13.6,2,19.7,3.1C1595,491.6,1593.3,491.9,1591.6,492.2z M1676.8,526.6l0,0.5c-0.4-0.1-0.8-0.1-1.2-0.2
		c-21.7-2.5-42.2-12.3-56.1-20.2c5.9-1.4,11.5-2.9,17.1-4.6c2.5-0.8,4.6-2.4,5.9-4.8c0.1-0.2,0.2-0.5,0.3-0.7c0.8-1,1.5-2.2,1.9-3.5
		c0.8-2.5,0.5-5.2-0.8-7.5c-1.3-2.3-3.3-4-5.9-4.8c-7.5-2.3-15-4.2-23.1-6c10.1-6.1,28.1-14.8,54.1-19.1c2-0.3,5.3-0.3,8.6-0.1
		C1677.7,474.4,1677.4,519.2,1676.8,526.6z"/>
	<path class="st0" d="M1149.4,486.1c1.6,0.9,3.3,1.4,5,1.4l0.3,0c5.1-0.2,9.3-4.4,9.5-9.5c0-0.8,0-2.7-0.2-3.5
		c-0.9-4.7-4.9-9.1-9.6-9.1h-0.5c-5,0-9.2,4.9-9.8,9.9C1143.7,479.3,1145.8,484.2,1149.4,486.1z"/>
</g>
<g>
	<path class="st0" d="M1070.7,202.5c0,0.6,0,1.1,0,1.8c0,0.6,0.2,63,1,73.4l0.1,1.1c0.3,4,0.8,12.4,8.6,17c2.3,1.3,4.7,2,7.2,2
		c2.9,0,5.3-0.9,6.6-1.4c0.3-0.1,0.7-0.3,0.9-0.3c35-4,66.1-23.9,77.8-31.4c0.9-0.6,1.9-1.2,2.5-1.6l2.9-1c2.4,0.4,4.9,0.8,7.5,1.2
		c8.2,13,32.5,32,46.8,38.1l2.9,1.3l3.1-0.7c22.6-5,34-15.4,38.4-20.6c5.9,1.3,12.1,2.6,18.4,4l-0.1,0.3c0.3,0.1,0.7,0.3,0.9,0.6
		c0,0,0,0,0,0c0,0,0,0,0,0c0,0,0.1,0.1,0.1,0.1c1,0.7,2.2,1.4,3.3,2c1.3,0.7,2.6,1.5,3.8,2.4c0.3,0.2,0.4,0.5,0.5,0.9
		c1.5,1.3,3.7,3.5,5.5,5.3c4.3,4.2,9.6,9.5,14.9,13.7c2.1,1.7,4.2,3.4,6.2,5.1c7.1,5.9,13.8,11.5,20.5,14.4l2.9,1.3l3.1-0.7
		c26-5.8,45.2-19.8,51.1-24.4c32.6,4.8,64.2,8.1,91,8.1c3.1,0,6.1,0,9-0.1c0.4,5,1.3,16,2.8,25.1c0.5,3,2.3,5.6,5,7
		c1.4,0.8,3.1,1.2,4.7,1.2c1.3,0,2.7-0.3,3.9-0.8c20.4-8.8,24.8-29,25.8-37.6c13.7-2.4,27-5.4,40-8.9c3.7-1.5,7.7-2.3,11.5-3.6
		c0.4-0.1,0.8-0.1,1.3,0.1c7.1-2.1,14.2-4.4,21-6.8c3.1,0,5.7-0.9,7.4-1.5c0.7-0.2,1.3-0.4,1.7-0.5c1.6-0.3,3.7-0.5,5.8-0.6
		c1.7-0.1,3.3-0.2,5-0.4c12.3-1.3,21.7-3.4,30.6-6.9c1.8-0.7,3.2-1.5,4.5-2.1c1-0.5,1.7-0.9,2.6-1.2c8.5-3.5,17-15.8,15.7-26.6
		c0.1-2.6-0.8-5.2-2.7-7.2c-1.1-1.2-2.5-2-4-2.5c0.1-0.1,0.2-0.3,0.4-0.4c-0.1-0.3-0.3-0.6-0.3-0.9c-0.5-4.8-1.5-9.7-3.5-14
		c-0.8-1.8-2-3.5-3.2-5c-17.8-10.8-69.1-37.9-151.1-49.9c-0.9-0.9-1.9-1.7-3.1-2.2c-2.6-1.1-8.8-6.1-13.2-10.6c-3-3.1-6-5.5-8.8-7.9
		c-3.6-3-6.7-5.5-9.4-9c-11.1-14.3-28.3-27.6-43.9-33.9c-2.6-1-5.5-1-8,0.2c-2.5,1.2-4.4,3.4-5.2,6.1c-5.1,17.2-15.2,42.9-20.3,55.4
		c-3.6-2.5-8.1-4.4-13-6.4l-0.4-0.2c-1-0.4-1.9-0.7-2.5-1c-2.6-1.2-5.4-2.9-8.2-4.8c-2-1.3-3.9-2.5-6-3.7c-2.4-1.4-4.9-3-7.4-4.7
		c-3.4-2.2-6.8-4.5-10.5-6.5c-3.6-1.9-7-2.8-10.4-2.8c-6.2,0-10.9,3.2-14.8,6.3c-6.9,5.6-20.2,20-35.6,36.9l-0.9,1
		c-4.1,4.5-8.4,9.2-10.3,11.2l-7.4,3.1c-2.3,0.5-4.6,1-6.9,1.5c-9.2-7.4-25.8-16.2-30.6-17.8c-1.1-0.4-2.7-1.1-4.4-1.9
		c-5.1-2.4-11.4-5.3-17.9-5.3c-2.7,0-5.3,0.5-7.6,1.5c-3.5,1.5-7.2,5.2-25.9,26.3c-5.6,6.3-12.5,14.1-14.4,15.8l-2.1,1.9
		c-1.6,0.2-3.1,0.5-4.6,0.7c-3.1-3.7-8.9-8.5-20.2-14.7c-11.4-6.3-30.6-14.8-56.7-19.1c-2.1-0.3-4.4-0.5-7-0.5
		c-2.7,0-5.3,0.2-7.7,0.3l-1.9,0.1C1070.4,186.7,1070.6,198.2,1070.7,202.5z M1394.6,177.7c-21,3.3-42.1,7.2-62.4,11.2
		c10.2-11.2,22.7-24.6,28-28.9c1.4-1.1,2.1-1.6,2.5-1.8c0.2,0.1,0.6,0.2,1,0.5c2.9,1.5,5.7,3.4,8.8,5.5c2.7,1.8,5.6,3.7,8.6,5.5
		c1.6,0.9,3.3,2,5.1,3.1C1388.9,174.4,1391.6,176.2,1394.6,177.7z M1498.8,167.8c-0.4,0-0.7,0-1.1,0c-17.2,0-36.4,1.3-56.5,3.6
		c4.4-10.9,10.7-27.1,15.5-41.5c9.8,5.9,19.5,14.3,26.1,22.8c4,5.2,8.2,8.7,12.3,12C1496.4,165.7,1497.6,166.8,1498.8,167.8z
		 M1527.8,312.7c0.6-0.1,1.2-0.1,1.8-0.2c0,0,0,0,0.1,0c-0.4,1.4-0.9,2.9-1.6,4.4C1528,315.2,1527.9,313.8,1527.8,312.7z
		 M1334.6,293.4c14.5,2.9,29.4,5.6,44.3,8.2c-6.3,3.3-14.1,6.6-22.7,8.9c-3.7-2.3-8.2-6-13-10c-2.1-1.8-4.3-3.6-6.5-5.4
		C1336,294.6,1335.3,294,1334.6,293.4z M1253.1,255.8l-0.6-0.1c-12.8-2.8-23.7-5.3-32-7c0.7-0.4,1.4-1,2-1.6
		c1.8-1.9,2.8-4.4,2.7-7.1c-0.1-2.9-1.4-5.5-3.5-7.2c8-1.7,18-3.9,29.7-6.5c8.9-2,18.6-4.1,28.8-6.4c0.1-0.1,0.2-0.2,0.3-0.2
		c0.4-0.2,0.9-0.4,1.3-0.5c0.5-0.1,1-0.2,1.4-0.2c0.3,0,0.7,0,1,0.1c65.2-14.2,152.8-31.6,213.1-31.6c10.6,0,20.1,0.5,28.2,1.6
		c73.1,10.1,120.9,32.4,142.1,44.2c0.9,0,1.6,0.6,2,1.4c5.4,1.6,5.4,7.8,3.5,12.7c-2.8,7.5-9.3,12.4-16.4,15.6
		c-4.5,2-9.3,3.4-14.2,4.3c0.1,0,0.1,0,0.1,0.1c-0.2,0-0.5,0-0.7,0.1c-0.2,0-0.4,0-0.5,0c-4.7,0.8-9.6,1.2-14.3,1.3
		c-5.8,0.1-11.8-0.1-16.8-2.7c-4.3-0.9-8.6-2.3-12.2-4.6c-0.5-0.2-0.9-0.4-1.4-0.7c-4-2.4-6.8-4.7-9-7.1c-0.8-0.9-1.5-3.2-2.2-5.2
		c-0.9-2.9-2-6.3-4.2-9.3l-5.9-8l-15.9,11.7l5.9,8c0.3,0.4,1,2.5,1.3,3.5c1.2,3.7,2.7,8.3,6.2,12.3c2.7,3.1,5.9,5.9,9.9,8.6
		c-22.5-10.4-30.3-35-32.8-46.9c1.6-1.6,6.6-3.1,9.6-4.1c2.5-0.8,5.1-1.6,7.4-2.7l4.9-2.2c-2-5.3-4.4-10.4-6.2-15.8
		c-8.1,2.9-15.8,6.6-23.9,9.4c-2.4,0.8-4.8,1.7-7.1,2.6c-0.9,0.6-1.9,1-2.9,1.3c-0.9,0.3-1.7,0.5-2.6,0.8c0,1.7,0.1,3.4,0.2,5.1
		c0.2,2.5,0.4,4.9,0.8,7.2c0,0.1,0,0.3,0,0.4c0.5,2.7,1.1,5.7,2.1,8.9c-6.4-3.4-30.4-14.6-63.7-14.6c-11,0-22.1,1.4-33,3.8
		c-6.8,3.1-13.5,6.3-19.7,10.5l-3.2,2.9l6.7,7.3c26.5,28.9,52.6,35,69.8,35c9.1,0,16.2-1.6,20.6-3.1l13.1,3.7l5.4-19l-19.7-5.6
		l-3.3,1.5c-0.5,0.2-27.5,12-60.1-15.1c7.7-1.4,15.4-2.1,23.2-2.1c33.2,0,55.5,12.7,55.7,12.8c1.5,0.9,3.2,1.3,5,1.3
		c3.5,0,6.8-1.9,8.6-4.9c5.3,11.7,13.6,23.9,25.9,32.9c-11.8,2.5-23.9,4.7-36.3,6.4c-8.1,1.1-17.5,1.7-28.2,1.7
		c-26.7,0-58.8-3.4-91.9-8.5l-0.1-0.1c-0.1,0-0.2,0.1-0.3,0.1c-3.5,0-7.1-0.7-10.5-1.6c-0.1,0-0.2-0.1-0.3-0.1
		C1344.1,276,1291.1,264.3,1253.1,255.8z M1218,268.4c8.2,1.7,18.8,4.1,30.8,6.7c1.2,0.3,2.5,0.5,3.7,0.8c-3.7,2.1-8.6,4.2-14.9,5.9
		C1231.8,278.8,1224.5,273.7,1218,268.4z M1215.4,214c5.6-6.3,15.3-17.3,19.1-20.9c2.2,0.3,6.9,2.5,8.8,3.4c2.2,1,4.3,2,6.3,2.7
		c1.4,0.5,5.5,2.5,10,5.1c-4.2,0.9-8.3,1.8-12.2,2.7C1234.8,209.8,1223.8,212.2,1215.4,214z M1171.7,240.9
		c6.1-1.1,12.6-2.1,19.7-3.1l0.5,0.5l0.8-0.7c3.7-0.5,7.6-1,11.7-1.5c0.7-0.1,1.4-0.2,2.3-0.3c-0.8,1.5-1.2,3.2-1.2,4.9
		c0.1,2.1,0.8,4,1.9,5.6c-0.6-0.1-1.1-0.2-1.6-0.2c-2.5-0.3-5-0.6-7.4-1l-0.1-0.1c0,0-0.1,0-0.1,0h-2.7c-0.3,0-0.6-0.1-0.9-0.2
		c-0.2-0.1-0.3-0.2-0.4-0.3c-5.7-0.8-11.1-1.6-16.2-2.5l-0.2-0.5l-1,0.3C1175,241.5,1173.3,241.2,1171.7,240.9z M1090.5,205.3
		c3.3-0.2,6.6-0.3,8.6,0.1c26,4.3,44.1,13,54.1,19.1c-8.1,1.8-15.6,3.7-23.1,6c-2.5,0.8-4.6,2.5-5.9,4.8c-1.2,2.3-1.5,5-0.8,7.5
		c0.4,1.3,1.1,2.5,1.9,3.5c0.1,0.2,0.2,0.5,0.3,0.7c1.2,2.3,3.3,4,5.9,4.8c5.6,1.7,11.3,3.2,17.1,4.6c-13.9,7.9-34.4,17.7-56.1,20.2
		c-0.4,0-0.8,0.1-1.2,0.2l0-0.5C1090.9,268.8,1090.5,224,1090.5,205.3z"/>
	<path class="st0" d="M1618.9,235.7c-1.6,0.9-3.3,1.4-5,1.4l-0.3,0c-5.1-0.2-9.3-4.4-9.5-9.5c0-0.8,0-2.7,0.2-3.5
		c0.9-4.7,4.9-9.1,9.6-9.1h0.5c5,0,9.2,4.9,9.8,9.9C1624.5,228.9,1622.5,233.9,1618.9,235.7z"/>
</g>
<g>
	<path class="st0" d="M1656.8,956.8c-0.5-0.6-1.1-1.1-1.8-1.6l0,0c-6.6-9.4-14.5-17.2-23.6-22.9l-0.1-0.1
		c-18.9-20.3-42.3-29.7-73.5-29.7c-21.9,0-44.8,4.5-69,9.2c-29.4,5.7-59.9,11.7-92.1,11c-38.5-0.9-75.4-7.6-80.5-14.7
		c-0.9-1.2-2.1-2.2-3.5-2.9l-0.3-0.5c-0.2-0.3-0.4-0.7-0.6-1c4-5.1,7.1-10.5,9.3-16.2c7.7-19.6,5.2-42.1-7.2-66.8
		c-1.6-3.3-5.3-5.4-9.1-5.4c-1.3,0-2.5,0.2-3.7,0.7c-4.8,2-7.2,7.5-5.5,12.4c5.2,15-9.7,27.9-23.6,36.3c-11.7-6-24.2-9-37.4-9
		c-14.3,0-28.8,3.8-42,10.9c-4.2,2.3-8.2,4.9-12,7.8c-0.1,0-0.3-0.1-0.4-0.1c-22.4-5-33.7-14-33.7-26.8c0-5.2-4.1-9.6-9.4-10l-0.6,0
		c-4.9,0-9.2,3.7-9.8,8.6c-5.9,42.8,10.7,65,26.3,76.3c0,0.4-0.1,0.9-0.1,1.3c-1.1,51-25.7,79.8-25.9,80c-2.1,2.3-3,5.6-2.4,8.7
		c0.2,1.1,5.9,27.7,27.2,35.4c0.4,0.1,0.7,0.2,1,0.3l0,0c9.3,5.2,18.8,7.8,28.2,7.8c3.1,0,6.1-0.3,8.9-0.8
		c12.2-2.2,23.3-8.9,32.2-19.5c12.7,4.2,26.5,3.7,39.4-1.3c14.2-5.5,27.1-16.7,31.2-27.3c2-5.1-0.5-10.9-5.6-12.9
		c-1.1-0.4-2.3-0.7-3.5-0.7c-4.1,0-8,2.6-9.5,6.3c-1.3,3.4-8.6,11.6-19.9,16c-10.4,4-21.4,3.6-31.2-1.2c-1.3-0.6-2.7-0.9-4.2-0.9
		c-3.4,0-6.7,1.7-8.5,4.3c-6.6,9.9-14.9,15.9-24.1,17.6c-1.7,0.3-3.4,0.5-5.2,0.5c-8,0-16.5-3.1-24.6-8.9c-1.1-0.8-2.3-1.4-3.7-1.7
		c-4-3.8-6.3-9.2-7.6-12.8c2.3-3.1,6.2-8.9,10.3-17l1.3-2.6c6.9-14.2,15.2-37.7,15.9-68.9c0.3-14.8,11.8-30.5,29.3-40
		c10.1-5.5,21.4-8.4,32.7-8.4c4.1,0,8.1,0.4,12,1.1c-3.7,2.5-5.4,7.2-3.9,11.5c1.4,3.9,5.3,6.7,9.5,6.7c1.1,0,2.2-0.2,3-0.5
		c0.1,0,8.3-2.8,18.6-8.2l0,0c2.6-0.3,4.9-1.6,6.4-3.5l0,0c3-1.7,5.9-3.6,8.8-5.6c6.5-4.6,12-9.4,16.2-14.5c0.1,6.2-0.8,12-2.9,17.3
		c-7.8,20.3-29.2,28.8-29.5,28.9c-5.1,1.9-7.7,7.7-5.8,12.8c1.5,3.8,5.2,6.4,9.4,6.4c1.2,0,2.3-0.2,3.4-0.6c0.1,0,7.7-2.8,16.9-9.6
		c0.6,1,1.4,2,2.5,3c2,1.8,4.3,3.4,7.4,5.1c4.2,2.3,8.7,4.4,13.5,6.2c7.9,2.8,16.7,4.9,27.9,6.6c14.4,2.2,30,3.4,47.7,3.8
		c34.3,0.8,67.2-5.6,96-11.2l0.2,0c0.1,0,0.1,0,0.2,0c0.1,0,0.1,0,0.2,0c23.5-4.6,45.8-8.9,65.2-8.9c25.5,0,44.4,7.7,59.5,24.3
		c0.6,0.7,1.4,1.3,2.1,1.8c38.3,23.9,40,81.5,34.6,125.7c-6,49.2-21.6,92.7-21.7,93.1c-0.5,1.5-0.7,3-0.5,4.5
		c3.5,32.2,6.9,88.3,0.9,101.6c-0.2,0.5-0.4,1-0.6,1.6c-3.2,0.7-7.9,1.1-13.3,1.1c-3.2,0-6.3-0.1-8.9-0.4
		c3.6-13.8,3.9-28.5,4.2-40.4c0-1.1,0.1-2.3,0.1-3.5c0.2-4.3,0.5-8.8-0.8-13c-0.5-1.7-1.1-3.2-1.7-4.7c-1.4-3.4-2.6-6.4-1.6-10.2
		c1.5-5.8-0.2-8.5-4.3-12.2l-1.4-1.3c-3.7-3.3-7.4-6.6-10.8-10.2c-6.6-6.9-11.9-14.1-15.8-21.3c-5.7-10.5-8.7-22-9-34.2
		c-0.1-2.7,0-5.4,0.1-8c0.2-7.5,0.4-14.6-5.3-19.2c-3.1-2.6-8.4-2.9-11.7-0.7c-2,1.3-4.6,3.2-7.3,5.1l-0.4,0.3
		c-18.4,13.1-56.8,40.2-95.9,40.2c-14.6,0-28.2-3.8-40.3-11.2c-2.9-1.8-6.9-1.9-9.9-0.3c-3.1,1.6-5.1,4.8-5.3,8.4l-5.8,131.9
		c-3.4,0.5-7.9,1-12.6,1c-3.5,0-6.4-0.3-8.8-0.8c3.3-38.4-7.3-64.1-11.1-72c0.7-9.2,1.5-38.4-14.5-60.6c-1.8-2.5-5-4.1-8.3-4.1
		c-1.5,0-3,0.3-4.3,1c-0.2,0.1-16.5,8.2-34.6,8.2c-9.3,0-17.4-2.2-24.1-6.5c-18.8-12.1-27.4-41.1-25.6-86.4c0.1-2.8-0.9-5.5-2.9-7.6
		c-1.9-1.9-4.3-3-6.8-3c-5.5,0-10,4.3-10.2,9.8c-2.1,52.8,9.6,87.7,34.7,103.8c4.9,3.2,10.1,5.5,15.8,7.1c0.5,1.7,1.3,3.2,2.6,4.4
		c13.4,13.4,16.5,27.6,19.3,40.1c1.6,7.4,3,13.8,6.1,19.1l0,0c0.1,0.4,0.3,1.1,0.6,2.1c2,6.6,8.2,26.4,1.1,37.4
		c-2.1,2.5-3.1,5.6-2.6,8.6c0.4,2.4,1.9,6.9,8.4,9.3c6.6,2.5,14.5,3.7,23.9,3.7c5.6,0,10.7-0.5,14.9-1.3c0.2,0.3,0.5,0.5,0.8,0.7
		c5.9,4.5,14.6,6.8,25.9,6.8c11.1,0,21.3-2.2,24.1-2.9c4.3-1,7.5-4.8,7.7-9.3l5.4-124.5c21.8,8.7,47.1,8.9,73.8,0.5
		c0.1,1,0.3,1.9,0.7,2.8l0.3,0.7l-10.9,11.2c-3.8,3.9-3.8,10.2,0.2,14.1c1.7,1.7,4.3,2.7,7,2.7c2.8,0,5.4-1,7.1-2.8l7.7-7.9
		c5.7,6.2,12.5,11.1,20.4,14.4l-5.6,9.3c-1.4,2.3-1.8,5-1.1,7.6c0.7,2.6,2.3,4.8,4.6,6.1c1.4,0.8,3.1,1.3,4.9,1.3
		c3.6,0,7-1.8,8.7-4.6l8.2-12.6c0.5,0.5,1.2,1,2,1.3c0.1,0.1,0.3,0.7,0.4,0.8c0.7,0.7,2.1,2.6,4.3,2.6h0.9c12,0,25.5-6.9,31.2-10
		c4.6,5,10.3,9.9,18.9,16.9c-0.9,1.6-1.3,3.1-1.3,4.8c0.4,16.7-0.5,46.3-4.2,58.4c-1-0.3-1.9-0.5-2.9-0.5
		c-8.4,0.2-11.7-0.2-16.1-0.7c0.2-1,0.3-2,0.5-2.9c1.3-7.4,3.1-17.5,1.9-30.9c3.2-1.7,5.3-5,5.3-8.7c0-5.1-4-9.4-9-9.8
		c-0.8-1.4-1.9-2.5-3.2-3.4c-3.2-2.1-5.9-4.8-7.8-8c-1.8-2.9-5.1-4.8-8.7-4.8c-1.8,0-3.5,0.5-5,1.4c-2.3,1.4-3.9,3.5-4.6,6.1
		c-0.7,2.6-0.3,5.3,1.1,7.5c2.8,4.7,6.4,8.7,10.7,12.1c3.2,15.5,1.2,26.8-0.3,35c-1.2,6.4-2.2,12-0.1,17.3c0.2,0.6,0.3,1.2,0.5,1.8
		c1.1,5.7,3.8,7.9,27.9,7.9c2.3,0,4.7,0,7.3-0.1c2,0,3.6-0.6,4.8-1.3c4.5,3.1,14.1,5.1,25.6,5.1c14.6,0,26.3-2.9,31.2-7.9
		c2.4-2.4,3.4-6,2.7-9.3c8.2-24.1,1.6-92.2,0-107.1c4.8-13.9,22.3-67.8,24.2-122.7c0.8,1.8,2.1,3.5,4,4.5c1.4,0.8,2.9,1.2,4.5,1.2
		c3.3,0,6.6-1.8,8.2-4.6c10.4-18.2,5.1-44.9-5.6-61.8c-5.7-9-12.6-15-19.4-20.9C1663.9,963.9,1660.1,960.5,1656.8,956.8z
		 M1164.9,890.5c-2.4,3.3-4.5,6.8-6.2,10.3c-4.7-4.9-8.2-10.9-10.4-17.8C1153.1,885.9,1158.7,888.4,1164.9,890.5z M1545.9,1176.4
		c-3.7,0-7.3-0.3-10.8-1c-14.3-2.8-24.3-11-30-24.4c-0.3-0.7-0.6-1.3-1-1.9c17.8-7.8,33.2-17.7,45.1-26c0.1,13.5,2.4,30.9,14.6,50.5
		C1560.3,1174.7,1554,1176.4,1545.9,1176.4z M1336,1206.4c0.5,0.9,12.4,21.8,10.4,58.3c-1.1,0.5-4.1,1.3-12,1.3
		c-4.2,0-5.8-0.2-8.7-0.7c-0.2,0-0.3,0-0.5-0.1c5.5-17.2-1.2-37.7-3.4-44.6c-0.3-0.9-0.5-1.6-0.6-1.9c-0.3-1.1-0.8-2.2-1.4-3.2
		c-1.9-2.9-3.1-8.3-4.4-14.1c-2.4-10.9-5.3-24.2-14.8-38c11.5-1,21.6-4.2,27.5-6.3c9,18.2,6.8,40.4,6.6,42.8
		C1334.4,1202.2,1334.8,1204.5,1336,1206.4z M1676.4,1041.6c0.1-13.9-0.9-27.8-3.4-41c6.5,12,9.7,29.9,3.8,40.3
		C1676.7,1041.1,1676.5,1041.3,1676.4,1041.6z"/>
</g>
<g>
	<path class="st0" d="M1735.5,1514.6c-5.5-8.8-12.3-14.6-18.8-20.3c-3.8-3.3-7.5-6.5-10.5-10c-0.5-0.6-1.1-1.1-1.8-1.6
		c-6.4-9.1-14-16.6-22.6-22c-18.4-19.7-41.1-28.9-71.4-28.9c-21.1,0-43.1,4.3-66.4,8.8c-28.1,5.5-57.2,11.2-88,10.5
		c-39.8-0.9-72.1-7.9-76.2-13.6c-0.9-1.2-2.1-2.3-3.4-3l-0.2-0.3l0.3-0.4l-1-0.8c-1.1-0.9-2.1-1.8-3.2-2.7c-0.7-0.7-1.5-1.3-2.3-2
		l-1.5-1c-0.5-0.3-1-0.7-1.5-1.1c-0.1-0.2-0.2-0.4-0.4-0.5c-5.7-6.8-11.1-13.9-16.3-21.1c-0.4-0.6-1.3-0.9-2.2-1.1
		c-3.2-3.1-6.6-6.1-10.4-8.4l-0.7-0.4l-0.7,0.4c-11.2-5.6-23.2-8.4-35.8-8.4c-13.9,0-28.1,3.7-40.8,10.6c-3.6,2-7.1,4.2-10.8,6.9
		c-5.2,4.9-9.9,10.3-14.5,15.6c-1.6,1.8-3.1,3.6-4.7,5.4l-0.4,0.5c-0.7,1.2-1.4,2.4-2,3.5l-0.2-0.2l-0.9,1.4
		c-0.1,0.2-0.3,0.4-0.5,0.6l-0.4,0.8c-0.1,0.4-0.2,0.7-0.3,1.4c-0.3,1.4-0.7,2.8-1.2,4.2l-0.5,1.5c-0.5,3.9-1.1,8.1-2.2,12.2
		l-0.3,1.3l0.2,0.1c0,0.2,0,0.4,0,0.6c-1,48.2-24.3,75.6-24.5,75.9c-2.3,2.5-3.3,6.1-2.6,9.4c0.2,1.1,5.9,27.3,26.8,34.9
		c0.3,0.1,0.7,0.2,0.9,0.3c9,5,18.3,7.5,27.5,7.5c3,0,6-0.3,8.8-0.8c11.7-2.1,22.4-8.5,31.1-18.5c12.1,3.8,25.5,3.3,37.8-1.5
		c13.9-5.4,26.5-16.5,30.7-26.9c2.2-5.5-0.5-11.8-6.1-14l0,0c-1.2-0.5-2.5-0.7-3.8-0.7c-4.4,0-8.7,2.8-10.3,6.8
		c-1.2,3-8,10.6-18.3,14.6c-9.6,3.7-19.8,3.3-28.9-1.1c-1.4-0.7-3-1-4.6-1c-3.7,0-7.2,1.8-9.2,4.7c-6.1,9.2-13.8,14.8-22.3,16.3
		c-1.5,0.3-3.1,0.4-4.7,0.4c-7.4,0-15.3-2.9-22.8-8.2c-1.1-0.8-2.3-1.4-3.7-1.7c-3.2-3.2-5.3-7.6-6.5-10.9c2.4-3.4,5.9-8.7,9.6-15.9
		l1.2-2.5c6.7-13.8,14.7-36.5,15.4-66.6c0.3-13.8,11.1-28.4,27.4-37.2c12.1-6.6,26.4-9.2,39.5-7.2c-0.8,0.9-1.5,2-1.9,3.2
		c-11.2,13-22.1,29-14.4,41.1c2.1,3.3,7.9,9.1,22.8,9.1c6.3,0,14.2-1.1,24.1-3.8c0.3,0,0.6,0.1,0.9,0.1c1.3,0,2.6-0.2,3.7-0.6
		c0.1,0,7-2.6,15.5-8.7c0.6,0.7,1.2,1.4,1.9,2c2,1.8,4.3,3.4,7.3,5.1c4.1,2.3,8.5,4.3,13.2,6c7.6,2.7,16.2,4.8,27,6.4
		c13.8,2.1,28.8,3.3,45.9,3.7c33,0.8,64.5-5.4,92.6-10.8l0,0l0.3,0c22.5-4.4,43.8-8.5,62.2-8.5c24.1,0,41.9,7.3,56.1,22.9
		c0.7,0.8,1.5,1.4,2.3,1.9c36.2,22.5,37.7,77.3,32.6,119.2c-5.7,46.7-20.6,88.6-20.8,89c-0.6,1.6-0.7,3.2-0.6,4.8
		c3.4,30.8,6.6,84.2,0.9,96.7c-0.1,0.3-0.3,0.6-0.4,0.9c-3,0.6-7.1,0.9-11.7,0.9c-2.5,0-4.8-0.1-7-0.3c3.1-13,3.4-26.6,3.7-37.6
		c0-0.9,0.1-1.9,0.1-2.9l0-0.4c0.2-4.2,0.4-8.6-0.8-12.9c-0.5-1.7-1.1-3.3-1.7-4.6c-1.3-3.2-2.3-5.7-1.5-9c1.6-6.1-0.4-9.3-4.5-12.9
		l-1.4-1.2c-3.3-2.9-7-6.3-10.3-9.7c-6.2-6.6-11.2-13.3-14.9-20.2c-5.3-9.9-8.2-20.7-8.5-32.2c-0.1-2.5,0-5.2,0-7.6
		c0.2-7.2,0.4-14.6-5.5-19.4c-3.4-2.8-9-3.2-12.8-0.7c-2,1.3-4.5,3.1-7.1,4.9l-0.4,0.3c-17.6,12.4-54.1,38.3-91.2,38.3
		c-13.7,0-26.5-3.6-38-10.6c-3.1-1.9-7.5-2.1-10.7-0.3c-3.4,1.8-5.6,5.3-5.8,9.1l-5.5,125.4c-2.9,0.4-6.8,0.8-10.8,0.8
		c-2.7,0-5.1-0.2-7-0.5c2.9-36.4-7.3-61-10.8-68.2c0.6-8.8,1.3-37.1-14.1-58.5c-2-2.8-5.4-4.5-9-4.5c-1.7,0-3.3,0.4-4.7,1.1
		c-0.6,0.3-15.9,7.7-32.6,7.7c-8.7,0-16.2-2-22.4-6c-17.6-11.3-25.6-38.8-23.9-81.7c0.1-3-1-6-3.1-8.2c-2-2.1-4.7-3.2-7.5-3.2
		c-6,0-10.8,4.6-11,10.6c-2,51.1,9.4,84.9,33.8,100.6c4.6,3,9.5,5.2,14.9,6.8c0.5,1.6,1.4,3,2.6,4.1c12.6,12.6,15.5,26,18.2,37.9
		c1.6,7.2,2.9,13.4,5.9,18.3c0.1,0.4,0.3,1.1,0.6,2c1.9,6.1,7.7,24.8,1.3,34.7c-2.3,2.7-3.3,6-2.8,9.3c0.4,2.6,2.1,7.4,8.8,9.9
		c6.5,2.5,14.2,3.6,23.4,3.6c5.1,0,9.9-0.4,13.9-1.2c0.1,0.1,0.2,0.2,0.3,0.3c5.9,4.5,14.5,6.8,25.6,6.8c10.8,0,20.6-2.1,23.4-2.8
		c4.7-1.1,8.1-5.2,8.3-10.1l5.1-117.6c20.4,7.7,44,7.8,68.5,0.3c0.1,0.5,0.3,0.9,0.5,1.4l-9.9,10.1c-4.2,4.3-4.1,11.1,0.2,15.3
		c1.9,1.9,4.7,2.9,7.6,2.9c3,0,5.8-1.1,7.7-3.1l6.5-6.6c5,5.3,11,9.5,17.8,12.6l-4.6,7.7c-1.5,2.5-1.9,5.4-1.2,8.2
		c0.7,2.8,2.5,5.2,5,6.6c1.6,0.9,3.4,1.4,5.3,1.4c3.9,0,7.6-2,9.4-5l7.1-10.9c0.2,0.1,0.4,0.2,0.6,0.4c0.1,0.2,0.2,0.5,0.4,0.7
		l0.3,0.3c0.7,0.8,1.9,2.1,3.7,2.5c-2,1.5-3.4,3.6-4,6c-0.7,2.8-0.3,5.7,1.2,8.2c2.7,4.5,6.1,8.4,10.2,11.6
		c2.9,14.4,1,24.9-0.4,32.6c-1.1,6.3-2.1,11.8,0,17.3c0.2,0.5,0.3,1,0.4,1.5c1.2,6.7,5.1,8.6,28,8.6c2.2,0,4.5,0,7-0.1
		c1.6,0,3.1-0.4,4.5-1.1c4.7,2.9,13.8,4.7,24.6,4.7c14.3,0,25.8-3,30.8-7.9c2.5-2.6,3.6-6.2,3-9.7c7.7-23.6,1.4-88.9,0-102.6
		c5-14.4,20.6-63.2,23-113.9c0.6,0.6,1.3,1.1,2.1,1.6c1.5,0.9,3.2,1.3,5,1.3c3.7,0,7.2-2,8.9-5.1
		C1751.1,1557.4,1745.9,1531.2,1735.5,1514.6z M1725.2,1560c-0.1-7.9-0.7-15.4-1.6-22.5C1726,1545,1726.9,1553.3,1725.2,1560z
		 M1640.5,1786.6c-0.7-0.1-1.3-0.2-1.9-0.2h0c-7.1,0.1-10.3-0.1-13.9-0.5c0.1-0.5,0.2-1,0.3-1.5c1.3-7,3-16.5,1.9-29.2
		c3.1-1.9,5-5.3,5-9c0-5.3-4-9.8-9.2-10.6c-0.8-1.3-1.9-2.3-3.1-3.1c-2.9-1.9-5.3-4.3-7.1-7.3c-1.1-1.8-2.7-3.2-4.6-4.1
		c6-1.4,12.9-4.1,20.4-8.1c4.4,4.7,9.7,9.3,16.8,14.9c-0.6,1.4-0.9,2.8-0.9,4.3C1644.5,1747,1643.7,1774.4,1640.5,1786.6z
		 M1598.8,1694.4c-3.4,0-6.8-0.3-10.1-1c-13.2-2.6-22.6-10.2-27.8-22.6c-0.1-0.2-0.2-0.5-0.3-0.7c16.3-7.3,30.4-16.4,40.2-23.1
		c0.3,11.2,2.4,27.2,13.3,45.3C1610.4,1693.3,1605.2,1694.4,1598.8,1694.4z M1396.5,1725.1c0.5,0.8,11.5,20.3,9.8,54.4
		c-1.3,0.4-4.3,0.9-10.3,0.9c-3.4,0-5-0.2-7.2-0.5c4.6-16.6-1.6-35.7-3.8-42.3c-0.2-0.7-0.4-1.2-0.5-1.6c-0.3-1.2-0.8-2.4-1.5-3.4
		c-1.7-2.5-2.8-7.7-4-13.1c-2.2-10-4.9-22.3-13.2-35.1c9.5-1.1,17.8-3.5,23.5-5.5c7.9,17,5.9,37,5.7,39.3
		C1394.7,1720.6,1395.2,1723,1396.5,1725.1z M1307.7,1444.4c0-1.2,0.8-6,9.8-17.2c0.1,0,0.1,0,0.2,0c1.2,0,2.4-0.2,3.2-0.5
		c0.1,0,7.2-2.4,16.5-7.2c3.2,4.3,6.5,8.5,9.9,12.6c-5.6,4-10.2,5.8-10.3,5.9c-2.7,1-4.7,3-5.9,5.5
		C1320.9,1445.6,1310.5,1446.1,1307.7,1444.4z M1547.6,1460.7l0.2,0.4l0,0.7L1547.6,1460.7z"/>
</g>
<g>
	<path class="st0" d="M1415.5,2039.6c-0.6,0-1.2,0.1-1.8,0.3c-3.1,1-4.8,4.3-3.8,7.4c0.5,1.7-0.7,3.3-1.4,4.1
		c-2.2,2.3-2.1,6.1,0.2,8.3c1.1,1,2.5,1.6,4,1.6c1.6,0,3.1-0.6,4.3-1.8c4.2-4.5,5.8-10.3,4.1-15.7
		C1420.4,2041.2,1418.1,2039.6,1415.5,2039.6z"/>
	<path class="st0" d="M1253.8,1946.2c0.4,7,3.8,12.6,9.8,15.8c3.4,1.8,7.6,2.8,12.1,2.8c1.3,0,2.7-0.1,4.2-0.3
		c-2.3,4.4-2.6,9.4-0.6,14.1c-5.3,2.6-8.8,7.3-9.6,12.8c-1.1,8,1.4,14.3,7.2,17.9c-1.8,3.7-2.2,7.9-1.2,12c1.4,5.9,5,9.6,10.8,10.9
		c-0.5,5.4,2.4,10.9,7.2,13.5c0.7,0.4,1.3,0.7,2.1,1c0.4,0.5,0.9,1,1.4,1.4c14.2,9.6,22,30.7,25.3,42.4l0.5,1.9
		c3.9,13.7,8,27.9,7.9,41.9c0,0.8-0.1,2.1-0.2,3.5c-0.5,7.5-0.7,13.1,2.5,16.7c5.4,6.1,19.2,6.2,19.8,6.2c0.1,0,0.1,0,0.2,0
		c0.6,1.4,1.8,2.5,3.4,3c1.1,1.7,2.9,2.7,4.9,2.7c3.9,0,12.9,0,17.4-0.4c3.5-0.3,6.5-0.6,8.7-3.1c2.4-2.7,2.2-6.1,2.1-9.4
		c-0.8-15.8,1.6-31.2,3.9-42.9c1-5.1,2.3-10,4.1-14.8c0.6-0.8,1-1.8,1.1-2.7c0.4-0.9,0.8-1.9,1.2-2.8c0.2-0.5,0.5-1,0.7-1.5
		c0.3,0.1,0.6,0.1,0.9,0.1c7,0,14.1,0,21.4,0c1.8,0,3.9,0.2,5.8,0.4c1.4,0.1,2.8,0.3,4.2,0.4c1.1,0.1,3.4,0.3,5.8,0.6
		c4,0.4,8.6,0.9,11.6,1l0,0.1c1.4,1.9,2.9,3.8,4.1,5.3l1.3,1.7c2.3,3,5.2,6,6.9,9.1c3.7,6.5,4.3,10.7,4.3,18.8v0.3
		c0,0.3-0.4,0.6-0.5,0.9c0,0.4-0.3,0.7-0.3,1.1c0.1,5.2-0.2,9.1-2.1,12.1c-1,1.5-2.2,2.9-3.5,4.3l-0.5,0.5
		c-3.9,4.6-8.9,10.3-7.7,20.1l0,0.1c0,0.3-0.1,0.5-0.1,0.8c0,1.6,0.6,3,1.7,4.1c1.1,1.1,2.5,1.7,4.1,1.7l24.6,0.3
		c0.6,0,1.4,0,2.1-0.3c1.4,0,1.9-0.5,2.9-1.4c10.7-9.3,9.9-24.9,9.9-36.2v-1.4c0-4.6,0.7-9.2,0.5-13.6l0.4-1.4
		c-0.2-4-0.1-7.7-0.1-11.5c2.5,0.9,4.6,1.8,6.4,3.6c4.4,4.3,9.1,10.2,12.4,15.6c5,8.2,4.2,23.6,0.3,32.2c-0.2,0.4-0.3,0.7-0.5,1.1
		c-0.6,1.2-1.4,2.6-1.8,4.4c-1.6,1.1-2.6,2.9-2.6,5c0,3.3,2.7,5.8,5.9,5.8h0.1l20.2-0.2c3.1,0,5.7-2.6,5.8-5.7
		c0.1-0.3,0.2-0.6,0.3-0.8c0.9-3.9,2.2-7.3,3.7-11c2.8-7.2,5.7-14.6,4.7-24.1c-0.9-8.9-5-16.5-9-23.9c-2.2-4.1-4.4-8-5.9-12.1
		c-2.5-6.5-3.7-13.1-3.7-20.1c0-2.1-0.1-4.3-0.3-6.4c-0.1-2.3-0.3-4.9-0.2-7.4c0.3,0.3,0.6,0.5,0.9,0.8c1.4,1.2,2.7,2.3,3.9,3.4
		c1.2,1.1,2.8,1.6,4.5,1.5c1.6-0.1,3.1-1,4.1-2.3c8.1-10.5,10.2-20.7,7.1-35.2c-1.2-5.8-4-10.9-6.7-15.9c-2.7-5-5.3-9.7-5.9-14.4
		c-0.2-1.6-1-3-2.3-4c2.6-4.9,2.8-10.5,0.6-15.4c-2-4.7-6-7.9-10.5-8.7c-0.3-0.1-0.7-0.1-1-0.1c-0.2-4.8-1.6-8.6-4-11.3
		c-2.8-3.1-6.9-4.7-11.4-4.4c-1.4,0.1-2.8,0.4-4.1,0.8c-0.9-5.6-4.6-10.3-10.2-13.2c-5.4-2.8-11.9-3.2-17.2-1
		c-0.9-1.8-2-3.4-3.5-4.8c-3.5-3.3-8-4.9-12.3-4.4c-2.7,0.4-5.8,1.9-8.6,4.5c-1.4-1.8-3.3-3.3-5.5-4.5c-3.3-1.8-7.1-2.7-11.2-2.7
		c-4.6,0-8.9,1.2-12.2,3.5c-0.6,0.4-1.1,0.8-1.6,1.3c-3-2.1-6.6-3.2-10.5-3.3c-5.9-0.2-11.3,2-14.8,6c-1.6-1.4-3.5-2.3-5.9-2.9
		c-6.7-1.6-12.5-0.2-17,4.2c-1.4-4.1-1.8-9.1-0.8-12.9c0.2-0.8,0.2-1.7,0.1-2.5c3.9-2.1,7.1-4.8,9.4-8.1c3.8-5.3,2.7-9.8,1.7-12
		c-2.6-5.8-9.6-8.5-15.3-9.2c-1.2-0.1-2.5-0.2-3.9-0.2c-6,0-12.2,1.4-16.6,2.6c-5.5-9.6-20.3-14.7-31.6-14.7c-1,0-2,0-2.9,0.1
		c-4.9,0.5-9.5,1.6-13.6,3.5c-3.9-1.6-7.8-2.2-11.4-2.6c-1.7-0.2-3.3-0.4-4.7-0.7c-0.8-0.2-1.5-0.3-2.2-0.4
		c-1.8-0.3-2.9-0.5-3.8-1.1c-0.4-0.2-0.7-0.5-1.2-0.8c-1.1-0.8-3.6-2.6-6.7-2.6c-2.4,0-4.6,1.1-6.7,3.2c-6.9,7.2-4.3,18,1.1,24.9
		c1.5,1.9,3.2,3.6,5,4.9c-3.7,2.4-7.7,5-11.6,8.4C1256.6,1925.8,1253.2,1935.1,1253.8,1946.2z M1337.9,2102c1,0.8,1.9,1.5,2.7,2.3
		c1.6,1.6,3.9,2.1,6,1.4c2.1-0.7,3.6-2.6,3.9-4.8c0-0.3,0.1-0.6,0.1-0.9c1.3,4.8,2.3,10.3,3.3,18c1.3,9.5,0.5,19.1-0.4,29.2
		l-0.1,1.5c0,0,0,0-0.1,0c-0.1,0-0.2,0-0.3,0c-4.2,0-9.1-1.2-10.7-2c-0.3-1.8,0-6.2,0.1-8.2c0.1-1.4,0.2-3.1,0.2-4.3
		C1342.7,2122.7,1340.3,2111.6,1337.9,2102z M1325.6,2062.5c8.4,6.9,14.5,13.8,18.6,21.1c-1.2,1.8-2.3,4-3.1,6.4
		c-2.4-1.5-4.9-2.7-7.4-3.6c0,0-0.1,0-0.1,0c-2.9-9.8-6.5-18.6-10.7-26.1C1323.8,2061,1324.7,2061.7,1325.6,2062.5z M1378,2154
		l0,0.2l-0.3,0c-2.3,0.2-6.6,0.3-13.1,0.4c0.2-2.1,0.3-4.2,0.5-6.2c0.9-10.3,1.8-21,0.3-31.8c-0.3-2.5-0.7-5.3-1.2-8.2
		c1.4,1.9,2.6,3.2,3.8,5c1,1.6,2.8,2.2,4.8,2.2h0.2c1.9,0,3.6-0.4,4.7-1.9c1.2-1.6,2.6-3.1,4.2-4.8
		C1379.6,2121,1377.1,2137.3,1378,2154z M1499.3,2091.9c0.9-7.5,2.4-13.1,7.1-17.9c1.5-1.5,3.5-3.1,5.7-4.9c3.5-2.8,7.4-6,10.4-9.7
		c-0.4,3.8-0.2,7.6,0,11.3l0,0.1c0.1,2,0.2,3.8,0.2,5.6c0,8.5,1.4,16.4,4.4,24.2c1.8,4.8,4.2,9.2,6.6,13.5c3.6,6.6,7,12.8,7.6,19.4
		c0.7,6.7-1.5,12.2-4,18.7c-1.2,3-2.5,6.5-3.5,10.1l-5.5,0.1c5.2-11.8,6.2-30.8-1.1-42.7c-3.9-6.3-9-12.9-14.2-17.9
		c-4-3.9-8.3-5.5-12.1-6.8c-0.7-0.2-1.3-0.5-1.9-0.7C1499.2,2093.5,1499.2,2092.7,1499.3,2091.9z M1429.3,1954.5
		c3.2-0.4,5.5-3.3,5.1-6.5c-0.1-0.6-0.2-1.1-0.3-1.8c0.2-0.7,0.6-1.2,1.3-1.7c1.3-0.9,3.3-1.4,5.5-1.4c2.1,0,4.1,0.5,5.6,1.3
		c2.7,1.5,2.7,3.4,2.7,4.1c0,1.1,0.3,2.2,0.8,3.2c0,0.3,0,1.1-0.1,1.4c-0.1,3.2,2.5,4.2,5.7,6.6h0.2c3.2,0,5.7-3.1,5.9-6.3
		c0.1-1.8,4.3-7,6-7.3c0.7-0.1,1.7,0.2,2.5,1c1,0.9,1.6,2.2,1.5,3c-0.1,1.2,0.1,2.4,0.8,3.5c-0.1,2.1,1,4.1,2.8,5.2
		c0.9,0.6,2,0.8,3,0.8c2.1,0,4-1.1,5-2.8c1.6-2.7,4.1-3.3,5.9-3.3c1.5,0,3,0.4,4.4,1.1c1.7,0.9,5.5,3.5,3.5,8.2
		c-1.3,3,0.1,6.4,3,7.7c0.5,0.2,0.9,0.3,1.4,0.4c0.2,0.2,0.5,0.4,0.8,0.6c1,0.7,2.1,1,3.3,1c1.9,0,3.8-1,4.8-2.6
		c0.6-0.9,2.2-1.7,3.6-1.8c0.6,0,1.4,0,1.9,0.5c1.2,1.4,1.4,7.2-0.1,12c-1,3.1,0.7,6.4,3.8,7.4c0.6,0.2,1.2,0.3,1.8,0.3
		c2.6,0,4.8-1.6,5.6-4.1c0-0.1,0.1-0.2,0.1-0.3c0.2-0.1,0.4-0.2,0.6-0.2c0.4,0.1,1.1,0.5,1.7,1.8c1.1,2.5,0.2,5.7-2.3,7.8
		c-1.2,1-1.9,2.4-2.1,4c-0.1,1.6,0.3,3.1,1.4,4.3c1,1.2,2.5,2,4.1,2.1c1.2,6.1,4.1,11.4,6.9,16.6c2.4,4.5,4.7,8.7,5.6,12.8
		c1.9,8.8,1.4,14.6-1.5,20.3c-3.8-3.3-8.1-7.1-10.7-11.1c-3.8-5.9-4.3-15.8-4.3-22.7c0-3.2-2.6-5.9-5.9-5.9c-3.2,0-5.9,2.6-5.9,5.9
		c0,6.5,0.4,15.9,3.5,23.8c-1.1,0.8-1.9,2-2.2,3.4c-1,4.3-6.6,8.9-11.5,12.9c-2.4,2-4.7,3.8-6.6,5.7c-7.5,7.5-9.5,16.4-10.5,24.8
		c-1.1,9.7-0.8,19.1-0.4,28.2l0.3,1.1c0.2,4.3,0.6,8.8,0.6,13.2v1.4c0,9-0.3,20.2-5.9,26.4l-18-0.3c0.5-2.5,2.2-4.6,4.8-7.6
		c1.5-1.7,3.2-3.7,4.7-6c3.8-5.9,4.1-12.1,4-18.6c0-0.3,0.5-0.6,0.5-0.9c0-0.3,0.5-0.7,0.5-1v-0.3c0-9.4-0.8-15.8-5.9-24.6
		c-2.3-4-5.4-7.7-8.2-11.2l-1.9-2.2c-1-1.3-2-2.5-2.9-3.7c-1.8-2.5-3.3-5.1-4.9-8.4c-1-1.9-2-3.9-3.2-5.8c-1.1-1.8-3-2.9-5.1-2.9
		c-1,0-2.1,0.3-3,0.8c-1.4,0.8-2.3,2.1-2.7,3.6c-0.4,1.5-0.2,3.1,0.6,4.4c0.5,0.9,1,1.8,1.6,2.8c-1.2-0.1-2.3-0.2-3.4-0.4
		c-2.5-0.3-4.8-0.5-6.2-0.6c-1.1-0.1-2.4-0.1-3.7-0.3c-1.9-0.2-4.4-0.4-7-0.4c-3,0-5.9,0-8.8,0c-1.9,0-3.8,0-5.7,0l0,0
		c0.8-1.1,1.7-2.2,2.5-3.3c2-2.6,1.4-6.3-1.1-8.2c-1-0.8-2.3-1.2-3.5-1.2c-1.9,0-3.6,0.8-4.7,2.3c-0.7,1-1.5,1.9-2.2,2.8l-0.3,0.3
		c-3.6,4.6-7.2,9.3-10,15.5c-0.5,1-0.9,2-1.3,3.1c-4.6,2.9-9.8,7.4-14.5,12.5c-2.9-4.1-6-8-8.7-11.5c-2.5-3.2-5.1-6.5-7.6-9.9
		c-0.8-1.1-1.9-1.8-3.1-2.2c-4.8-8.4-11.7-16.2-21-23.9c-5.1-4.2-11.6-8.4-18.3-11.8c-2.8-1.5-5.7-2.4-8.5-3.3
		c-2.6-0.9-5-1.7-6.9-2.7c-0.7-0.4-1.2-1.4-1.1-2.1c0,0,0.1-0.1,0.4-0.2c3.1-0.7,5.1-3.9,4.4-7c-0.6-2.7-3-4.5-5.7-4.5
		c-0.4,0-0.8,0-1.2,0.1c-0.8-0.3-1.5-0.5-2.4-0.5c-6,0-6.2-0.8-6.6-2.6c-0.8-3.5,1-5.8,2.7-7.1c2.5-2,3-5.7,1-8.2
		c-1-1.3-2.6-2.1-4.2-2.2c-0.5-0.4-1.2-0.7-1.8-0.9c-2.3-0.7-4.2-1.8-3.5-7c0.5-3.3,4.5-5.2,7.9-4.9c3.3,0.3,6.1-2.2,6.3-5.3
		c0.2-2.4-1.1-4.7-3.2-5.7c-4.1-4-2.5-6.5-2-7.4c1.8-2.9,6.1-4.4,7.7-3.7c0.7,0.3,1.5,0.5,2.3,0.5c2.4,0,4.5-1.4,5.4-3.6
		c0.1-0.3,0.3-0.7,0.3-1.1c4.9,0.7,9.2,0.9,13.2,0.7c11.4-0.7,19-6,24.7-17c0.7-1.4,0.8-3,0.3-4.5c-0.5-1.5-1.5-2.7-2.9-3.4
		c-0.8-0.4-1.7-0.6-2.7-0.6c-2.2,0-4.2,1.2-5.2,3.2c-3.8,7.4-7.7,10.2-14.9,10.7c-7,0.4-14.3-1.1-21.3-2.5c-1.5-0.3-3-0.6-4.4-0.9
		c-1.8-0.4-3.8,0.2-5.1,1.5c-0.2,0.2-0.4,0.4-0.6,0.6c-0.2,0.2-0.8,0.8-0.9,0.8c-2.9,1.7-6.7,2.7-10.5,2.7c-2.6,0-4.9-0.5-6.7-1.4
		c-2.3-1.2-3.4-3.1-3.6-6c-0.3-5.3,0.5-12.5,5.5-16.9c3.5-3.1,7.3-5.5,11.3-8.1c3-2,6.2-4,9.3-6.4c1.7-1.3,3.2-3.1,4.9-5.2
		c4.5-5.5,10.5-12.9,23.5-14.1c0.6-0.1,1.3-0.1,2-0.1c8.2,0,19.4,4.1,21.6,9.5l0,0c-0.1,0.9-0.1,1.9,0.3,2.8c0.8,2.4,3,3.9,5.5,3.9
		c0.7,0,1.3-0.1,1.9-0.3c0.2-0.1,0.3-0.1,0.6-0.2c0.3-0.1,0.6-0.2,0.9-0.3c7.7-2.6,15-3.7,19.7-3.2c3.1,0.4,5.1,1.5,5.7,2.1
		c-0.1,0.1-0.2,0.4-0.4,0.6c-2.7,3.8-7.8,6.4-15.1,7.5c-2.6,0.4-5,0.6-7.1,0.6c-4.1,0-6.3-0.7-6.7-1.2c-1.1-1.2-2.7-1.9-4.3-1.9
		c-1.5,0-2.9,0.5-3.9,1.5c-2.4,2.2-2.6,5.9-0.4,8.3c3.1,3.4,8.2,5.1,15.4,5.1c2.7,0,5.7-0.3,8.9-0.7c0.4-0.1,0.9-0.1,1.3-0.2
		c-1.2,12.2,4,26.7,16.2,30.4c0.6,0.2,1.1,0.3,1.7,0.3c2.6,0,4.9-1.7,5.6-4.2c0.8-2.6-0.3-5.3-2.4-6.6c1.6-1.6,3.4-1.9,6.1-1.2
		c1.1,0.3,1.1,0.3,2,2.3c0.6,1.4,1.3,3.1,2.5,4.9c1.1,1.6,2.9,2.5,4.8,2.5c1.2,0,2.4-0.4,3.4-1.1c1.5-1,2.4-2.6,2.5-4.4
		c0.6-0.7,0.9-1.6,1.1-2.5c0.6-3.3,3.8-4.4,6.5-4.4l0.3,0c2.1,0.1,4.8,0.9,5.9,3.1c0,0.6,0.1,1.2,0.1,1.8c0.4,2.9,2.9,5.1,5.8,5.1
		l0.2,0l0.2,0C1428.8,1954.6,1429.1,1954.6,1429.3,1954.5z M1287.5,1901.6l-0.7,0.9c-0.2,0.1-0.4,0.2-0.7,0.3
		c-0.4,0.2-0.8,0.3-1.3,0.3c-1.9,0-4.2-1.9-5.7-3.8c-2-2.6-3.1-5.8-2.7-8c0.2,0.2,0.5,0.3,0.8,0.5c2.9,1.7,5.5,2.2,8,2.6
		c0.5,0.1,1.1,0.2,1.6,0.3c1.9,0.4,3.7,0.6,5.5,0.9l0.3,0C1290.6,1897.9,1288.9,1899.9,1287.5,1901.6z"/>
</g>
<g>
	<path class="st0" d="M1203.1,2612.6c-0.7,0-1.3,0.1-2,0.3c-3.5,1.1-5.5,4.9-4.4,8.4c0.6,1.9-0.8,3.7-1.6,4.7
		c-2.5,2.7-2.4,6.9,0.2,9.4c1.2,1.2,2.9,1.8,4.6,1.8c1.9,0,3.6-0.7,4.8-2.1c4.8-5.1,6.6-11.8,4.7-17.8
		C1208.6,2614.4,1206,2612.6,1203.1,2612.6z"/>
	<path class="st0" d="M1019,2506.3c0.4,8,4.4,14.3,11.1,17.9c3.9,2.1,8.7,3.2,13.8,3.2c1.5,0,3.1-0.1,4.8-0.3
		c-2.7,5-2.9,10.7-0.6,16c-6.1,3-10,8.3-10.9,14.6c-1.3,9.1,1.6,16.3,8.2,20.4c-2,4.3-2.5,9-1.3,13.7c1.6,6.7,5.7,10.9,12.3,12.4
		c-0.6,6.1,2.7,12.4,8.1,15.4c0.8,0.4,1.5,0.8,2.4,1.2c0.5,0.6,1,1.1,1.6,1.5c16.2,10.9,25,34.9,28.8,48.2l0.6,2.1
		c4.5,15.6,9.1,31.7,9,47.7c0,0.9-0.1,2.3-0.2,4c-0.6,8.5-0.7,14.9,2.9,19c6.1,6.9,21.8,7,22.5,7c0.1,0,0.1,0,0.2,0
		c0.7,1.6,2.1,2.8,3.8,3.5c1.2,1.9,3.3,3.1,5.6,3.1c4.4,0,14.7,0,19.8-0.5c4-0.4,7.4-0.7,9.9-3.6c2.7-3,2.5-6.9,2.3-10.7
		c-1-17.9,1.9-35.5,4.4-48.8c1.1-5.8,2.7-11.3,4.7-16.8c0.7-0.9,1.1-2,1.2-3.1c0.4-1.1,0.9-2.2,1.4-3.2c0.3-0.6,0.5-1.1,0.8-1.7
		c0.4,0.1,0.7,0.1,1.1,0.1c8,0,16.1,0,24.3,0c2,0,4.4,0.3,6.6,0.5c1.6,0.2,3.2,0.3,4.7,0.4c1.3,0.1,3.9,0.4,6.6,0.7
		c4.6,0.5,9.8,1.1,13.2,1.1l0,0.1c1.6,2.1,3.3,4.3,4.6,6.1l1.5,1.9c2.7,3.4,5.9,6.9,7.9,10.3c4.2,7.4,4.9,12.1,4.9,21.4v0.4
		c0,0.3-0.5,0.7-0.5,1c-0.1,0.4-0.3,0.8-0.3,1.3c0.1,5.9-0.2,10.3-2.4,13.7c-1.1,1.7-2.5,3.3-4,4.9l-0.5,0.6
		c-4.5,5.2-10.1,11.7-8.8,22.8l0,0.1c0,0.3-0.1,0.6-0.1,0.9c0,1.8,0.6,3.5,1.9,4.7c1.2,1.2,2.9,1.9,4.7,2l28,0.4
		c0.7,0,1.6,0,2.4-0.4c1.6,0,2.1-0.6,3.3-1.6c12.2-10.6,11.3-28.3,11.3-41.2v-1.6c0-5.2,0.8-10.4,0.6-15.4l0.4-1.6
		c-0.2-4.5-0.1-8.8-0.1-13.1c2.8,1.1,5.2,2.1,7.3,4.1c5,4.9,10.4,11.6,14.1,17.7c5.7,9.4,4.7,26.8,0.3,36.6
		c-0.2,0.4-0.4,0.8-0.6,1.3c-0.7,1.3-1.6,3-2,5c-1.9,1.2-3,3.3-3,5.6c0,3.7,3,6.6,6.7,6.6h0.1l23-0.2c3.6,0,6.5-2.9,6.6-6.5
		c0.1-0.4,0.2-0.7,0.3-0.9c1-4.4,2.5-8.3,4.2-12.6c3.2-8.2,6.5-16.6,5.4-27.4c-1-10.2-5.7-18.8-10.3-27.2c-2.5-4.7-5-9.1-6.7-13.7
		c-2.8-7.4-4.2-14.9-4.2-22.8c0-2.4-0.1-4.9-0.3-7.3c-0.2-2.7-0.3-5.6-0.2-8.4c0.4,0.3,0.7,0.6,1.1,0.9c1.6,1.3,3,2.6,4.4,3.9
		c1.4,1.2,3.2,1.9,5.1,1.7c1.8-0.2,3.6-1.1,4.7-2.6c9.2-12,11.6-23.6,8.1-40.1c-1.4-6.6-4.6-12.5-7.6-18.2c-3.1-5.7-6-11.1-6.7-16.4
		c-0.2-1.8-1.2-3.4-2.7-4.5c2.9-5.6,3.2-12,0.7-17.6c-2.3-5.3-6.8-9-11.9-9.8c-0.4-0.1-0.8-0.1-1.2-0.1c-0.3-5.4-1.8-9.7-4.6-12.8
		c-3.2-3.5-7.8-5.3-13-5c-1.6,0.1-3.1,0.4-4.7,0.9c-1.1-6.3-5.2-11.8-11.6-15c-6.1-3.2-13.6-3.6-19.6-1.1c-1-2-2.3-3.8-4-5.4
		c-3.9-3.8-9.1-5.6-14-5c-3.1,0.4-6.6,2.2-9.8,5.1c-1.6-2.1-3.7-3.8-6.2-5.2c-3.7-2-8.1-3.1-12.7-3.1c-5.2,0-10.1,1.4-13.8,4
		c-0.6,0.4-1.3,0.9-1.9,1.5c-3.4-2.3-7.5-3.6-12-3.8c-6.7-0.2-12.8,2.3-16.9,6.8c-1.8-1.6-4-2.6-6.7-3.3c-7.6-1.8-14.2-0.2-19.4,4.7
		c-1.6-4.7-2-10.4-0.9-14.7c0.2-0.9,0.3-1.9,0.1-2.9c4.5-2.4,8.1-5.5,10.7-9.2c4.3-6,3-11.2,1.9-13.7c-2.9-6.5-10.9-9.7-17.4-10.4
		c-1.4-0.2-2.9-0.2-4.4-0.2c-6.8,0-13.9,1.6-18.9,3c-6.2-10.9-23.1-16.8-36-16.8c-1.2,0-2.3,0-3.4,0.1c-5.6,0.5-10.8,1.9-15.5,4
		c-4.4-1.8-8.9-2.5-13-3c-1.9-0.3-3.7-0.5-5.3-0.8c-0.9-0.2-1.7-0.3-2.6-0.5c-2-0.3-3.3-0.6-4.3-1.2c-0.4-0.2-0.8-0.6-1.3-0.9
		c-1.2-0.9-4.1-3-7.6-3c-2.7,0-5.3,1.2-7.6,3.7c-7.8,8.2-4.8,20.5,1.3,28.4c1.7,2.2,3.6,4.1,5.7,5.5c-4.2,2.7-8.8,5.7-13.2,9.6
		C1022.2,2483,1018.4,2493.7,1019,2506.3z M1114.7,2683.6c1.1,0.9,2.1,1.7,3,2.6c1.8,1.8,4.5,2.4,6.9,1.6c2.4-0.8,4.1-2.9,4.5-5.4
		c0-0.3,0.1-0.7,0.1-1c1.5,5.5,2.6,11.7,3.8,20.5c1.5,10.9,0.5,21.7-0.5,33.2l-0.1,1.7c0,0,0,0-0.1,0c-0.1,0-0.2,0-0.4,0
		c-4.8,0-10.3-1.3-12.1-2.3c-0.4-2,0-7.1,0.1-9.3c0.1-1.6,0.2-3.5,0.2-4.9C1120.2,2707.1,1117.5,2694.5,1114.7,2683.6z
		 M1100.7,2638.6c9.6,7.8,16.5,15.7,21.1,24.1c-1.4,2.1-2.6,4.5-3.6,7.2c-2.8-1.7-5.6-3-8.4-4c-0.1,0-0.1,0-0.2-0.1
		c-3.3-11.2-7.3-21.2-12.1-29.7C1098.7,2637,1099.7,2637.8,1100.7,2638.6z M1160.4,2742.7l0,0.2l-0.3,0c-2.6,0.3-7.5,0.4-14.9,0.4
		c0.2-2.4,0.4-4.7,0.6-7.1c1-11.7,2.1-23.9,0.4-36.2c-0.4-2.8-0.8-6.1-1.4-9.4c1.6,2.2,3,3.7,4.3,5.7c1.2,1.8,3.2,2.5,5.4,2.5h0.2
		c2.1,0,4.1-0.4,5.4-2.1c1.3-1.8,3-3.5,4.8-5.5C1162.2,2705.2,1159.4,2723.8,1160.4,2742.7z M1298.4,2672.1c1-8.6,2.7-14.9,8.1-20.3
		c1.7-1.7,4-3.6,6.5-5.6c4-3.2,8.4-6.8,11.9-11c-0.5,4.3-0.2,8.7,0,12.9l0,0.2c0.1,2.2,0.3,4.4,0.3,6.3c0,9.6,1.6,18.7,5,27.6
		c2.1,5.5,4.8,10.5,7.5,15.4c4.1,7.5,7.9,14.6,8.7,22.1c0.7,7.6-1.7,13.9-4.6,21.3c-1.3,3.5-2.9,7.3-4,11.5l-6.3,0.1
		c5.9-13.4,7-35.1-1.2-48.6c-4.4-7.2-10.3-14.6-16.1-20.4c-4.6-4.5-9.4-6.2-13.7-7.8c-0.8-0.3-1.5-0.5-2.2-0.8
		C1298.2,2673.9,1298.3,2673,1298.4,2672.1z M1218.7,2515.8c3.7-0.4,6.3-3.8,5.9-7.4c-0.1-0.6-0.2-1.3-0.4-2
		c0.2-0.8,0.7-1.3,1.5-1.9c1.5-1,3.8-1.6,6.3-1.6c2.4,0,4.6,0.5,6.4,1.5c3.1,1.7,3.1,3.9,3.1,4.7c0,1.3,0.3,2.5,1,3.6
		c0,0.3-0.1,1.3-0.1,1.5c-0.1,3.7,2.8,4.8,6.4,7.5h0.2c3.6,0,6.5-3.5,6.7-7.1c0.1-2.1,4.9-8,6.8-8.3c0.8-0.1,2,0.3,2.9,1.2
		c1.1,1.1,1.8,2.5,1.7,3.5c-0.1,1.4,0.2,2.8,0.9,4c-0.1,2.4,1.1,4.7,3.2,5.9c1,0.6,2.2,1,3.5,1c2.4,0,4.5-1.2,5.7-3.2
		c1.9-3.1,4.7-3.7,6.7-3.7c1.7,0,3.4,0.4,5,1.3c2,1,6.3,4,3.9,9.4c-1.5,3.4,0.1,7.3,3.5,8.8c0.5,0.2,1.1,0.4,1.6,0.5
		c0.3,0.3,0.6,0.5,0.9,0.7c1.1,0.8,2.4,1.2,3.8,1.2c2.2,0,4.3-1.1,5.5-2.9c0.7-1,2.5-1.9,4.1-2c0.6,0,1.6,0,2.2,0.6
		c1.4,1.6,1.6,8.2-0.1,13.6c-1.1,3.5,0.8,7.3,4.3,8.4c0.7,0.2,1.4,0.3,2.1,0.3c2.9,0,5.5-1.9,6.4-4.6c0-0.1,0.1-0.2,0.1-0.3
		c0.2-0.1,0.5-0.2,0.7-0.2c0.4,0.1,1.3,0.6,1.9,2.1c1.3,2.9,0.2,6.5-2.6,8.9c-1.4,1.1-2.2,2.8-2.4,4.5c-0.2,1.8,0.4,3.5,1.5,4.9
		c1.2,1.4,2.9,2.3,4.7,2.4c1.3,6.9,4.6,13,7.8,18.9c2.7,5.1,5.3,9.9,6.3,14.6c2.1,10,1.6,16.6-1.7,23.1c-4.4-3.8-9.2-8-12.2-12.7
		c-4.4-6.7-4.9-17.9-4.9-25.8c0-3.7-3-6.7-6.7-6.7c-3.7,0-6.7,3-6.7,6.7c0,7.4,0.4,18.1,4,27.1c-1.3,1-2.1,2.3-2.5,3.9
		c-1.1,4.9-7.5,10.1-13.1,14.7c-2.7,2.2-5.3,4.3-7.5,6.5c-8.6,8.6-10.8,18.6-11.9,28.2c-1.3,11.1-0.9,21.8-0.5,32.1l0.4,1.2
		c0.2,4.9,0.7,10,0.7,15.1v1.6c0,10.3-0.3,23-6.8,30l-20.4-0.3c0.6-2.9,2.5-5.2,5.4-8.7c1.7-2,3.6-4.2,5.3-6.9
		c4.4-6.7,4.6-13.8,4.6-21.2c0-0.3,0.5-0.7,0.6-1c0-0.4,0.6-0.8,0.6-1.2v-0.4c0-10.7-0.9-18-6.7-28c-2.6-4.6-6.2-8.8-9.3-12.8
		l-2.1-2.5c-1.1-1.4-2.3-2.8-3.3-4.2c-2.1-2.8-3.7-5.8-5.6-9.5c-1.1-2.1-2.3-4.4-3.6-6.7c-1.2-2-3.4-3.3-5.8-3.3
		c-1.2,0-2.4,0.3-3.4,0.9c-1.5,0.9-2.6,2.4-3.1,4.1c-0.4,1.7-0.2,3.5,0.7,5.1c0.6,1,1.2,2.1,1.8,3.2c-1.3-0.1-2.6-0.3-3.8-0.4
		c-2.8-0.3-5.4-0.6-7.1-0.7c-1.3-0.1-2.7-0.2-4.2-0.3c-2.2-0.2-5-0.5-7.9-0.5c-3.4,0-6.7,0-10,0c-2.2,0-4.3,0-6.5,0l0,0
		c0.9-1.2,1.9-2.5,2.9-3.7c2.2-2.9,1.6-7.1-1.3-9.4c-1.2-0.9-2.6-1.4-4-1.4c-2.1,0-4,1-5.3,2.6c-0.8,1.1-1.7,2.2-2.5,3.2l-0.3,0.4
		c-4,5.2-8.2,10.5-11.4,17.6c-0.5,1.2-1,2.3-1.5,3.5c-5.2,3.3-11.2,8.4-16.6,14.2c-3.3-4.6-6.8-9.1-9.9-13.1
		c-2.8-3.6-5.8-7.4-8.6-11.3c-0.9-1.2-2.1-2.1-3.6-2.5c-5.5-9.6-13.3-18.5-23.9-27.2c-5.8-4.8-13.2-9.5-20.9-13.5
		c-3.2-1.7-6.5-2.8-9.7-3.8c-2.9-1-5.6-1.9-7.9-3.1c-0.8-0.5-1.3-1.6-1.3-2.4c0,0,0.1-0.1,0.5-0.2c3.6-0.8,5.8-4.4,5-8
		c-0.7-3-3.4-5.2-6.5-5.2c-0.4,0-0.9,0-1.3,0.1c-0.9-0.4-1.8-0.6-2.7-0.6c-6.8,0-7.1-1-7.5-3c-0.9-4,1.1-6.6,3-8.1
		c2.9-2.3,3.4-6.5,1.2-9.4c-1.2-1.5-2.9-2.4-4.8-2.6c-0.6-0.5-1.3-0.8-2.1-1.1c-2.7-0.8-4.8-2-3.9-8c0.5-3.8,5.2-5.9,9-5.5
		c3.7,0.3,6.9-2.5,7.2-6.1c0.2-2.7-1.2-5.3-3.6-6.5c-4.7-4.6-2.9-7.4-2.2-8.5c2.1-3.3,6.9-5,8.8-4.2c0.8,0.4,1.7,0.5,2.6,0.5
		c2.7,0,5.1-1.6,6.2-4.1c0.2-0.4,0.3-0.8,0.4-1.2c5.6,0.8,10.4,1,15,0.8c13-0.8,21.7-6.8,28.1-19.4c0.8-1.6,0.9-3.4,0.4-5.1
		c-0.6-1.7-1.7-3.1-3.3-3.9c-0.9-0.5-2-0.7-3-0.7c-2.5,0-4.8,1.4-6,3.7c-4.3,8.4-8.7,11.6-17,12.1c-8,0.5-16.2-1.2-24.2-2.9
		c-1.7-0.3-3.4-0.7-5-1c-2.1-0.4-4.3,0.2-5.8,1.7c-0.2,0.2-0.4,0.4-0.7,0.7c-0.2,0.2-0.9,0.9-1,1c-3.3,2-7.6,3.1-11.9,3.1
		c-3,0-5.6-0.6-7.6-1.6c-2.6-1.4-3.9-3.5-4.1-6.8c-0.3-6,0.5-14.2,6.3-19.3c4-3.5,8.3-6.3,12.9-9.2c3.5-2.2,7-4.5,10.6-7.2
		c1.9-1.5,3.6-3.5,5.5-5.9c5.1-6.2,12-14.7,26.7-16.1c0.7-0.1,1.5-0.1,2.3-0.1c9.3,0,22.1,4.7,24.6,10.8l0,0
		c-0.2,1.1-0.1,2.2,0.3,3.2c0.9,2.7,3.5,4.5,6.3,4.5c0.7,0,1.5-0.1,2.2-0.4c0.2-0.1,0.4-0.1,0.7-0.2c0.4-0.1,0.7-0.2,1.1-0.3
		c8.7-2.9,17-4.3,22.5-3.6c3.5,0.4,5.8,1.7,6.5,2.4c-0.1,0.2-0.2,0.4-0.4,0.7c-3.1,4.4-8.9,7.2-17.2,8.5c-2.9,0.4-5.6,0.7-8.1,0.7
		c-4.7,0-7.1-0.8-7.6-1.4c-1.3-1.4-3.1-2.2-4.9-2.2c-1.7,0-3.3,0.6-4.5,1.7c-2.7,2.5-2.9,6.7-0.5,9.4c3.5,3.8,9.4,5.8,17.5,5.8
		c3.1,0,6.5-0.3,10.2-0.8c0.5-0.1,1-0.2,1.5-0.3c-1.3,13.9,4.6,30.4,18.4,34.6c0.6,0.2,1.3,0.3,1.9,0.3c3,0,5.5-1.9,6.4-4.7
		c0.9-2.9-0.3-6-2.8-7.6c1.9-1.8,3.9-2.2,7-1.4c1.3,0.3,1.3,0.3,2.2,2.6c0.6,1.6,1.4,3.5,2.9,5.6c1.2,1.8,3.3,2.9,5.5,2.9
		c1.4,0,2.7-0.4,3.8-1.2c1.7-1.2,2.7-3,2.8-5c0.6-0.8,1.1-1.8,1.3-2.8c0.7-3.7,4.3-5,7.4-5l0.4,0c2.4,0.1,5.5,1.1,6.8,3.6
		c0,0.7,0.1,1.4,0.1,2c0.4,3.3,3.3,5.8,6.6,5.8l0.2,0l0.2,0C1218.2,2515.8,1218.5,2515.8,1218.7,2515.8z M1057.3,2455.6l-0.8,1
		c-0.3,0.1-0.5,0.2-0.7,0.4c-0.5,0.3-0.9,0.4-1.5,0.4c-2.2,0-4.8-2.2-6.4-4.3c-2.3-3-3.5-6.6-3.1-9.1c0.3,0.2,0.6,0.4,0.9,0.6
		c3.3,1.9,6.3,2.4,9.1,2.9c0.6,0.1,1.2,0.2,1.9,0.3c2.1,0.4,4.2,0.7,6.3,1l0.3,0C1060.8,2451.3,1058.9,2453.6,1057.3,2455.6z"/>
</g>
<g>
	<path class="st0" d="M1704.2,2407.3c-4.4-6.9-9.7-11.5-14.8-16c-3-2.6-5.9-5.1-8.3-7.9c-0.4-0.5-0.9-0.9-1.4-1.3
		c-5-7.2-11.1-13-17.9-17.4c-14.5-15.5-32.4-22.8-56.3-22.8c-16.6,0-34,3.4-52.4,7c-22.2,4.3-45.1,8.8-69.4,8.3
		c-31.4-0.7-56.8-6.2-60-10.7c-0.7-1-1.6-1.8-2.7-2.4l-0.2-0.2l0.2-0.3l-0.8-0.6c-0.9-0.7-1.7-1.4-2.5-2.1c-0.6-0.5-1.2-1-1.8-1.6
		l-1.1-0.8c-0.4-0.3-0.8-0.6-1.2-0.8c-0.1-0.1-0.2-0.3-0.3-0.4c-4.5-5.4-8.7-10.9-12.8-16.6c-0.3-0.4-1-0.7-1.7-0.9
		c-2.5-2.5-5.2-4.8-8.2-6.6l-0.5-0.3l-0.5,0.3c-8.8-4.4-18.3-6.7-28.2-6.7c-11,0-22.1,2.9-32.2,8.3c-2.9,1.6-5.6,3.3-8.5,5.5
		c-4.1,3.8-7.8,8.1-11.4,12.3c-1.2,1.4-2.5,2.8-3.7,4.2l-0.3,0.4c-0.6,0.9-1.1,1.9-1.6,2.8l-0.1-0.1l-0.7,1.1
		c-0.1,0.2-0.2,0.3-0.4,0.5l-0.3,0.6c-0.1,0.3-0.1,0.6-0.2,1.1c-0.3,1.1-0.5,2.2-0.9,3.3l-0.4,1.2c-0.4,3.1-0.8,6.4-1.7,9.6l-0.2,1
		l0.1,0.1c0,0.2,0,0.3,0,0.5c-0.8,38-19.2,59.6-19.3,59.8c-1.8,2-2.6,4.8-2.1,7.4c0.2,0.9,4.7,21.5,21.2,27.5
		c0.3,0.1,0.5,0.2,0.7,0.2c7.1,3.9,14.4,5.9,21.7,5.9c2.4,0,4.7-0.2,6.9-0.6c9.2-1.6,17.7-6.7,24.5-14.6c9.6,3,20.1,2.6,29.8-1.2
		c11-4.3,20.9-13,24.2-21.2c1.7-4.4-0.4-9.3-4.8-11.1l0,0c-0.9-0.4-2-0.6-3-0.6c-3.5,0-6.8,2.2-8.1,5.4c-0.9,2.4-6.3,8.4-14.5,11.5
		c-7.6,2.9-15.6,2.6-22.8-0.9c-1.1-0.5-2.3-0.8-3.6-0.8c-2.9,0-5.7,1.4-7.2,3.7c-4.8,7.2-10.9,11.7-17.6,12.9
		c-1.2,0.2-2.5,0.3-3.7,0.3c-5.8,0-12.1-2.2-18-6.5c-0.9-0.6-1.8-1.1-2.9-1.4c-2.5-2.5-4.1-6-5.1-8.6c1.9-2.6,4.7-6.9,7.6-12.5l1-2
		c5.2-10.8,11.6-28.8,12.1-52.5c0.2-10.9,8.7-22.4,21.6-29.4c9.5-5.2,20.8-7.2,31.1-5.7c-0.7,0.7-1.2,1.6-1.5,2.5
		c-8.8,10.3-17.4,22.9-11.4,32.4c1.7,2.6,6.2,7.2,18,7.2c4.9,0,11.2-0.8,19-3c0.2,0,0.5,0.1,0.7,0.1c1,0,2-0.2,2.9-0.5
		c0.1,0,5.6-2,12.2-6.8c0.4,0.6,0.9,1.1,1.5,1.6c1.6,1.4,3.4,2.7,5.7,4c3.2,1.8,6.7,3.4,10.4,4.7c6,2.2,12.8,3.8,21.3,5.1
		c10.9,1.6,22.7,2.6,36.2,2.9c26,0.6,50.9-4.2,73-8.5l0,0l0.3,0c17.7-3.5,34.5-6.7,49.1-6.7c19,0,33,5.7,44.2,18
		c0.6,0.6,1.2,1.1,1.8,1.5c28.5,17.8,29.7,60.9,25.7,94c-4.5,36.8-16.3,69.8-16.4,70.2c-0.4,1.2-0.6,2.5-0.4,3.8
		c2.7,24.2,5.2,66.4,0.7,76.2c-0.1,0.2-0.2,0.5-0.3,0.7c-2.3,0.4-5.6,0.7-9.2,0.7c-1.9,0-3.8-0.1-5.5-0.2
		c2.5-10.2,2.7-20.9,2.9-29.6c0-0.7,0.1-1.5,0.1-2.3l0-0.3c0.2-3.3,0.4-6.8-0.6-10.2c-0.4-1.3-0.9-2.6-1.3-3.6
		c-1-2.5-1.8-4.5-1.2-7.1c1.2-4.8-0.3-7.3-3.5-10.2l-1.1-1c-2.6-2.3-5.6-4.9-8.1-7.7c-4.9-5.2-8.9-10.5-11.8-15.9
		c-4.2-7.8-6.5-16.3-6.7-25.4c0-2,0-4.1,0-6c0.1-5.7,0.3-11.5-4.3-15.3c-2.7-2.2-7.1-2.5-10.1-0.6c-1.6,1-3.5,2.4-5.6,3.9l-0.3,0.2
		c-13.8,9.8-42.6,30.2-71.9,30.2c-10.8,0-20.9-2.8-30-8.3c-2.4-1.5-5.9-1.6-8.4-0.3c-2.7,1.4-4.4,4.1-4.5,7.2l-4.3,98.9
		c-2.3,0.3-5.4,0.6-8.5,0.6c-2.1,0-4-0.1-5.5-0.4c2.3-28.7-5.7-48.1-8.5-53.8c0.5-6.9,1-29.3-11.1-46.2c-1.6-2.2-4.3-3.5-7.1-3.5
		c-1.3,0-2.6,0.3-3.7,0.9c-0.5,0.2-12.5,6.1-25.7,6.1c-6.9,0-12.8-1.6-17.7-4.7c-13.9-8.9-20.2-30.6-18.9-64.4
		c0.1-2.4-0.8-4.7-2.5-6.5c-1.6-1.7-3.7-2.6-5.9-2.6c-4.7,0-8.5,3.7-8.7,8.3c-1.6,40.3,7.4,67,26.7,79.3c3.6,2.4,7.5,4.1,11.7,5.3
		c0.4,1.2,1.1,2.4,2,3.2c9.9,9.9,12.2,20.5,14.3,29.9c1.2,5.6,2.3,10.5,4.7,14.5c0.1,0.3,0.3,0.9,0.5,1.6c1.5,4.8,6.1,19.5,1.1,27.3
		c-1.8,2.1-2.6,4.7-2.2,7.3c0.3,2.1,1.6,5.8,7,7.8c5.1,1.9,11.2,2.9,18.4,2.9c4,0,7.8-0.3,11-0.9c0.1,0.1,0.2,0.2,0.3,0.2
		c4.6,3.5,11.4,5.3,20.2,5.3c8.5,0,16.3-1.7,18.4-2.2c3.7-0.9,6.4-4.1,6.6-7.9l4-92.7c16.1,6,34.7,6.1,54,0.3
		c0.1,0.4,0.2,0.7,0.4,1.1l-7.8,8c-3.3,3.4-3.2,8.8,0.1,12.1c1.5,1.5,3.7,2.3,6,2.3c2.4,0,4.6-0.9,6.1-2.4l5.1-5.2
		c4,4.2,8.7,7.5,14,9.9l-3.6,6.1c-1.2,2-1.5,4.2-0.9,6.5c0.6,2.2,2,4.1,3.9,5.2c1.2,0.7,2.7,1.1,4.2,1.1c3.1,0,6-1.6,7.4-4l5.6-8.6
		c0.2,0.1,0.3,0.2,0.5,0.3c0.1,0.2,0.2,0.4,0.3,0.5l0.2,0.2c0.6,0.6,1.5,1.7,2.9,2c-1.6,1.2-2.7,2.8-3.2,4.7c-0.6,2.2-0.2,4.5,1,6.5
		c2.1,3.5,4.8,6.6,8,9.2c2.3,11.3,0.8,19.6-0.3,25.7c-0.9,5-1.7,9.3,0,13.6c0.1,0.4,0.2,0.8,0.3,1.2c1,5.3,4,6.8,22.1,6.8
		c1.7,0,3.6,0,5.5-0.1c1.3,0,2.5-0.3,3.6-0.9c3.7,2.3,10.9,3.7,19.4,3.7c11.3,0,20.4-2.3,24.3-6.3c2-2,2.9-4.9,2.3-7.7
		c6.1-18.6,1.1-70.1,0-80.9c3.9-11.4,16.2-49.8,18.2-89.8c0.5,0.5,1,0.9,1.6,1.2c1.2,0.7,2.5,1,3.9,1c2.9,0,5.7-1.6,7-4
		C1716.5,2441,1712.4,2420.4,1704.2,2407.3z M1696.1,2443.1c-0.1-6.2-0.5-12.1-1.2-17.8C1696.7,2431.3,1697.4,2437.8,1696.1,2443.1z
		 M1629.3,2621.7c-0.5-0.1-1-0.2-1.5-0.2h0c-5.6,0.1-8.1-0.1-11-0.4c0.1-0.4,0.1-0.8,0.2-1.2c1-5.5,2.3-13,1.5-23
		c2.4-1.5,3.9-4.2,3.9-7.1c0-4.2-3.1-7.8-7.2-8.3c-0.6-1-1.5-1.8-2.5-2.5c-2.3-1.5-4.2-3.4-5.6-5.8c-0.9-1.4-2.1-2.6-3.6-3.3
		c4.8-1.1,10.2-3.2,16.1-6.4c3.5,3.7,7.7,7.3,13.2,11.8c-0.5,1.1-0.7,2.2-0.7,3.4C1632.4,2590.5,1631.9,2612.1,1629.3,2621.7z
		 M1596.4,2549c-2.7,0-5.4-0.3-8-0.8c-10.4-2-17.8-8-21.9-17.8c-0.1-0.2-0.2-0.4-0.3-0.6c12.9-5.8,24-12.9,31.7-18.2
		c0.3,8.8,1.9,21.4,10.5,35.7C1605.6,2548.2,1601.5,2549,1596.4,2549z M1436.9,2573.2c0.4,0.6,9.1,16,7.7,42.9
		c-1.1,0.3-3.4,0.7-8.1,0.7c-2.7,0-3.9-0.1-5.7-0.4c3.6-13.1-1.3-28.1-3-33.4c-0.2-0.6-0.3-1-0.4-1.2c-0.3-1-0.7-1.9-1.2-2.7
		c-1.3-2-2.2-6.1-3.2-10.4c-1.7-7.9-3.9-17.6-10.4-27.7c7.5-0.8,14-2.7,18.5-4.4c6.3,13.4,4.7,29.2,4.5,31
		C1435.5,2569.6,1435.9,2571.6,1436.9,2573.2z M1366.9,2351.9c0-0.9,0.6-4.7,7.7-13.6c0.1,0,0.1,0,0.1,0c0.9,0,1.9-0.1,2.5-0.4
		c0,0,5.7-1.9,13-5.6c2.5,3.4,5.1,6.7,7.8,10c-4.4,3.1-8,4.6-8.1,4.6c-2.1,0.8-3.7,2.4-4.6,4.3
		C1377.3,2352.9,1369.1,2353.3,1366.9,2351.9z M1556.1,2364.8l0.1,0.3l0,0.6L1556.1,2364.8z"/>
</g>
<g>
	<path class="st0" d="M1181.8,3132.9c-1.1,1.5-2.3,3-3.5,4.5c-8.8,11.1-20.9,26.3-14,44.6c3.2,8.6,9.5,14.9,15.1,20.6l0.6,0.6
		c3.2,3.3,6.3,6.4,7.9,9.2c1.6,2.9,4.8,4.7,8.2,4.7c3.3,0,6.3-1.7,8-4.5c0.8-0.5,3.5-1.1,7.8-1.9l0.6-0.1c3.6-0.6,7.1-1.2,10.1-2.6
		l1.1-0.5c9.4-4.2,18.3-8.2,19.4-19.4c2.3-1.2,4.7-2.7,7.2-4.6c0.2-0.1,0.3-0.2,0.5-0.3l5.7-4.4c0.4-0.3,0.6-0.7,0.8-1.1
		c4.2-3.9,8.5-8.7,12.6-13.9l0.4,0c2.6,3.1,7,11.7,8.9,15.6c2.2,4.4,4.5,8.3,6.5,11l0.4,0.5c6.2,8.3,16.4,21.9,30.8,28.1
		c0,24.3,2,41,6.5,55.9c3.4,11.2,9,20.5,15.5,30.8c3.1,5,5.4,8.9,7.5,12.6c4.1,7.4,5.8,16.6,7.5,25.5l0.5,2.4
		c0.2,1.3,0.5,2.6,0.7,3.8c1.5,7.3,3.6,14,5.4,19.8c1.3,4.3,2.9,9.1,4.1,14c3.1,12.5,4.6,31,1.1,44.4c-1.1,4.3-3,8.6-5,13.2
		c-3.5,8.1-7.1,16.5-7.5,26.7c-0.2,5.1,3.8,9.5,8.9,9.7c1.6,0.1,3.6,0.2,5.9,0.4c3.7,0.3,8.1,0.6,12.6,0.8c1.2,3.6,4.5,6.2,8.4,6.4
		c1.7,0.1,3.8,0.2,6.1,0.4c7.7,0.6,14,0.9,19.6,0.9c8.9,0,14.6-1,18.5-3.1c9.5-5.2,8-15.5,7.3-21.2c-0.1-0.8-0.3-2.4-0.4-3.2
		c0.3-0.2,0.7-0.5,0.9-0.6c2.2-1.5,5.8-4.1,8-9.4c2.2-5.5,1.4-11.1,0.7-15.5c-0.2-1.2-0.4-2.8-0.5-3.9c1.5-1.4,4-4.2,4.5-9.1
		c0.4-4-1.2-7.8-2.5-10.6c-0.2-0.5-0.5-1.2-0.6-1.5l-1.1-3.2c-3.4-10.3-6.8-21-8.7-31c-0.8-4.2-0.7-9-0.6-13.8c0.1-3,0.1-6.2,0-9.3
		c-0.2-3.3-0.5-6.5-0.9-9.7c-0.6-5.2-1.2-10.2-0.7-14.7c0.3-3.5,1.7-8.5,3.3-13.8c0.5,0.1,1-0.1,1.5-0.4c0.5-0.3,0.8-0.8,0.9-1.4
		l1-5.3c1.3-0.5,4.3-1.1,11-1.1c5.1,0,11.5,0.4,19.1,1.2l2.5,0.2c5.9,0.6,11.8,1.3,17.6,2.2c8.9,1.4,19.4,2.9,30.4,2.9
		c21.1,0,39.3-3.2,60.9-10.7l2.5-0.9c2.5-0.9,5.3-1.8,8.2-2.9c2.4,3.5,4.9,6.8,7.2,9.9c1.3,1.7,2.7,3.5,4,5.3c2,2.7,4.5,5.8,7.5,9.6
		c8.9,11.1,27.5,34.3,27.2,44.9c-0.1,2,0.2,5.2,0.7,11.6c1,12.4,3.8,45.2-0.7,53.8c-0.1,0.1-0.1,0.2-0.2,0.4l-0.1,0
		c-0.5-0.2-1.1-0.1-1.6,0.2c-0.5,0.3-0.9,0.7-1.1,1.3l-2.4,7.7c-5.2,8.9-11.8,19.8-13.9,22.9c-1.8,2.8-2,6.4-0.5,9.4
		c1.5,3,4.5,4.9,7.9,5.1c3.3,0.2,7.3,0.2,11.8,0.2c14.6,0,30.8-0.8,30.9-0.8c0.6,0,1.1-0.1,1.7-0.2c-0.2,1.7,0.2,3.5,1,5.1
		c1.5,3,4.5,4.9,7.9,5.1c3.3,0.2,7.3,0.2,11.8,0.2c14.7,0,30.8-0.8,30.9-0.8c2.9-0.1,5.5-1.6,7.2-3.9c1-1.4,3.6-5.1,3.4-21.7l0-0.6
		c2.3-0.8,4.3-1.7,6-2.7c0.1-0.1,0.3-0.1,0.4-0.2c0,0,0,0,0.1,0l6-3.9c0.5-0.3,0.8-0.8,0.9-1.4c0.1-0.6,0-1.1-0.3-1.6l-1.6-2.3
		c0.3-2.2,0.2-4.5,0.1-6.2c-0.2-4.3,0.1-8.8,0.4-13c0.1-1.9,0.3-3.8,0.4-5.7c0.2-4,0.3-7.9,0.4-11.8c0.3-9,0.5-17.4,1.8-25.6
		c0.5-2.9,1.8-6.3,3.2-9.8c3.1-8,6.7-17.1,3.6-27.2c-2.7-8.8-8.5-17.1-13.7-24.3l-0.4-0.6c-1.2-1.7-2.4-3.4-3.5-5
		c-5-7.4-8.1-17.4-8.6-28.1c-0.5-10.2,2.2-19.9,6.4-30.6c0.2,2.7,0.6,5.3,1.2,7.8c2,8.6,6,15.9,9.9,22.9c5.1,9.2,9.4,17.1,8.5,26.2
		l-0.8,7.2c-0.1,0.6,0.1,1.1,0.5,1.6c0.4,0.4,0.9,0.7,1.4,0.8l14.3,1.5c1.2,0.1,2.2-0.7,2.4-1.9l0.8-7.2c1.6-15-4.9-26.8-10.7-37.2
		c-3.4-6.2-6.6-12-8-18.1c-2.2-9.6-0.3-19.8,1.8-30.7c2.4-12.8,4.9-26,1-39.7l-2-6.9c-0.3-1.1-1.5-1.8-2.7-1.5l-0.1,0
		c-4.5-35.1-27.6-75.5-64.1-86.8c-12.1-3.7-24.9-5.4-41.5-5.4c-6.2,0-12.5,0.2-17.9,0.4c-13.8,0.6-26.5,5.1-38.9,9.5
		c-5,1.8-9.7,3.5-14.4,4.9c-26,7.7-54.2,12.5-81.6,13.7c-21.9,1-44-4.1-62.5-9.1c-1.8-10.9-12.1-24.9-13.4-26.5
		c-6.9-9.1-16.8-14.2-26.3-19.2c-4.3-2.3-8.4-4.4-11.9-6.8c-10.6-7.2-20-14.5-29.9-22.3l-1-0.8c-1.8-1.4-3.6-2.8-5.4-4.2l-0.9-0.7
		c-14.3-11.1-32.1-24.9-51.7-28.5c-6.9-1.3-14.2-1.9-21.3-1.9c-8.4,0-20.3,1-29.8,5.6c-3.5-2.2-7-4.3-10.5-6.3
		c-3.6-2.1-8.6-1.4-11.5,1.6c-3,3.2-3.4,8-1,11.6c0.3,0.5,0.6,1.1,0.9,1.6l-2.9,2.7c-2.1,1.9-4.1,3.9-6.2,5.9
		c-9.2,8.8-18.6,17.8-29.3,23.4c-2.8,1.5-4.6,4.2-5,7.3c-0.3,3.1,0.9,6.2,3.4,8.2l2.1,1.7c8.5,6.9,12.3,10.1,16.4,19.1l2.6,5.6
		c-1.6,3.6-3.2,7.2-4.7,10.8C1193.6,3112.5,1189,3123.3,1181.8,3132.9z M1214,3070.1c-3.1-5.1-6.4-8.8-10.2-12.3
		c6.1-4.4,11.6-9.3,17.3-14.8c0.4,5,1.4,9.8,2.8,14.2c-2.2,2.5-4.4,5.1-6.5,7.9C1216.3,3066.7,1215.1,3068.4,1214,3070.1z
		 M1241.3,3080.8c0.4,0.4,1,0.6,1.6,0.5c0.6,0,1.1-0.3,1.5-0.7l9.4-10.9c0.8-0.9,0.7-2.3-0.2-3l-5.5-4.7c-0.5-0.4-1-0.9-1.5-1.5
		c0.2-0.7,0.1-1.6-0.5-2.2l-2.7-2.6c-2.7-5.4-3.5-11.8-3.7-16.2c-0.1-2.6,0.3-5.5,0.9-8.7c0.1-0.7,0.2-1.5,0.4-2.2l0.6,0.8
		c0.5,0.8,1.5,1.1,2.4,0.9c3.9,2.9,7.5,6,11,9.5c5.4,5.4,5.1,8.8,3,19.8l-1.3,7.1c-0.1,0.6,0,1.1,0.3,1.6c0.3,0.5,0.8,0.8,1.4,0.9
		l14.2,2.6c1.2,0.2,2.3-0.6,2.5-1.7l1.3-7.1c0.2-1.3,0.5-2.6,0.7-3.9c8.5,3.3,17.4,8.4,24,12.1l0.8,0.4c2,1.1,3.8,2.2,5.5,3.1
		c3.4,1.9,6.7,4.1,10.3,6.5c3.4,2.3,7.3,4.9,11.4,7.2c5,2.8,10.1,5.1,15,7.3c5.9,2.7,11.5,5.2,16.8,8.4
		c11.6,7.1,22.2,13.3,34.6,16.8c4.5,1.3,9,2.6,13.6,4l0.4,0.1c26.9,7.9,54.7,16.2,83.5,16.2c2.2,0,4.4-0.1,6.5-0.1
		c28.8-1.3,58.6-6.3,86.1-14.5c5.2-1.5,10.4-3.4,15.5-5.2c11.5-4.1,22.4-8,33.3-8.4c5.6-0.2,11.6-0.4,17.4-0.4
		c14.7,0,25.4,1.4,35.7,4.6c33.9,10.5,55.1,55.9,51.4,89.5c-1.3,11.6-6.1,22.9-11.3,34.9c-6.9,16-14,32.5-13,51.2
		c0.7,14.1,4.9,27.4,11.8,37.6c1.2,1.8,2.5,3.6,3.8,5.5l0.3,0.4c4.6,6.4,9.3,13.1,11.1,19c1.2,3.9-0.9,9.2-3.1,14.9
		c-1.7,4.4-3.4,8.9-4.2,13.7c-1.5,9.3-1.8,18.8-2,28.1c-0.1,3.7-0.2,7.5-0.4,11.3c-0.1,1.8-0.2,3.6-0.3,5.4c-0.3,4.4-0.6,9-0.5,13.8
		c-0.5,0.1-1,0.2-1.5,0.3l-7,1.8c-0.4,0.1-0.8,0.3-1.1,0.6c-2,0.1-4.1,0.1-6.1,0c4.3-13.6,2.8-36.7,0.9-59.5
		c-0.3-3.9-0.7-8.3-0.7-9.4c0.5-17.5-17.9-40.4-31.3-57.1c-2.8-3.5-5.3-6.6-7.1-9c-1.4-1.9-2.8-3.7-4.3-5.7
		c-3.4-4.4-6.5-8.5-9.3-13.1c-6.8-11.4-11.7-17.8-21.4-27.6c-6-6.1-11-16.1-8.9-22.2l2.3-6.8c0.4-1.1-0.2-2.3-1.3-2.7l-13.6-4.7
		c-0.5-0.2-1.1-0.1-1.6,0.1c-0.5,0.3-0.9,0.7-1.1,1.2l-2.3,6.8c-3.1,9.2-0.7,18.4,2.1,24.9l-2.5,3.6c-2.1,3-5.6,6-10.6,8.9
		c-0.3-0.2-0.6-0.4-0.9-0.5c-0.6-0.1-1.1,0-1.6,0.3l-9.9,6.1c-2.5,1-5,1.7-7.3,2.4c-1.5,0.4-2.9,0.9-4.2,1.3
		c-19.1,6.6-35.5,9.4-54.9,9.4c-8.2,0-16.6-0.8-27.3-2.5c-6-0.9-12.3-1.7-18.8-2.4c-0.3,0-0.7,0-1-0.1c-0.4,0-0.8,0-1.2-0.1
		c-5-0.5-12.6-1.3-20.1-1.3c-3.7,0-7,0.2-10,0.6c0.1-4.6-0.7-8.6-2.2-12.1l-2.8-6.6c-0.5-1.1-1.7-1.6-2.8-1.1l-13.2,5.7
		c-1.1,0.5-1.6,1.7-1.1,2.8l2.8,6.6c2.1,5-1.2,16.7-3.7,25.3c-1.8,6.4-3.6,12.5-4.1,17.9c-0.6,6.4,0.1,12.6,0.8,18.6l0,0.2
		c0.3,2.9,0.6,5.7,0.8,8.4c0.1,2.4,0.1,5.1,0,8c-0.1,5.7-0.2,11.5,0.9,17.5c2,11.1,5.9,22.9,9.3,33.4l1,3.2c0.3,1.1,0.8,2.1,1.3,3.3
		c0.1,0.1,0.1,0.3,0.2,0.5c-1.4,1.6-2.4,3.3-3,5.3c-1.4,4.6-0.7,9.1-0.1,13.1c0.2,1.2,0.4,2.7,0.5,3.9l-4.4,1.4
		c-2.4,0.7-5.5,1.1-9.9,1.1c-2.3,0-4.7-0.1-7.1-0.2c0.4-1.1,0.7-2.2,0.9-3.2c6.2-23.8,1.5-52.5-12.7-76.9c-4.9-8.5-5.9-17-7-26.9
		c-0.7-6.1-1.4-12.4-3.1-19.1c-4.1-16-10.6-22.4-18.1-29.9c-2.4-2.3-4.8-4.7-7.4-7.7c-11.8-13.3-25.1-39.1-26.6-56.5l3.7-0.2
		c1.2,0,2.1-1,2.1-2.2l-0.6-14.4c0-1.2-1.1-2.1-2.2-2.1l-7.2,0.3c-0.2,0-0.4,0-0.6,0c-12.5,0-24.8-16.5-30.7-24.5
		c-0.9-1.2-2.9-5.3-4.4-8.2c-4.7-9.4-9.3-18.4-15.2-23l2.7-4.7c0.6-1,0.2-2.3-0.8-2.9l-12.5-7.2c-1-0.6-2.3-0.2-2.9,0.8l-3.6,6.2
		c-4.8,8.4-14.2,20.3-23.1,27.3c-1.4-0.7-5.1-3.5-13.5-13.5c-2.1-2.4-3.7-4.4-5.2-5.8c-2.6-2.5-6.7-3.3-10-1.9
		c-3.2,1.3-9.5,0.8-15.9-1.1c0.3-0.4,0.6-0.8,0.9-1.2c8.6-11.4,13.9-23.8,19-35.9c4.9-11.5,9.5-22.3,16.6-31.8
		c0.5-0.7,1.1-1.4,1.6-2.1c0.6,0.6,1.3,1.2,1.9,1.8L1241.3,3080.8z M1400.4,3102.9c-10.2-2.9-19.2-8.2-30-14.8
		c-6.2-3.8-12.6-6.7-19-9.6c-4.7-2.1-9.2-4.2-13.5-6.6c-3.3-1.8-6.5-4-10-6.3c-3.7-2.5-7.6-5.1-11.8-7.4c-1.9-1-3.9-2.2-6-3.4
		c-8.9-5.1-20-11.4-31.4-15.1l-2.5-0.8c-1.6-4.5-4.3-8.6-8.3-12.6c-1.6-1.6-3.3-3.2-5-4.7c8.3-1.2,19.5-0.8,29,0.9
		c15.1,2.8,30.3,14.5,43.6,24.9l7.4,5.8c10.2,7.9,19.8,15.4,30.8,22.9c4.4,3,9.1,5.5,13.8,7.9c8,4.2,15.6,8.2,20,13.9
		c1.9,2.5,3.9,5.6,5.7,8.7C1408.9,3105.4,1404.7,3104.1,1400.4,3102.9z M1677.4,3433.2c-0.5,0.1-1,0.2-1.5,0.3l-7,1.8
		c-0.4,0.1-0.8,0.3-1,0.6c-2,0.1-4.1,0.1-6.1,0c4.3-13.6,2.8-36.7,0.9-59.4l0-0.3c-0.3-3.8-0.7-8.1-0.6-9.2
		c0.5-17.5-17.9-40.4-31.4-57.3c-2.8-3.5-5.2-6.5-7-8.9c-1.2-1.7-2.5-3.3-3.7-4.9l-0.5-0.7c-1.6-2.1-3.3-4.3-4.9-6.5
		c6-3.6,10.7-7.5,14.2-11.8c8.6,8.8,12.6,13.9,18.6,24.1c3.3,5.6,7,10.4,10.6,15.1c1.3,1.7,2.7,3.5,4,5.3c2,2.7,4.5,5.8,7.4,9.4
		l0.1,0.2c4.8,6,12,15,17.8,23.7l-0.3,0.8c-0.6,1.7-1.2,3.4-2,5.2c-1.7,4.3-3.4,8.8-4.2,13.7c-1.5,9.4-1.8,18.9-2,28.1
		c-0.1,3.7-0.2,7.5-0.4,11.3c-0.1,1.8-0.2,3.5-0.3,5.4C1677.6,3423.8,1677.3,3428.3,1677.4,3433.2z M1665.9,3454.7
		c0,1.9-0.1,3.6-0.2,5.2c-4.3,0.2-10.7,0.4-17.4,0.4c1.3-2.1,2.6-4.3,3.8-6.4C1656.5,3454.5,1661.2,3454.8,1665.9,3454.7z
		 M1705.5,3463.3c4.3,0.6,9,0.9,13.7,0.8c0,1.9-0.1,3.6-0.2,5.2c-4.3,0.2-10.8,0.4-17.4,0.4
		C1703,3467.6,1704.2,3465.4,1705.5,3463.3z M1369.9,3321.1c1.4,5.5,2,11,2.7,16.7c0.6,5.1,1.2,10.3,2.3,15.6
		c-0.6-2.3-1.2-4.6-1.6-6.9c-0.3-1.6-0.6-3.2-0.9-4.9l-0.1-0.7c-2-10.5-4-21.4-9.6-31.5c-1.7-3.1-3.5-6.1-5.3-9
		C1363.7,3306.7,1367.2,3310.5,1369.9,3321.1z M1377.8,3448.9c2.2-5,4.4-10.2,5.9-15.9c4.6-17.6,2.3-39.9-1.1-53.6
		c-1.3-5.3-2.8-10.1-4.3-14.9l-0.1-0.3c-0.1-0.3-0.2-0.7-0.3-1c1.1,2.8,2.4,5.7,4.1,8.6c11.6,19.9,15.7,44,10.8,62.8
		c-1.2,4.4-3.1,8.8-5.1,13.6c-1.6,3.6-3.3,7.7-4.8,12.1c-3.2-0.1-6.4-0.3-9.5-0.5C1374.6,3456.3,1376.2,3452.7,1377.8,3448.9z
		 M1402.6,3461.1c1.7,0,3.5,0.1,5.4,0.2c4,0.2,8.6,0.4,13.2,0.1c0.1,1.3,0.3,2.6,0.4,3.8c0.1,0.7,0.2,1.6,0.3,2.5
		c-1.4,0.2-3.6,0.3-7,0.3c-4.8,0-10.3-0.3-14.7-0.6C1401,3465.2,1401.8,3463.1,1402.6,3461.1z M1224.6,3178.9
		c-0.5,1.4-0.6,3-0.4,4.5c0.4,2.4,0.3,2.7,0,3c-0.9,0.9-3.7,2.1-8.2,4.2l-1.1,0.5c-0.5,0.2-1.5,0.5-2.6,0.7c0.7-0.5,1.5-1.1,2-1.4
		l6-4.1c0.5-0.3,0.8-0.8,0.9-1.4c0.1-0.6,0-1.1-0.3-1.6l-8.1-11.9c-0.4-0.6-1.1-0.9-1.8-0.9c-0.4,0-0.8,0.1-1.2,0.4l-6,4.1
		c-4.4,3-9.8,7.6-10.8,14.9c-0.1-0.1-0.2-0.2-0.3-0.3c-4.5-4.5-9.1-9.2-10.9-14c-1.6-4.2-0.8-8.6,2.6-14.4
		c3.8,1.5,12.9,4.9,22.6,4.9c1.8,0,3.5-0.1,5.2-0.4l0.6,0.7C1215.8,3169.9,1220,3174.9,1224.6,3178.9z M1696.1,3433.6
		c-0.2-4.2,0.1-8.4,0.4-12.9l0.1-0.9c0.1-1.7,0.2-3.3,0.3-5c0.2-3.8,0.3-7.6,0.4-11.3l0-0.5c0.1-3.4,0.2-6.8,0.3-10.1
		c1.1,14.3,2.7,39.7-0.9,47.8l-0.7-1.1C1696.3,3437.5,1696.2,3435.2,1696.1,3433.6z M1684.6,3452.6l0-0.6c2.3-0.8,4.3-1.7,6-2.7
		c0.1-0.1,0.3-0.1,0.4-0.2l0.9-0.6l-0.7,2.4c-2.2,3.7-4.6,7.7-6.8,11.4C1684.6,3459.6,1684.7,3456.5,1684.6,3452.6z"/>
</g>
<g>
	<path class="st0" d="M1354.9,4136.5c1,0,2-0.6,3-0.5c1.3,0,2.6-0.2,3.9-0.2c3.3,0,6.9-0.4,10.3-1.8c6-2.3,13-8,13-16.2
		c0-11.1-6.5-18.3-14.5-21.3c-0.7-5.3-3.7-10.4-7.2-13.8c-2.8-2.7-5.9-4.5-9.2-5.2c-0.4-5.6-0.3-14.6,3.4-27.7
		c2.1-7.5,4.5-13.8,6.9-20c7-18.2,13.1-34,1.8-62.1c-1.3-3.3-2.8-6.1-4.3-8.9c-0.6-1.1-1.2-2.3-1.7-3.3c6-1.3,11.8-4.3,16.4-8.6
		c0.4-0.4,0.9-0.8,1.5-1.3c3.5-3,9.4-8.1,10-17.3c0.5-8.1-3-15.2-9.3-19c-1.2-0.7-3.8-2.5-6.9-6c-2.6-3-5-4.7-7-6.2
		c-1.1-0.8-2.2-1.6-3.3-2.6c-1.5-3.2-1.1-14.8-0.9-19.2l0.1-1.9c0.1-2.6-1.1-5-3.1-6.6c-2-1.6-4.7-2-7.2-1.3
		c-16.3,5.1-20.2,15.2-20.9,21.2c-0.2,0.3-0.7,1.1-1.9,2.2c-0.2,0.1-0.6,0.3-0.9,0.5c-0.9,0.4-2.2,1.1-3.5,2
		c-20.4,14.6-21.6,32.9-22.8,49c-0.3,4.9-0.7,9.4-1.5,13.8c-1.3,7-2.7,10.7-3.8,12.6c-49.4,8.2-79.6,55.9-87.9,101.7
		c-0.6,3.5-1.1,6.9-1.5,10.2c-0.4,2.8-0.7,5.5-1.2,8.2c-2.2,13.4,1.3,28,9.2,37.3c6.5,7.6,15.3,12.2,25.6,12.2c0,0,0.1,0,0.1,0
		c0.4,0,0.7,0,1,0H1354.9z M1311.2,4094.4c-1.2-5.6-4.6-10.9-9.4-14.3c3.5-5.4,8.2-11.2,13.4-16.3c1.1,14.2,1.9,25,3.3,30.6H1311.2z
		 M1226,4113.5c-4.9-5.8-7.1-15.2-5.7-23.9c0.5-2.9,0.9-5.8,1.3-8.7c0.4-3.3,0.9-6.4,1.4-9.5c7.7-42.5,36.1-86.7,82.3-89.8
		c0.3,1.6,1,3.1,2.2,4.3c1.5,1.5,3.5,2.3,5.6,2.3c2.1,0,4.1-0.8,5.6-2.3c1.5-1.5,2.3-3.5,2.3-5.6c0-2.1-0.8-4.1-2.3-5.6
		c-1.5-1.5-3.5-2.3-5.6-2.3c-0.1,0-0.2,0-0.4,0c-0.2-1.2-0.6-2.3-1.3-3.2c1.2-3.4,2.3-7.4,3.2-12.1c1-5.2,1.4-10.5,1.7-15.6
		c1-14.5,1.9-27,16.2-37.3c0.3-0.2,0.7-0.4,1.2-0.7c1.4-0.7,3.3-1.6,5.1-3.5c3.4-3.4,5.3-6.5,6.1-9.5c0.6,6.6,2.1,11.8,5.6,15.1
		c1.9,1.7,3.5,2.9,5,4c1.8,1.3,3,2.2,4.5,3.9c3.4,3.9,7.1,7.1,10.7,9.2c1.5,0.9,1.7,2.9,1.7,4.5c-0.1,2.2-1.5,3.6-4.5,6.2
		c-0.7,0.6-1.4,1.2-2,1.8c-3.3,3.1-8,5-12.3,5c-1.5-1-3.4-1.5-5.3-1.2c-2.8,0.4-5,2.1-6.1,4.4c-0.5,0.7-0.9,1.6-1.1,2.5
		c-0.5,2.2,0,4.4,1.2,6.2c1.4,5.4,3.7,10,5.9,14c1.3,2.5,2.6,4.9,3.6,7.4c9,22.3,4.7,33.5-1.9,50.5c-2.4,6.2-5.1,13.2-7.4,21.4
		c-6,21.5-4,34.5-3.2,39.4c0.1,0.3,0.1,0.6,0.1,0.8c0,2.5,1.2,4.9,3.3,6.5c2.4,1.7,5.5,2,8.1,0.7c0.4,0.1,1.3,0.6,2.2,1.7l-18.3,0.1
		c-1.7-4.4-2.7-18.1-4-33.8c-0.5-6.2-1-13.2-1.7-21.2c-0.4-4.4-4.2-7.6-8.6-7.2c-4.4,0.4-7.6,4.2-7.2,8.6c0.1,1.1,0.2,2.2,0.3,3.3
		c-6.5,5.1-12.7,11.2-17.9,17.6c-1-6.2-3.3-12.3-7.2-17.3c-7.2-9.1-18.6-13.1-32.1-11.2c-4.3,0.6-7.4,4.6-6.7,8.9
		c0.6,4.3,4.6,7.3,8.9,6.7c7.9-1.1,13.8,0.7,17.4,5.3c5.2,6.6,5.4,17.7,2.7,24.7c-1.1,2.8-0.5,6.8,1.4,9c1.1,3.1,4,6.3,7.5,6.3h3.3
		c1.2,0,2.5,0,3.5,0h-34.5c-4.4,0-7.9,4-7.9,8.4c0,4.4,3.5,8.4,7.9,8.4h89.2c1.5,0,3.1-0.2,4.6-0.2c3.1,0,6-0.2,8.9-0.1
		c2.5,0.1,6.6,0.9,6.8,6.4c-0.4,0.5-1.6,1.3-2.8,1.8c-1.9,0.7-5,0.7-8.1,0.6c-1.2,0-2.4,0-3.6,0h-115.7c-0.2,0-0.4-0.1-0.7,0
		C1233.4,4119.4,1229.2,4117.3,1226,4113.5z"/>
	<path class="st0" d="M1467.1,3691.3c-0.5,1.3-0.9,2.6-1.4,4c-17.5,2-35.3,11-49.7,25.5c-5.7,5.7-10.2,8.3-18.1,12
		c-5.6,2.6-11,5.6-15.6,8.2c-0.6,0.3-1.5,0.8-2.4,1.3c-3.3,1.7-7.2,3.7-10.2,6.6c-2.6,1.5-4.4,4.1-4.9,7.1
		c-3.3,21.7,17.1,40.7,30.8,47.5c7.7,3.9,15.9,4.3,23.1,4.7c1,0.1,2,0.1,2.9,0.2c1.6,0.1,3.4,0.3,5.3,0.5c3.1,0.3,6.5,0.7,10.1,0.7
		c0.6,0,1.2,0,1.9,0c-0.6,1.2-1.1,2.4-1.6,3.6c-5,12-9.3,23-11.1,36.2c-3,21.9-2,40.8,0.6,64.2c1,8.9,3.3,18.4,5.5,27.6
		c3.4,14.3,7,29,5.9,41.4c-0.6,6.7-2.1,12.6-3.6,18.9c-1.6,6.6-3.3,13.4-4.1,21.4c-0.4,3.9-1.5,15.8-5.8,16.4
		c-9,1.1-25.6,3.1-30.9,18.5c-2.8,8.2-2.5,16.8,0.9,23.5c2.9,5.7,7.7,9.7,14,11.6c5.9,1.8,13.1,2.7,20.1,2.7c6,0,11.9-0.7,16.7-2.1
		c13.1-3.7,21.4-14.8,27.8-26.4c0,1.5,0.1,3,0.2,4.6l0.1,1.5c0.5,4.8,0.9,9.3,4.6,13.1c3.9,4,9.2,4.5,13.9,5c2,0.2,6.9,0.3,14.1,0.3
		c11.1,0,27.6-0.2,47.5-0.4c11.1-0.1,20.7-0.3,25.1-0.3c3.4,0,6.8,0.1,10.4,0.2c7.2,0.2,14.7,0.5,22.4-0.3c1.1-0.1,2.2-0.2,3.3-0.3
		c6.4-0.4,16-1.1,22.2-11.1c2.2-3.6,5-7.9,7.9-11.9c0.9-0.4,1.7-1,2.4-1.7c1,0.7,2.1,1.6,3.2,2.7l0.9,0.9
		c5.5,5.6,11.7,11.9,20.8,15.6c15.2,6.2,32.4,12.1,50.3,12.1c6.3,0,12.7-0.7,19.1-2.4c20.1-5.3,40.7-12.8,54.6-31.7
		c7.9-10.7,13.2-23.8,15.4-37.9c1.6-10.3,4.6-29.6-4.5-40.7c-2.4-2.9-6.2-4.3-9.9-3.5c-3.7,0.8-6.6,3.7-7.5,7.3
		c-0.2,1-1.8,3-2.9,4.4c-0.6,0.8-1.2,1.6-1.8,2.4c-10,13.9-23.1,23.4-40.1,29.1l-0.6,0.2c-25.9,8.7-47.4,7.2-64.1-4.5
		c2.8-4.7,5.8-10.5,6.6-14.9c9.7-51-1-94-31.6-128c-23.9-26.5-53.3-39.1-62.9-43.3c-0.9-0.4-1.7-0.7-2.2-1c-6.3-2.9-12.9-4.8-21.5-6
		c-1.3-0.2-4.1-0.9-6.9-1.7c-1.5-64.3-28.2-95.3-40-108.9c-1.5-1.7-3.3-3.8-3.9-4.7c-0.8-2.2-1.2-5.1-1.6-8.3
		c-1-7.9-2.4-18.7-12-25.8c-2.5-1.9-5-3.5-7.5-5c-4-2.6-7.9-5-10.4-7.9c-2.9-3.4-7.8-4.4-11.8-2.5c-4,1.9-6.3,6.3-5.6,10.7
		c0.9,5.1,0.8,8.3-0.2,12.9C1468.5,3687.5,1467.8,3689.3,1467.1,3691.3z M1489,4037.6c2.2-3.5,4.5-7.1,6.9-10.8
		c2.5-3.9,5.1-7.8,7.6-11.8c1.7,3.9,4.1,8.5,7.1,13C1502.7,4029.7,1495.1,4033,1489,4037.6z M1485.9,3698c0.8-2.2,1.7-4.6,2.3-7.3
		c1.5,1,2.9,1.9,4.2,2.9c2.6,2,3.3,6,4.1,12.3c0.5,4.1,1.1,8.8,2.9,13.3c1.3,3.2,3.6,6,7.2,10.1c11.9,13.8,36.7,42.5,35.2,107.2
		c-0.1,5.5,4.2,10.1,9.8,10.2c0.1,0,0.2,0,0.2,0c2.2,0,4.2-0.7,5.9-2c2.8,0.8,6,1.5,8,1.8c6.5,1,11.4,2.3,15.9,4.4
		c0.6,0.3,1.6,0.7,2.7,1.2c46.8,20.1,99.2,62.3,82.8,149.1c-0.4,1.8-3.5,8.1-7.4,13.4c-2.9,4-2.4,9.3,0.8,12.7
		c0.5,2,1.6,3.8,3.3,5.2c15.7,13,43.5,25.4,86.8,10.8l0.6-0.2c16.5-5.5,30.1-14,41.2-25.8c-0.2,1.5-0.4,3.1-0.7,4.7
		c-1.7,10.9-5.8,20.9-11.7,29.1c-9.6,13.1-24.4,19.2-43.5,24.2c-18.9,4.9-38.4-1.3-56.7-8.8c-5.4-2.2-9.4-6.3-14.1-11.1l-0.9-1
		c-4.2-4.3-12.7-11.2-21.8-9.6c-2.6,0.5-5,1.6-7,3.3c-1.2,0.6-2.2,1.4-3.1,2.4c-5,5.8-9.5,12.8-12.8,18.2c-0.6,1-0.8,1.3-6.5,1.6
		c-1.3,0.1-2.6,0.2-3.9,0.3c-6.3,0.6-12.8,0.4-19.7,0.2c-3.6-0.1-7.3-0.2-11-0.2c-4.5,0-14.2,0.1-25.4,0.3
		c-20.6,0.3-55,0.7-59.4,0.3c-0.2,0-0.3,0-0.5,0c0,0,0,0,0-0.1l-0.2-1.5c-0.6-5.8,0.3-8.8,3.7-12.7c6.7-7.7,21.5-12.3,31.6-9.7
		c0.7,0.2,1.3,0.3,2,0.3c2.8,1.8,5.7,3.3,8.4,4c0.9,0.2,1.7,0.3,2.6,0.3c4.4,0,8.5-3,9.7-7.4c1.4-5.3-1.7-10.8-7.1-12.2
		c-1.9-0.6-7.5-4.5-11.3-8.1c-4.9-4.7-9.7-12.6-13.2-21.9c-2.6-6.8-2.2-12.6-0.6-22.3c2.2-13.1,9.2-27.7,19.7-30.6
		c5.3-1.5,8.5-7,7-12.3c-1.5-5.3-7-8.5-12.3-7c-20.3,5.6-30.9,27.6-34.1,46.5c-0.5,2.7-0.9,5.5-1.2,8.3c-1,0.8-1.9,1.9-2.5,3.2
		c-4.8,9.4-10.9,18.7-16.7,27.8c-3.5,5.4-7.2,11-10.5,16.6c-2.4,4-4.6,8.6-7,13.4c-5.9,12.1-12.5,25.8-21.8,28.5
		c-6.6,1.9-18.2,1.6-25.4-0.6c-1.2-0.4-1.7-0.9-2-1.6c-0.9-1.8-0.9-5,0.1-8c1.1-3.2,8-4.3,14.4-5.1c20.2-2.5,22.5-25.6,23.3-34.3
		c0.6-6.6,2.1-12.4,3.6-18.5c1.7-6.7,3.4-13.6,4.1-21.8c1.4-15.7-2.5-32.1-6.3-47.9c-2.2-9-4.2-17.5-5.1-25.1
		c-2.4-21.9-3.4-39.5-0.7-59.3c1.5-10.8,5.1-20.2,9.8-31.2c3-7.2,8.3-16.4,12.6-23.7c0.7-1.2,1.4-2.4,2-3.5c0.5-0.8,0.8-1.7,1-2.5
		c0.6-0.6,1.2-1.1,1.8-1.7c4.1-3.6,4.6-10,0.9-14.1c-3.6-4.2-10-4.6-14.1-0.9c-2.1,1.8-4,3.7-5.8,5.6c-1.9,1.9-3.6,3.6-5.1,4.9
		c-2.2,1.8-3.4,2.4-6.6,3.9l-0.2,0.1c-2.8,1.3-8.3,0.7-13.1,0.2c-2-0.2-4.1-0.5-6.2-0.6c-1-0.1-2.1-0.1-3.1-0.2
		c-5.7-0.3-11.1-0.6-15.1-2.6c-9.2-4.7-18.7-14.8-20-23.2c1.2-0.8,3.2-1.8,4.3-2.4c1.2-0.6,2.2-1.1,3.3-1.7c4.2-2.4,9.1-5.2,14-7.4
		c9.6-4.4,16.3-8.3,24-16c11.8-11.8,26-19.4,39.6-20.4c1.1,0.5,2.4,0.4,3.7,0.4c0.1,0,0.2,0,0.3,0c5.4,0,9.8-3.8,10-9.2
		C1483.9,3703.3,1484.8,3701.1,1485.9,3698z"/>
</g>
<g>
	<path class="st0" d="M197.3,271.7c-3.9-3.5-9.9-3.1-13.3,0.8c-31.3,35.2-26.3,92.8-12.5,131.3c9.7,27.3,18.8,49.7,39.5,69.3
		c13.8,13.1,46.3,30.1,69.5,24.6c10.7,13.8,34.4,35.3,52.1,37.9c1.2,0.2,2.5,0.3,3.7,0.3c2.7,0,5.2-0.5,7.5-1.4
		c1.5,1.8,3,3.6,4.7,5.3c-2.6,7.8-2.2,27.3-0.7,40.9c-4,0-7.7,0.2-11,0.3c-12,0.6-42.3,11-45.7,12.2c-4.9,1.7-7.5,7.1-5.8,12
		c1.7,4.9,7.1,7.5,12,5.8c11.9-4.1,33.4-10.8,40.5-11.2c8.4-0.4,16.9-0.4,25.3,0.6c-13.3,3.3-28.9,8.7-31.2,9.5
		c-4.9,1.7-7.5,7.1-5.8,12c1.7,4.9,7.1,7.5,12,5.8c11.9-4.1,33.4-10.8,40.5-11.2c10.8-0.6,21.7-0.4,32.3,1.8
		c9.6,2,16.3,8.1,25.4,11.4c1.9,0.7,4,0.9,5.8,0.6c5.1-0.8,9.8-5.4,6.8-11.3c-7-13.4-24.2-18.8-41.3-20.7c-1.5-10.7-2-30.5-0.7-35.3
		c0.3-0.6,0.5-1.3,0.6-2c11.4-1.6,22-6.3,30.7-14.2c0.4-0.4,0.8-0.8,1.2-1.2c1.8,2.3,4.6,3.6,7.4,3.6c1.3,0,2.7-0.3,4-0.9
		c4.9-2.3,10.8-3.2,17.1-4.2c8.2-1.3,17.5-2.8,26-7.6c14.2-8.1,26.8-25,33.8-38.3c8.9-16.8,14.5-48.6,7.2-70.8
		c20-8.1,35.3-21.3,43.7-37.9c6.3-12.5,7.3-29.9,5.4-41.6c-0.5-3.1-1.9-6.9-3.5-10.2c2.6-2.9,4.8-6.1,6.5-9.6
		c12.2-17.9,9.4-24.2,8.3-26.6c-9.5-20.7-40.5-34.7-72.2-32.3c-22,1.6-73.1,8.3-103.7,36.5c-12.4-13.2-33.6-23.4-45.1-26.2
		c-5.7-1.4-11.1-1.8-16.2-2.2c-6-0.5-11.6-0.9-16.7-2.9c-6.9-2.7-7.1-3.2-8.7-12c-0.5-2.8-1.1-6-2-9.6c-1.4-5.6-2.7-11.4-4.1-17.4
		c-4-17.9-8.6-38-17-56.2c15.6-9.9,23.9-30.2,21.3-52.2c-2.8-22.8-15.9-40.3-34.4-45.9c-9.7-2.9-18.9-2.2-26.6,2.2
		c-2.6,1.5-4.9,3.3-7.1,5.5c-5.3-3.9-12.6-6-20.5-5.7c-9.7,0.3-15.6,4.7-18.7,8.4c-1.9,2.2-3.4,4.7-4.6,7.5
		c-7.9-4.6-14.9-3.8-18.4-2.8c-11.3,3-20.1,14.8-20.5,27.5c-0.2,6,3.5,11.6,7.5,15.9c-4.4,0.7-7.9,2.7-13,4.3
		c-7.9,2.4-11.2,3.5-18.8,7c-3.9,1.8-11.1,7.6-15.1,10.5c-0.1,0.1-0.2,0.2-0.3,0.3c-0.1,0.1-0.3,0.2-0.4,0.3
		c-0.1,0.1-0.2,0.2-0.3,0.4c-0.2,0.2-0.4,0.4-0.6,0.7c-0.2,0.2-0.4,0.5-0.6,0.8c-0.2,0.3-0.3,0.5-0.5,0.8c-0.2,0.3-0.3,0.6-0.4,0.8
		c-0.1,0.3-0.2,0.6-0.3,0.8c-0.1,0.3-0.2,0.6-0.2,0.9c-0.1,0.3-0.1,0.6-0.1,0.9c0,0.3-0.1,0.6-0.1,0.9c0,0.3,0,0.6,0,0.9
		c0,0.3,0.1,0.6,0.1,0.9c0.1,0.3,0.1,0.6,0.2,0.9c0.1,0.3,0.2,0.6,0.3,0.9c0.1,0.3,0.2,0.6,0.4,0.8c0.1,0.3,0.3,0.6,0.5,0.8
		c0.1,0.1,0.1,0.3,0.2,0.4c0.1,0.1,0.2,0.2,0.3,0.3c0.1,0.1,0.2,0.3,0.3,0.4c12.7,14.3,23.5,18.6,38.7,22.3c0.2,0,0.4,0.1,0.6,0.2
		c-9,12.9-7.9,22.7-4.8,29.2c5.3,11.2,18.5,15.9,30.3,16c-0.5,3.7-2,7.4-4.4,10.1c-3.4,3.9-3.1,9.9,0.9,13.3c1.8,1.6,4,2.3,6.2,2.3
		c2.6,0,5.2-1.1,7.1-3.2c6.1-7,9.5-16.4,9.3-25.9c0-0.3-0.1-0.6-0.1-1c6.7-3.6,11.3-9.3,12.9-16.3c1.1-5.1-2.1-10.1-7.2-11.2
		c-5.1-1.1-10.1,2.1-11.2,7.2c-0.7,3.1-5.5,5.1-10,5.6c-7.9,0.9-15.1-2-16.6-5.1c-1.3-2.6,0.6-8.9,10-18.1c1.5-1.5,2.4-3.4,2.7-5.4
		c0.6-0.4,1.1-0.8,1.6-1.1c3.1-2.1,8.9-5.9,7.6-16.3c-0.7-5.2-5.4-8.8-10.6-8.2c-4.7,0.6-8.2,4.6-8.2,9.2c-0.9,0.6-1.8,1.2-2.8,2.1
		c-0.2,0.2-0.4,0.4-0.6,0.5c-0.7-0.4-1.4-0.7-2.3-1c-1.9-0.5-3.8-1-5.7-1.4c-11.4-2.8-15-4.1-20.9-10.1c0.6-0.5,1.3-1,1.9-1.5
		c6.5-5.2,9.5-5,14-6.4c3.8-1.2,8.7-3.2,14-3.2c5.8,0,7.5-2,13.4-3.5c4.5-1.1,8.7-2.3,12.8-3.6c15.6-4.6,26.8-7.9,41.9-0.4
		c32.4,16.2,40.7,53.1,48.8,88.9c1.4,6.1,2.7,12.2,4.2,17.9c0.8,3.2,1.3,6,1.8,8.4c1.9,10.1,3.6,19.6,20.3,26.1
		c7.7,3,15.1,3.6,22.2,4.1c4.6,0.4,9,0.7,13.2,1.7c12.4,3,35.2,16.1,40,26.6c1.4,3,4.2,5.1,7.4,5.5c3.2,0.4,6.5-0.9,8.5-3.4
		c24-30,77-36.8,98.6-38.4c24.9-1.8,45.9,8.4,52.7,19.4c-0.6,1.6-1.7,3.7-3.1,6c-1.5,1.1-2.7,2.7-3.3,4.6c-0.1,0.4-0.3,0.7-0.4,1
		c-1.5,2.2-3.1,4.2-4.3,5.5c-0.8,0.2-1.6,0.5-2.4,0.9c-2.5,1.3-4.2,3.6-4.8,6.2c-7.5,5.2-17.4,9.6-26.4,12.2
		c-5,1.5-7.9,6.7-6.4,11.7c1.2,4.1,5,6.8,9,6.8c0.9,0,1.8-0.1,2.7-0.4c5.2-1.5,16.6-5.3,27.4-11.9c0.1,0.3,0.2,0.6,0.2,0.9
		c1.6,10.1,0.1,22.7-3.6,30c-7.3,14.4-22.7,26-42.5,31.9c-2.9,0.9-5.2,3-6.2,5.8c-1,2.8-0.6,6,1,8.4c9.2,13.8,4.8,47.5-3,62.2
		c-6,11.2-16.4,25-26.5,30.7c-5.6,3.1-12.4,4.2-19.7,5.4c-4.1,0.7-8.3,1.3-12.4,2.4c5-11,5.1-22.4,5.1-35.4c0-5.2-4.2-9.5-9.4-9.5
		c0,0,0,0,0,0c-5.2,0-9.4,4.3-9.4,9.5c-0.1,21-0.7,28.9-13.3,40.3c-12,10.9-29.7,13-46.4,5.5c-15.9-7.1-32.8-24.3-32.6-51.2
		c0-5.2-4.1-9.5-9.4-9.5c-5.3-0.1-9.5,4.1-9.5,9.4c-0.1,10.5,1.9,20.5,5.7,29.7c-11.1-3.2-35.8-24.4-40.5-34.4
		c-1.1-2.4-3.2-4.2-5.7-5c-2.5-0.8-5.3-0.5-7.6,0.8c-12.4,7.1-42.5-6.2-55.6-18.6c-17.6-16.7-25.8-37-34.7-61.9
		c-13-36.4-15.3-85.3,8.9-112.5C201.5,281.1,201.2,275.1,197.3,271.7z M211.9,133c-1.3,0.4-2.7,0.8-4.1,1.2c-1.1-2.1-3-3.9-5.5-4.7
		c-1.9-0.6-3.7-1.7-3.6-5.2c0.1-4.3,3.2-9,6.4-9.8c3.4-0.9,8.2,3.1,12.6,10.3c1.7,2.8,4.6,4.4,7.7,4.5
		C220.8,130.4,216.3,131.7,211.9,133z M267.5,133.8c-14.2-7.1-26.4-7.3-37.8-5.3c3.7-1.7,5.9-5.4,5.5-9.5c-0.7-6.9,0.2-12.5,2.4-15
		c0.4-0.5,1.6-1.8,5.2-1.9c4.8-0.2,8.2,1.3,9.4,2.7c2,2.5,4,4.5,4.6,7.6c0.7,3.8,1.1,7.3,6.1,6.6c3.2-0.5,5.3-1.6,6.1-4.9
		c1.5-6,6.3-12.2,10.1-14.3c3.1-1.8,7.1-2,11.8-0.6c13.4,4,19.7,18.8,21.1,30.1c1.7,14.3-2.9,27.2-11.8,33.4
		C292.1,151,281.7,140.9,267.5,133.8z M388,560.7c-1,6.5-1.1,16.1-0.6,25.3c-6.4-2.3-13.6-3.7-20.7-4.5c-1.1-7.9-1.7-20.7-1.4-28.9
		c1.9,1,3.8,2,5.8,2.9C376.7,558.1,382.3,559.8,388,560.7z"/>
	<path class="st0" d="M285.6,309.6c-4.9-1.6-10.3,1-11.9,6c-6.5,19.6,12,49.9,19,58.9c33.5,43.3,94.9,53.3,138.2,57.1
		c2.8,0.2,5.8,0.4,8.9,0.4c16.8,0,36.6-3.3,53.5-8c0,0,0,0.2,0,0.2h0c6.4-2.2,12.3-4,17.5-6c2.9-1.1,5.1-3.7,5.8-6.8
		c0.7-3-0.2-6.3-2.3-8.6c-3.4-3.7-7.1-8.1-11.1-12.7c-9-10.5-19.2-22.4-29.9-31.9c-3.9-3.4-9.9-3.1-13.3,0.8
		c-3.5,3.9-3.1,9.8,0.8,13.3c9.8,8.7,19.5,20,28.2,30.1c0.7,0.8,1.4,1.6,2.1,2.4c-1.2,0.4-2.5,0.7-3.8,1.1c-20.6,5.8-44-2.4-58-11.4
		c-11.8-7.6-19.8-15.4-27.8-27c-2.9-4.3-8.8-5.4-13.1-2.4c-4.3,3-5.4,8.8-2.4,13.1c9.4,13.7,19.3,23.3,33.2,32.2
		c0.5,0.3,1.2,0.8,2.1,1.3c-38.5-4.3-87.1-14.8-113.4-48.8c-9.4-12.1-18.6-33.6-16-41.5C293.3,316.6,290.6,311.2,285.6,309.6z"/>
</g>
</svg>
